if (_typeface_js && _typeface_js.loadFace) _typeface_js.loadFace({"glyphs":{"0":{"ha":772,"x_min":38,"x_max":735,"o":"m 365 3 q 224 42 288 3 q 118 151 164 78 q 57 314 76 221 q 42 515 38 407 q 70 715 44 619 q 139 881 96 810 q 247 1000 185 958 q 403 1044 319 1049 q 557 988 488 1040 q 658 863 618 940 q 715 706 696 793 q 735 525 735 619 q 715 342 735 429 q 656 185 694 254 q 544 60 608 104 q 381 3 474 10 l 365 3 m 390 906 q 258 810 314 906 q 203 671 222 750 q 181 510 183 592 q 192 352 178 428 q 238 222 206 276 q 374 142 289 138 q 535 254 475 149 q 580 376 564 307 q 596 525 596 446 q 580 673 596 601 q 536 797 564 744 q 396 906 481 901 l 390 906 z "},"1":{"ha":736,"x_min":26,"x_max":722,"o":"m 651 144 q 701 124 681 144 q 721 75 721 104 q 701 26 722 46 q 653 6 681 6 l 97 3 l 96 3 q 48 23 68 3 q 26 72 28 43 q 47 121 26 100 q 96 142 68 142 l 289 143 q 295 287 292 196 q 301 482 299 378 q 304 642 304 569 q 303 771 304 714 l 299 888 q 283 875 292 882 q 264 858 274 868 q 215 840 243 839 q 165 860 186 840 q 147 910 146 881 q 167 958 147 939 q 208 994 185 976 q 255 1024 231 1011 q 305 1042 279 1036 q 356 1042 331 1047 q 399 1017 381 1035 q 425 975 417 1000 q 431 953 428 967 q 435 917 433 940 q 439 860 438 894 q 442 774 440 825 q 443 642 443 715 q 440 478 443 568 q 434 288 438 378 q 428 143 431 197 l 651 144 l 651 144 z "},"2":{"ha":761,"x_min":25,"x_max":731,"o":"m 104 3 q 66 15 83 3 q 40 46 49 26 q 56 122 25 89 q 263 349 169 235 q 417 565 356 464 q 503 754 479 672 q 508 876 524 829 q 499 891 506 883 q 474 903 493 899 q 425 903 454 907 q 358 884 396 900 q 276 839 321 868 q 183 764 232 810 q 134 745 163 744 q 86 768 106 746 q 67 817 67 789 q 89 865 68 846 q 200 956 144 918 q 311 1015 256 993 q 507 1038 418 1060 q 590 997 556 1026 q 639 922 624 967 q 536 494 696 763 q 419 323 488 411 q 268 143 351 235 l 660 144 q 709 124 689 144 q 729 75 729 104 q 710 26 731 47 q 661 6 689 6 l 106 3 l 104 3 z "},"3":{"ha":636,"x_min":38,"x_max":608,"o":"m 244 3 q 96 22 176 3 q 53 53 68 29 q 44 106 38 78 q 76 149 51 133 q 129 157 101 164 q 303 147 226 133 q 422 208 379 160 q 457 274 450 238 q 451 346 464 310 q 390 420 435 390 q 278 458 344 450 q 241 476 257 461 q 221 513 225 492 q 223 553 215 533 q 249 585 231 574 q 354 675 319 633 q 404 744 389 717 q 417 847 436 806 q 383 882 406 871 q 342 899 361 893 q 265 906 314 906 q 142 886 217 906 q 89 893 114 879 q 56 935 64 907 q 63 988 49 963 q 104 1019 76 1013 q 375 1033 263 1063 q 543 904 497 1003 q 563 798 567 856 q 528 682 558 740 q 432 556 497 618 q 481 526 456 544 q 582 393 553 474 q 593 249 608 322 q 526 115 579 176 q 350 15 458 40 q 244 3 300 3 z "},"4":{"ha":750,"x_min":7,"x_max":710,"o":"m 707 444 q 695 397 710 418 q 654 369 681 376 q 651 249 653 304 q 649 155 650 194 q 648 93 649 115 q 647 69 647 71 q 626 22 646 42 q 578 3 606 3 l 575 3 q 526 26 546 4 q 508 75 507 47 q 510 156 508 78 q 515 357 513 233 q 480 356 497 356 q 444 356 463 356 q 260 371 344 356 q 121 421 176 388 q 65 465 89 440 q 29 521 42 490 q 17 639 7 575 q 65 760 26 693 q 318 1029 139 881 q 368 1044 340 1047 q 415 1019 396 1042 q 432 969 435 997 q 406 922 429 940 q 271 797 326 856 q 185 688 215 738 q 157 576 139 614 q 201 535 167 553 q 288 507 235 518 q 517 496 382 490 q 516 730 518 608 q 508 968 514 851 q 526 1017 507 996 q 574 1040 546 1039 q 624 1023 603 1043 q 647 975 644 1003 q 655 738 653 858 q 656 504 657 617 q 690 483 676 499 q 707 444 704 468 z "},"5":{"ha":715,"x_min":39,"x_max":671,"o":"m 279 3 q 99 24 194 3 q 55 53 71 29 q 44 106 39 78 q 75 149 51 133 q 126 160 99 165 q 389 156 283 126 q 459 185 429 167 q 506 232 489 204 q 529 317 532 269 q 499 406 526 364 q 374 490 454 468 q 192 489 293 513 q 146 492 168 483 q 108 521 124 500 q 89 565 94 539 q 82 636 83 592 q 84 705 82 669 q 89 767 86 740 q 96 831 92 799 q 106 892 100 864 q 118 954 113 938 q 128 979 124 971 q 178 1022 146 1010 q 244 1038 211 1033 q 301 1042 269 1040 q 371 1044 332 1044 q 433 1044 403 1044 q 485 1042 463 1043 q 523 1040 508 1040 q 539 1039 538 1039 q 587 1015 568 1036 q 603 965 606 993 q 579 917 600 936 q 529 901 558 899 q 488 903 510 901 q 444 905 468 904 q 393 906 421 906 q 296 903 329 907 q 247 897 263 900 q 238 840 243 876 q 228 758 232 803 q 222 685 224 715 q 221 635 221 656 q 432 618 336 650 q 613 485 547 578 q 668 319 665 408 q 622 154 671 229 q 425 21 557 57 q 279 3 361 3 z "},"6":{"ha":701,"x_min":36,"x_max":671,"o":"m 668 326 q 653 210 671 265 q 600 111 635 156 q 501 31 560 60 q 367 -4 442 3 l 349 -4 q 274 3 308 -4 q 207 25 239 10 q 99 122 135 60 q 58 208 71 161 q 44 303 46 254 l 44 308 q 46 532 36 431 q 83 721 56 633 q 244 968 133 885 q 408 1038 318 1025 q 596 1018 499 1050 q 635 983 624 1008 q 640 929 647 957 q 604 890 629 901 q 553 885 579 878 q 503 897 529 892 q 447 901 476 901 q 388 890 418 900 q 329 858 358 881 q 215 678 253 801 q 204 638 210 658 q 196 596 199 618 q 346 640 261 638 l 349 640 q 481 614 421 643 q 535 583 510 603 q 582 540 561 564 q 642 444 619 499 q 668 326 665 389 m 358 135 q 440 156 407 139 q 494 200 474 174 q 522 258 514 226 q 529 321 531 289 q 516 387 528 354 q 482 445 504 419 q 427 487 460 471 q 351 501 394 503 l 350 501 q 258 472 290 500 q 213 413 226 443 q 185 302 185 363 q 213 199 185 242 q 358 135 258 128 z "},"7":{"ha":692,"x_min":24,"x_max":653,"o":"m 269 6 q 225 22 244 6 q 201 64 206 38 q 205 214 189 135 q 253 374 221 293 q 326 534 285 454 q 407 686 367 614 q 451 767 431 728 q 486 838 471 806 q 508 894 504 878 q 440 905 489 900 q 297 908 392 910 q 223 907 258 908 q 160 904 188 906 q 117 902 133 903 q 100 901 100 901 q 51 917 72 899 q 26 965 29 936 q 43 1015 24 993 q 90 1039 63 1036 q 112 1040 92 1039 q 164 1043 132 1042 q 237 1046 196 1044 q 322 1047 278 1047 q 419 1045 375 1047 q 496 1038 463 1043 q 578 1018 538 1032 q 638 968 618 1004 q 651 906 653 940 q 633 830 649 872 q 590 735 618 788 q 528 619 563 683 q 453 479 492 553 q 385 332 414 406 q 338 86 322 178 q 326 35 343 58 q 281 7 310 11 q 269 6 278 6 z "},"8":{"ha":769,"x_min":33,"x_max":731,"o":"m 708 422 q 731 310 731 369 q 707 195 731 249 q 639 100 683 142 q 524 32 590 56 q 378 6 458 8 l 363 6 q 193 42 268 6 q 75 149 115 78 q 38 301 33 218 q 82 453 40 381 q 122 507 99 482 q 172 551 144 532 q 126 610 144 576 q 90 756 88 675 q 102 830 92 793 q 132 900 113 867 q 240 1007 174 969 q 406 1047 314 1049 q 532 1021 475 1044 q 628 956 585 999 q 686 863 665 914 q 707 758 707 813 q 686 653 707 703 q 626 565 665 604 l 607 549 q 642 519 624 538 q 708 422 685 479 m 374 144 q 475 162 433 146 q 543 201 517 178 q 581 253 569 225 q 592 310 592 282 q 580 368 592 339 q 544 422 568 397 q 482 461 519 446 q 393 478 444 476 l 375 478 q 272 451 317 475 q 201 382 228 426 q 176 298 178 342 q 194 219 174 254 q 263 161 217 181 q 374 144 308 142 m 251 829 q 228 752 231 793 q 246 679 226 711 q 375 617 282 619 l 393 617 q 475 631 442 618 q 529 663 508 643 q 559 708 550 683 q 568 758 568 733 q 558 811 568 785 q 528 859 549 838 q 476 894 507 881 q 403 908 444 907 l 397 908 q 341 900 365 908 q 299 880 317 892 q 269 854 281 868 q 251 829 258 840 z "},"9":{"ha":701,"x_min":35,"x_max":669,"o":"m 38 715 q 53 831 35 776 q 106 931 71 886 q 205 1010 146 982 q 339 1046 264 1039 l 357 1046 q 432 1039 397 1046 q 499 1017 467 1032 q 607 919 571 982 q 647 834 635 881 q 661 739 660 788 l 661 733 q 660 510 669 611 q 622 321 650 408 q 461 74 572 157 q 297 4 388 17 q 110 24 207 -8 q 70 59 82 33 q 65 113 58 85 q 101 152 76 140 q 153 157 126 164 q 202 145 175 150 q 258 141 229 140 q 317 151 288 142 q 376 183 347 161 q 490 364 453 240 q 501 403 496 383 q 510 446 507 424 q 360 401 444 404 l 357 401 q 225 428 285 399 q 170 458 196 439 q 124 501 144 478 q 63 598 86 543 q 38 715 40 653 m 347 907 q 265 885 299 903 q 212 842 232 868 q 183 784 192 815 q 176 721 175 753 q 190 655 178 688 q 224 597 201 622 q 278 555 246 571 q 354 540 311 539 l 356 540 q 447 570 415 542 q 493 629 479 599 q 521 740 521 679 q 493 843 521 800 q 347 907 447 914 z "},"\u0000":{"ha":0,"x_min":0,"x_max":0,"o":""},"\r":{"ha":458,"x_min":0,"x_max":0,"o":""}," ":{"ha":458,"x_min":0,"x_max":0,"o":""},"q":{"ha":604,"x_min":8,"x_max":568,"o":"m 460 694 q 482 694 471 694 q 504 692 493 693 q 550 669 532 689 q 567 621 568 649 q 556 97 556 335 q 565 -344 556 -140 q 547 -394 567 -374 q 500 -417 528 -415 q 450 -399 471 -418 q 426 -351 429 -379 q 418 85 418 -150 q 371 48 394 64 q 324 21 347 32 q 240 -1 282 3 q 161 8 199 -4 q 56 91 94 31 q 11 239 17 151 q 18 325 8 281 q 47 413 28 369 q 94 497 67 456 q 158 571 122 538 q 299 663 222 632 q 460 694 376 694 m 418 257 q 421 401 419 328 q 425 553 422 475 q 324 522 367 546 q 254 471 282 497 q 176 361 206 424 q 150 246 147 299 q 167 176 153 204 q 204 140 181 147 q 271 151 228 133 q 365 231 314 168 q 418 257 388 257 z "},"o":{"ha":629,"x_min":36,"x_max":606,"o":"m 310 -6 q 296 -4 300 -6 q 182 29 232 -1 q 100 104 133 57 q 38 313 40 190 q 54 441 36 379 q 107 554 72 503 q 201 646 146 610 q 267 675 233 664 q 338 689 300 686 q 388 673 367 692 q 413 625 410 654 q 390 568 415 590 q 432 568 410 575 q 518 517 483 550 q 571 439 551 482 q 586 258 606 357 q 553 159 576 206 q 496 76 531 113 q 408 15 456 36 q 310 -6 360 -6 m 349 550 q 270 524 303 546 q 217 468 238 501 q 186 394 196 435 q 176 314 176 354 q 186 242 176 276 q 214 185 196 208 q 303 133 247 138 l 308 133 q 360 147 336 133 q 402 181 383 160 q 433 228 421 201 q 450 285 444 256 q 443 385 461 340 q 389 436 426 424 q 348 470 361 444 q 344 524 335 496 q 351 538 347 531 q 363 551 356 546 q 349 550 353 551 z "},"s":{"ha":568,"x_min":36,"x_max":532,"o":"m 303 -1 q 292 -1 297 -1 q 281 0 286 -1 q 133 47 196 4 q 64 122 86 79 q 40 233 36 174 q 65 281 43 263 q 114 299 86 300 q 163 274 143 296 q 179 224 182 253 q 183 194 178 211 q 211 163 188 178 q 249 145 228 151 q 291 138 269 139 q 332 141 313 138 q 367 151 351 144 q 385 164 382 158 q 388 172 388 169 q 376 206 389 189 q 342 240 363 224 q 294 272 321 256 q 242 303 268 288 q 179 339 210 321 q 124 379 149 357 q 53 517 50 440 q 84 601 56 563 q 161 664 113 639 q 227 687 193 679 q 297 693 261 694 q 436 653 381 693 q 500 574 481 621 q 513 468 519 526 q 486 422 508 440 q 435 407 464 404 q 389 433 407 410 q 374 485 371 456 q 369 525 378 514 q 357 539 361 536 q 329 551 346 547 q 294 554 313 554 q 258 551 276 554 q 222 539 239 547 q 200 524 207 532 q 192 510 193 515 q 196 502 192 508 q 213 485 200 496 q 256 454 231 469 q 310 424 282 439 q 382 381 346 403 q 449 331 418 358 q 525 163 532 256 q 497 83 522 118 q 428 26 472 47 q 303 -1 372 -1 z "},"l":{"ha":219,"x_min":31,"x_max":186,"o":"m 101 -1 l 100 -1 q 51 21 71 0 q 32 69 31 42 q 35 195 33 118 q 38 363 36 272 q 40 553 39 454 q 43 743 42 651 q 46 913 44 835 q 47 1044 47 992 q 68 1094 47 1074 q 118 1114 89 1114 q 166 1093 146 1114 q 186 1043 186 1072 q 184 912 185 990 q 182 741 183 833 q 179 551 181 649 q 176 361 178 453 q 174 192 175 269 q 171 67 172 115 q 149 19 169 39 q 101 -1 129 -1 z "},"f":{"ha":601,"x_min":21,"x_max":590,"o":"m 588 421 q 573 370 590 393 q 528 344 556 347 l 240 307 l 243 229 q 247 71 247 135 q 226 22 247 42 q 178 1 206 1 q 128 22 149 1 q 108 71 108 42 q 104 224 108 133 q 103 257 104 240 q 101 290 103 274 q 97 290 99 290 q 93 289 96 289 q 47 306 67 289 q 24 350 26 324 q 38 402 21 379 q 85 428 56 425 l 99 429 q 102 683 96 556 q 132 919 108 811 q 201 1057 151 1007 q 333 1113 257 1115 q 419 1085 378 1110 q 493 1015 461 1061 q 578 778 557 926 q 565 726 582 749 q 519 699 547 703 l 510 699 q 464 715 483 699 q 440 757 444 732 q 418 856 432 815 q 388 923 404 897 q 356 961 372 949 q 328 974 340 974 q 295 953 313 975 q 268 890 278 932 q 242 679 247 794 q 238 447 236 564 l 510 482 q 560 467 538 485 q 588 421 583 450 z "},"p":{"ha":604,"x_min":36,"x_max":594,"o":"m 144 694 q 305 663 228 694 q 446 571 382 632 q 509 497 481 538 q 557 413 538 456 q 585 325 576 369 q 593 239 594 281 q 549 91 588 151 q 443 8 510 31 q 364 -1 406 -4 q 281 21 322 3 q 233 48 257 32 q 186 85 210 64 q 178 -351 186 -150 q 154 -399 175 -379 q 104 -417 133 -418 q 57 -394 76 -415 q 39 -344 38 -374 q 49 97 49 -140 q 38 621 49 335 q 54 669 36 649 q 100 692 72 689 q 122 694 111 693 q 144 694 133 694 m 186 257 q 239 231 217 257 q 333 151 290 168 q 400 140 376 133 q 438 176 424 147 q 454 246 451 204 q 428 361 457 299 q 350 471 399 424 q 280 522 322 497 q 179 553 238 546 q 183 401 182 475 q 186 257 185 328 z "},"e":{"ha":638,"x_min":36,"x_max":597,"o":"m 346 -6 q 316 -4 331 -6 q 286 0 301 -3 q 113 100 181 22 q 36 314 40 185 l 36 324 q 44 415 36 374 q 67 489 53 457 q 97 546 81 521 q 129 588 113 571 q 222 658 169 632 q 332 689 274 685 q 485 650 418 696 q 543 588 521 625 q 572 507 565 551 q 554 403 579 454 q 526 352 543 376 q 485 308 508 328 q 442 277 468 293 q 379 249 415 261 q 297 230 343 236 q 193 231 250 224 q 222 187 206 204 q 256 159 239 169 q 289 144 274 149 q 313 138 304 139 q 403 144 361 128 q 458 194 444 160 q 496 233 469 222 q 549 232 522 243 q 587 195 576 221 q 586 142 597 169 q 460 18 553 57 q 346 -6 406 -6 m 179 374 q 259 367 224 365 q 320 376 294 368 q 364 394 346 383 q 393 414 382 404 q 428 458 419 436 q 433 488 436 479 q 417 525 431 513 q 389 544 404 538 q 360 550 374 550 q 340 550 346 550 q 232 494 276 546 q 179 374 190 449 z "},"z":{"ha":629,"x_min":21,"x_max":597,"o":"m 304 4 q 226 10 267 4 q 147 33 185 17 q 75 87 97 56 q 44 143 53 118 q 57 293 21 217 q 143 404 83 349 q 256 488 194 450 q 369 557 317 526 q 374 560 372 560 q 331 560 354 561 q 281 558 308 560 q 219 554 249 557 q 169 549 190 551 q 133 546 147 547 q 119 544 119 544 q 69 558 92 540 q 42 604 46 576 q 56 656 39 632 q 103 682 74 679 q 119 684 104 682 q 160 688 135 686 q 217 693 185 690 q 286 697 250 696 q 404 697 357 700 q 483 688 451 694 q 531 674 514 682 q 560 656 549 665 q 592 585 592 626 q 567 525 590 547 q 528 492 543 503 q 488 466 510 479 q 439 438 465 453 q 335 375 390 410 q 238 301 279 340 q 196 256 210 276 q 178 222 182 236 q 175 197 174 207 q 178 183 176 188 q 204 160 182 169 q 268 145 231 149 q 346 145 306 142 q 425 158 386 149 q 493 181 464 168 q 547 183 519 193 q 585 147 574 174 q 588 94 597 121 q 551 54 578 67 q 460 24 511 36 q 356 7 408 11 q 331 5 344 6 q 304 4 318 4 z "},"c":{"ha":619,"x_min":31,"x_max":593,"o":"m 335 7 q 276 11 306 7 q 106 108 174 32 q 31 326 33 196 q 49 461 31 397 q 104 578 68 525 q 188 660 140 628 q 288 699 235 692 q 361 695 322 703 q 435 663 400 688 q 501 594 471 638 q 549 483 531 550 q 542 430 556 456 q 500 397 528 404 q 447 404 472 390 q 414 446 422 418 q 402 481 410 460 q 382 522 394 503 q 351 553 369 540 q 307 561 332 565 q 260 542 283 558 q 218 497 238 525 q 169 328 169 429 q 185 242 169 275 q 222 188 200 208 q 265 160 243 168 q 303 149 288 151 q 352 146 326 143 q 399 158 378 149 q 429 176 414 164 q 453 208 444 188 q 490 247 464 236 q 543 247 515 258 q 582 210 571 236 q 582 157 593 185 q 532 83 565 115 q 454 31 499 50 q 397 13 426 18 q 335 7 367 7 z "},"k":{"ha":676,"x_min":36,"x_max":668,"o":"m 618 132 q 657 94 646 121 q 657 42 668 68 q 631 10 649 22 q 592 -1 613 -1 q 565 4 578 -1 q 383 84 486 36 q 178 194 279 132 q 177 124 178 156 q 175 67 176 92 q 154 19 175 39 q 106 -1 133 -1 l 104 -1 q 56 21 76 0 q 36 69 36 42 q 39 195 38 118 q 42 363 40 272 q 46 553 44 454 q 48 743 47 651 q 50 913 49 835 q 51 1044 51 992 q 73 1094 53 1074 q 122 1114 93 1114 q 171 1093 150 1114 q 190 1043 192 1072 q 189 922 190 994 q 187 764 188 849 q 185 587 186 679 q 182 407 183 494 q 193 415 188 411 q 204 425 199 419 q 331 528 267 474 q 465 667 396 582 q 512 693 483 690 q 563 678 540 696 q 589 631 586 658 q 574 579 592 603 q 426 424 497 485 q 289 314 354 364 q 280 308 285 311 q 271 300 275 304 q 455 205 363 247 q 618 132 547 163 z "},"n":{"ha":663,"x_min":50,"x_max":615,"o":"m 531 -1 l 526 -1 q 478 23 497 1 q 461 72 458 44 q 467 258 468 176 q 458 400 467 340 q 436 494 450 464 q 411 538 422 525 q 371 554 396 554 q 335 544 351 554 q 306 517 319 533 q 282 481 293 501 q 263 442 271 461 q 216 279 235 375 q 190 64 197 183 q 167 17 188 36 q 118 -1 146 -3 q 70 21 90 0 q 51 69 50 42 q 54 180 53 128 q 58 283 56 232 q 63 449 61 367 q 67 625 65 531 q 88 673 67 653 q 138 693 108 693 q 185 672 165 693 q 206 622 206 651 l 206 613 q 291 677 247 661 q 371 693 335 693 q 449 678 413 693 q 513 632 485 663 q 594 430 574 567 q 600 64 615 293 q 578 17 597 36 q 531 -1 558 -1 z "},"r":{"ha":568,"x_min":36,"x_max":563,"o":"m 107 -1 l 104 -1 q 56 21 76 0 q 38 69 36 42 l 43 283 q 49 449 46 367 q 51 624 51 531 q 73 673 53 653 q 122 693 93 693 q 172 672 151 693 q 190 624 192 651 l 190 619 q 271 678 231 664 q 344 693 311 693 q 489 626 431 693 q 557 456 536 567 q 546 404 563 428 q 501 375 529 381 q 495 374 499 375 q 489 374 492 374 q 444 390 464 374 q 421 432 425 406 q 401 502 413 478 q 382 538 390 526 q 344 554 367 554 q 313 542 328 554 q 285 514 297 531 q 262 478 272 497 q 246 443 251 458 q 201 281 218 376 q 176 64 183 185 q 154 17 174 36 q 107 -1 135 -1 z "},"h":{"ha":635,"x_min":50,"x_max":615,"o":"m 531 -1 l 526 -1 q 478 23 497 1 q 461 72 458 44 q 467 258 468 176 q 458 400 467 340 q 436 494 450 464 q 411 538 422 525 q 371 554 396 554 q 335 544 351 554 q 306 517 319 533 q 282 481 293 501 q 263 442 271 461 q 216 279 235 375 q 190 64 197 183 q 167 17 188 36 q 118 -1 146 -3 q 70 21 90 0 q 51 69 50 42 q 54 195 53 118 q 57 363 56 272 q 60 553 58 454 q 63 743 61 651 q 65 913 64 835 q 67 1044 65 992 q 88 1094 67 1074 q 138 1114 108 1114 q 185 1093 165 1114 q 206 1043 206 1072 l 200 606 q 288 676 243 658 q 371 693 333 693 q 449 678 413 693 q 513 632 485 663 q 594 430 574 567 q 600 64 615 293 q 578 17 597 36 q 531 -1 558 -1 z "},"i":{"ha":232,"x_min":36,"x_max":194,"o":"m 107 -1 l 106 -1 q 56 21 76 0 q 38 69 36 42 l 43 283 q 49 449 46 367 q 51 624 51 531 q 73 673 53 653 q 122 693 93 693 q 172 672 151 693 q 190 624 192 651 q 188 445 190 528 q 182 278 185 363 l 176 67 q 155 19 175 39 q 107 -1 135 -1 m 194 886 q 174 837 194 857 q 125 817 154 817 q 76 837 96 817 q 56 886 56 857 q 76 935 56 915 q 125 956 96 956 q 174 935 154 956 q 194 886 194 915 z "},"m":{"ha":939,"x_min":38,"x_max":903,"o":"m 824 -1 l 815 -1 q 769 25 788 3 q 754 76 751 47 q 756 93 754 76 q 759 138 757 110 q 763 203 761 167 q 763 279 764 239 q 754 394 761 347 q 738 470 747 440 q 719 516 729 500 q 704 539 710 532 q 671 554 690 554 q 617 513 643 553 q 574 399 592 472 q 562 342 567 371 q 554 290 557 314 q 549 227 551 251 q 547 201 547 203 q 522 156 543 174 q 472 142 500 139 q 426 165 444 144 q 408 213 407 185 q 410 240 408 215 q 415 300 411 264 q 417 328 417 314 q 417 357 417 342 q 410 431 415 400 q 399 483 406 463 q 385 517 392 504 q 372 536 378 529 q 333 554 358 554 q 303 543 317 554 q 277 515 289 532 q 256 480 265 499 q 242 446 247 461 q 200 283 217 379 q 176 64 183 186 q 155 17 175 36 q 107 -1 135 -1 l 104 -1 q 57 21 76 0 q 38 69 38 42 l 44 283 q 49 449 47 367 q 53 624 51 531 q 74 673 53 653 q 122 693 94 693 q 169 675 150 693 q 192 629 189 657 l 196 633 q 336 693 256 696 q 479 626 421 692 q 492 610 486 618 q 503 592 497 601 l 506 596 q 547 644 525 625 q 589 674 568 663 q 630 689 610 685 q 667 693 650 693 q 807 632 750 696 q 882 467 860 574 q 895 380 890 426 q 901 281 900 333 q 901 197 903 236 q 898 128 900 158 q 894 79 896 97 q 892 60 892 61 q 869 16 889 33 q 824 -1 850 -1 z "},"u":{"ha":664,"x_min":47,"x_max":613,"o":"m 132 692 l 136 692 q 185 667 165 689 q 201 618 204 646 q 195 432 194 514 q 204 290 196 350 q 226 196 213 226 q 251 153 240 165 q 292 136 267 136 q 326 147 310 136 q 356 173 343 157 q 381 209 369 189 q 400 249 392 229 q 447 411 428 315 q 472 626 465 507 q 496 674 475 654 q 544 692 517 693 q 592 669 572 690 q 611 621 613 649 q 608 510 610 563 q 604 407 607 458 q 599 242 601 324 q 596 65 597 160 q 575 17 596 38 q 525 -3 554 -3 q 477 18 497 -3 q 457 68 457 39 l 457 78 q 372 13 415 29 q 292 -3 328 -3 q 214 13 250 -3 q 150 58 178 28 q 68 260 89 122 q 63 626 47 397 q 85 673 65 654 q 132 692 104 692 z "},"t":{"ha":613,"x_min":29,"x_max":599,"o":"m 528 415 q 573 388 556 411 q 586 336 590 364 q 501 99 565 189 q 428 28 469 53 q 342 1 386 4 l 336 1 q 210 57 263 1 q 140 194 160 107 q 113 404 119 290 q 107 632 106 518 l 101 632 q 55 649 75 632 q 32 693 35 665 q 47 744 29 721 q 92 769 64 767 l 108 772 l 113 890 q 117 1043 117 979 q 137 1092 117 1072 q 186 1113 157 1113 q 235 1092 214 1113 q 256 1043 256 1072 q 254 972 256 1011 q 251 885 253 932 q 249 838 250 861 q 249 790 249 814 l 518 824 q 569 810 546 828 q 596 764 592 792 q 581 712 599 735 q 536 686 564 689 l 246 650 q 251 426 244 538 q 276 224 257 315 q 303 161 286 182 q 336 140 321 140 q 365 153 349 140 q 397 191 381 165 q 426 258 413 217 q 449 357 440 299 q 476 402 453 385 q 528 415 500 419 z "},"j":{"ha":261,"x_min":-185,"x_max":225,"o":"m -6 -418 q -78 -401 -43 -418 q -167 -326 -126 -379 q -181 -275 -185 -303 q -153 -229 -176 -247 q -101 -216 -129 -212 q -56 -243 -74 -219 q -26 -272 -40 -262 q 0 -278 -11 -281 q 31 -255 15 -275 q 54 -196 46 -235 q 76 -40 69 -125 q 85 132 83 44 q 84 305 86 219 q 79 465 82 390 q 76 552 78 513 q 75 624 75 592 q 96 673 75 653 q 144 693 117 693 q 194 673 174 693 q 214 624 214 653 q 218 471 214 563 q 223 303 221 393 q 224 122 225 214 q 215 -59 222 31 q 190 -225 207 -149 q 131 -351 174 -301 q 31 -414 89 -401 q -6 -418 11 -418 m 217 886 q 197 837 217 857 q 147 817 176 817 q 98 837 118 817 q 78 886 78 857 q 98 935 78 915 q 147 956 118 956 q 197 935 176 956 q 217 886 217 915 z "},"v":{"ha":585,"x_min":33,"x_max":554,"o":"m 278 0 q 138 64 197 0 q 60 228 88 118 q 44 314 50 268 q 36 413 39 360 q 34 494 33 456 q 35 564 35 533 q 38 613 36 594 q 39 632 39 631 q 64 678 42 660 q 115 694 86 697 q 162 669 143 692 q 178 618 181 647 q 176 601 178 618 q 174 557 175 585 q 173 493 174 529 q 175 418 172 457 q 197 254 179 322 q 240 157 214 186 q 261 142 251 146 q 278 139 271 139 q 297 142 286 139 q 319 158 307 146 q 340 185 328 167 q 363 234 351 203 q 386 311 375 265 q 406 424 397 357 q 412 499 410 464 q 415 563 414 535 q 415 622 417 594 q 435 672 415 651 q 483 694 456 693 q 533 674 513 694 q 554 626 554 654 q 554 607 554 625 q 553 559 554 589 q 551 490 553 529 q 543 407 549 450 q 527 309 536 354 q 507 224 518 264 q 419 61 474 117 q 354 15 390 31 q 278 0 318 0 z "},"y":{"ha":614,"x_min":29,"x_max":594,"o":"m 533 690 q 578 661 561 685 q 589 610 594 638 q 553 450 578 546 q 497 247 528 354 q 432 33 465 140 q 370 -161 399 -74 q 323 -306 342 -249 q 301 -371 304 -364 q 276 -406 294 -393 q 236 -418 258 -418 q 214 -414 224 -418 q 174 -380 186 -406 q 169 -326 161 -354 q 178 -299 169 -325 q 203 -227 188 -272 q 238 -122 218 -182 q 278 7 257 -62 q 267 24 271 14 q 217 127 243 68 q 167 249 192 186 q 119 374 142 313 q 80 484 97 435 q 51 565 63 533 q 39 601 40 597 q 42 655 29 629 q 82 689 54 681 q 135 686 110 699 q 171 646 161 674 q 185 601 171 644 q 224 491 200 557 q 278 347 249 425 q 338 199 308 269 q 375 324 357 263 q 408 443 393 386 q 435 549 424 500 q 453 633 446 597 q 482 678 458 661 q 533 690 506 696 z "},"w":{"ha":964,"x_min":50,"x_max":915,"o":"m 915 626 q 915 607 915 625 q 915 558 915 589 q 912 488 914 528 q 906 406 910 449 q 872 221 896 300 q 835 128 856 168 q 786 60 814 88 q 653 0 729 0 q 503 67 563 0 q 471 110 486 83 q 436 65 457 86 q 285 0 374 0 q 151 61 206 0 q 75 225 100 117 q 60 311 65 265 q 53 410 56 357 q 51 494 50 454 q 53 563 51 533 q 56 612 54 593 q 57 632 57 631 q 82 678 60 660 q 133 694 104 697 q 180 669 161 692 q 196 618 199 647 q 192 557 193 590 q 190 492 190 529 q 192 414 189 454 q 202 299 194 346 q 219 223 210 253 q 238 177 229 193 q 254 154 247 161 q 270 141 263 143 q 285 139 278 139 q 338 163 314 139 q 367 208 354 181 q 389 267 381 235 q 403 333 397 299 q 411 397 408 367 q 413 465 411 440 q 415 493 415 490 q 437 539 415 521 q 483 560 458 557 q 530 547 508 563 q 554 493 551 532 q 554 463 554 490 q 550 393 554 436 l 553 344 q 570 231 557 278 q 606 160 583 183 q 653 139 624 139 q 668 142 660 139 q 688 156 676 144 q 707 182 696 164 q 729 231 718 200 q 751 308 740 261 q 768 421 761 354 q 774 497 772 461 q 776 561 776 533 q 776 606 776 589 q 776 622 776 622 q 796 672 776 651 q 844 694 815 693 q 893 675 872 694 q 915 626 914 656 z "},"x":{"ha":631,"x_min":32,"x_max":596,"o":"m 578 119 q 593 68 596 96 q 567 22 590 40 q 524 7 550 7 q 469 32 490 7 q 384 141 425 89 q 306 244 343 193 q 232 147 267 196 q 168 46 197 99 q 142 19 158 28 q 107 10 126 10 q 74 18 88 10 q 40 60 49 32 q 46 113 32 88 q 130 242 85 182 q 222 361 175 303 q 142 481 179 424 q 74 597 106 539 q 67 650 60 622 q 100 692 75 678 q 153 699 125 707 q 196 665 181 690 q 250 572 221 619 q 313 476 279 525 q 376 565 344 519 q 435 664 407 611 q 476 698 449 689 q 528 693 503 707 q 563 651 554 679 q 557 599 571 624 q 478 469 519 528 q 396 357 438 411 q 481 242 436 300 q 578 119 526 183 z "},"g":{"ha":626,"x_min":35,"x_max":600,"o":"m 389 126 q 383 71 386 99 q 378 15 381 43 q 377 8 378 13 q 376 1 376 4 q 454 -26 425 -8 q 500 -64 483 -44 q 547 -201 551 -119 q 526 -282 544 -243 q 475 -351 507 -321 q 311 -418 406 -418 l 303 -418 q 142 -358 204 -414 q 95 -295 111 -331 q 78 -219 79 -260 q 97 -137 78 -176 q 149 -65 115 -97 q 189 -37 168 -50 q 235 -15 210 -24 l 239 31 q 244 75 242 53 q 249 121 246 97 q 101 201 161 138 q 35 381 38 275 q 53 488 35 435 q 110 583 72 540 q 204 656 147 626 q 336 689 261 685 q 387 672 365 692 q 410 625 408 653 q 407 597 411 611 q 425 594 414 597 q 560 500 518 571 q 588 353 600 435 q 557 262 581 306 q 496 186 533 218 q 445 151 472 165 q 389 126 418 136 m 174 382 q 181 338 174 360 q 203 297 188 315 q 242 267 218 279 q 300 254 265 256 l 307 254 q 363 265 338 254 q 406 292 388 275 q 436 330 425 308 q 450 374 447 351 q 444 423 454 397 q 390 460 435 449 q 348 492 363 467 q 340 544 333 517 l 343 550 q 267 531 299 547 q 214 492 235 515 q 183 440 193 468 q 174 382 174 411 m 408 -192 q 340 -133 411 -142 q 276 -147 300 -136 q 242 -169 253 -158 q 217 -218 217 -192 q 242 -260 218 -244 q 307 -279 267 -276 q 351 -272 333 -281 q 379 -251 368 -262 q 408 -192 406 -226 z "},"H":{"ha":794,"x_min":49,"x_max":744,"o":"m 676 1042 q 724 1021 704 1042 q 744 971 744 1000 q 743 849 744 922 q 740 692 742 776 q 737 515 739 607 q 733 340 735 424 q 729 185 731 256 q 726 68 728 114 q 705 20 725 40 q 657 0 685 0 l 656 0 q 606 22 626 1 q 588 72 586 43 q 590 174 589 113 q 593 308 592 235 q 422 296 519 296 q 206 308 326 296 q 194 310 199 308 q 192 172 193 235 q 189 68 190 108 q 167 20 188 40 q 119 0 147 0 l 117 0 q 69 22 89 1 q 50 72 49 43 q 53 188 51 117 q 56 344 54 260 q 60 519 58 428 q 64 694 63 610 q 66 852 65 779 q 68 974 67 925 q 89 1022 68 1001 q 139 1042 110 1042 q 187 1021 167 1042 q 207 971 207 1000 l 197 446 q 218 446 207 447 q 571 446 443 425 q 596 446 585 447 l 606 974 q 626 1022 606 1001 q 676 1042 647 1042 z "},"T":{"ha":800,"x_min":18,"x_max":785,"o":"m 783 975 q 765 925 785 946 q 717 903 744 904 q 594 900 656 901 q 467 899 532 899 q 464 768 465 840 q 461 617 463 696 q 458 457 460 538 q 455 303 457 376 q 451 169 453 231 q 449 67 450 107 q 427 19 447 39 q 379 0 407 0 l 376 0 q 328 22 347 1 q 310 72 308 43 q 313 174 311 113 q 316 307 314 235 q 319 459 318 379 q 322 617 321 539 q 325 768 324 696 q 328 897 326 840 q 210 899 269 899 q 88 903 150 900 q 38 925 58 904 q 19 975 18 946 q 43 1024 22 1004 q 92 1042 64 1043 q 236 1038 167 1039 q 372 1036 306 1036 q 399 1042 383 1042 q 424 1036 414 1042 q 572 1038 500 1038 q 713 1042 643 1039 q 763 1023 742 1043 q 783 975 783 1003 z "},"K":{"ha":788,"x_min":49,"x_max":750,"o":"m 710 129 q 742 87 735 114 q 735 35 750 60 q 674 0 713 0 q 639 10 654 0 q 428 141 547 63 q 194 321 310 219 q 191 176 192 242 q 188 68 190 111 q 167 20 188 40 q 119 0 147 0 l 117 0 q 68 22 88 1 q 50 72 49 43 q 53 188 51 117 q 56 344 54 260 q 60 519 58 428 q 63 694 61 610 q 65 852 64 779 q 67 974 65 925 q 88 1022 67 1001 q 138 1042 108 1042 q 185 1021 165 1042 q 206 971 206 1000 l 199 575 l 228 607 q 299 685 263 644 q 374 774 336 726 q 451 879 413 822 q 531 1007 490 936 q 572 1040 544 1032 q 625 1033 600 1047 q 658 991 650 1018 q 651 938 665 964 q 567 801 608 863 q 485 690 525 740 q 406 595 444 639 q 331 513 367 551 l 267 443 q 382 348 322 393 q 499 263 442 303 q 610 190 557 224 q 710 129 664 156 z "},"O":{"ha":840,"x_min":35,"x_max":803,"o":"m 410 0 q 392 1 397 0 q 235 50 307 6 q 124 161 168 93 q 61 303 83 224 q 38 471 39 382 q 60 661 35 572 q 90 754 72 710 q 133 838 108 799 q 265 975 188 922 q 456 1042 350 1031 q 506 1026 483 1044 q 531 979 528 1007 q 515 928 533 950 q 468 903 496 906 q 339 856 394 896 q 247 756 283 817 q 193 622 211 696 q 176 474 175 549 q 192 355 178 414 q 233 249 206 296 q 301 172 260 203 q 400 139 343 142 l 408 139 q 495 165 456 139 q 566 232 535 190 q 619 326 597 274 q 651 431 640 378 q 662 553 664 493 q 644 663 660 613 q 539 786 614 761 q 499 822 511 796 q 497 875 486 847 q 532 915 507 903 q 585 918 557 928 q 708 832 660 890 q 749 774 732 806 q 778 704 765 742 q 801 560 799 638 q 788 403 803 483 q 738 250 771 322 q 660 125 706 178 q 543 32 606 63 q 410 0 476 0 z "},"J":{"ha":754,"x_min":39,"x_max":736,"o":"m 735 975 q 717 925 736 946 q 668 903 697 904 q 603 901 636 901 q 535 900 569 900 q 547 774 540 851 q 554 604 553 696 q 553 449 557 521 q 539 318 549 378 q 444 76 513 154 q 288 0 381 3 l 285 0 q 140 60 197 0 q 61 239 78 125 q 53 307 54 279 q 54 339 53 335 q 74 380 53 365 q 122 394 96 394 q 169 380 147 394 q 192 333 192 365 q 193 298 192 321 q 199 249 194 275 q 214 199 204 224 q 239 157 224 174 q 286 139 257 139 q 339 167 317 139 q 365 208 350 181 q 391 287 379 236 q 410 414 403 338 q 415 601 417 490 q 407 776 414 696 q 394 897 400 856 l 368 897 q 241 899 306 897 q 107 903 176 900 q 59 926 79 904 q 40 975 39 947 q 64 1024 43 1004 q 114 1042 85 1043 q 403 1036 267 1035 q 664 1042 539 1038 q 713 1023 692 1043 q 735 975 735 1003 z "},"M":{"ha":865,"x_min":50,"x_max":814,"o":"m 744 0 q 695 21 715 0 q 675 69 675 42 q 675 101 675 69 q 674 187 675 133 q 673 309 674 240 q 671 453 672 378 q 668 441 669 446 q 664 431 667 436 q 586 261 632 324 q 544 216 565 233 q 503 189 524 199 q 465 176 483 179 q 431 172 446 172 q 352 191 397 174 q 264 265 307 208 q 225 329 243 293 q 192 410 207 365 q 190 290 190 347 q 189 188 189 233 q 189 114 189 143 q 189 78 189 85 q 169 28 189 49 q 119 8 149 8 q 70 28 90 8 q 50 78 50 49 q 50 132 50 88 q 51 242 50 176 q 52 388 51 307 q 56 551 53 469 q 60 719 58 644 q 67 846 63 793 q 72 903 69 878 q 76 946 74 928 q 83 983 78 965 q 115 1028 94 1018 q 147 1042 136 1039 q 201 1026 178 1046 q 228 990 221 1011 q 239 942 235 968 q 244 899 242 922 q 250 847 247 875 q 260 763 254 808 q 273 670 265 718 q 290 574 281 622 q 314 483 300 526 q 332 430 321 460 q 358 374 343 400 q 392 329 374 347 q 433 311 411 311 q 477 347 450 311 q 532 472 504 382 q 557 563 546 515 q 577 657 568 610 q 593 749 586 704 q 606 833 600 794 q 615 894 611 867 q 624 943 619 922 q 629 967 626 957 q 635 983 632 976 q 666 1028 646 1018 q 699 1042 686 1039 q 756 1024 731 1046 q 779 988 772 1008 q 790 933 786 967 q 799 822 794 890 q 804 686 801 764 q 810 511 807 608 q 812 350 811 429 q 813 209 813 271 q 814 109 814 147 q 814 69 814 71 q 794 21 814 42 q 744 0 774 0 z "},"A":{"ha":711,"x_min":44,"x_max":669,"o":"m 654 443 q 664 303 661 369 q 668 185 667 236 q 669 102 669 133 q 668 68 668 71 q 648 20 668 40 q 599 0 628 0 l 597 0 q 549 22 569 1 q 529 71 529 43 q 530 99 529 72 q 529 172 531 126 q 389 164 467 164 q 292 167 343 164 q 183 175 242 169 q 183 133 183 151 q 185 103 183 115 l 185 78 q 165 28 185 49 q 115 8 144 8 q 66 28 86 8 q 46 78 46 49 l 46 100 q 45 166 46 124 q 45 263 44 208 q 48 380 46 317 q 57 508 50 443 q 109 799 72 685 q 204 975 146 914 q 351 1042 267 1039 q 490 982 431 1044 q 606 743 563 910 q 654 443 638 617 m 186 314 q 378 303 294 303 q 524 311 461 303 q 515 432 521 369 q 471 708 501 593 q 428 830 450 790 q 392 885 407 869 q 370 900 379 897 q 354 903 361 903 q 332 899 344 903 q 304 878 319 894 q 278 842 293 867 q 247 772 263 817 q 218 660 232 728 q 194 496 204 593 q 188 403 190 449 q 185 314 186 357 l 186 314 z "},"Z":{"ha":717,"x_min":32,"x_max":674,"o":"m 346 0 q 274 6 311 0 q 200 26 236 11 q 107 90 147 49 q 53 199 67 136 q 65 399 32 297 q 158 565 93 483 q 287 701 217 640 q 419 811 357 763 l 500 879 l 515 893 q 451 902 496 899 q 324 900 407 906 q 251 894 286 897 q 190 886 217 890 q 133 876 160 881 q 81 888 104 871 q 53 933 58 906 q 64 985 47 961 q 108 1014 81 1008 q 127 1017 110 1014 q 172 1024 144 1019 q 237 1032 200 1028 q 314 1039 274 1036 q 447 1041 393 1044 q 538 1030 501 1038 q 594 1011 574 1022 q 626 990 614 1000 q 669 899 669 954 q 658 853 669 875 q 626 808 647 831 q 574 759 604 785 q 506 703 543 733 q 383 601 449 657 q 268 481 318 544 q 189 228 163 346 q 253 156 199 176 q 327 140 286 142 q 411 144 368 138 q 494 165 454 151 q 563 199 533 179 q 615 208 586 214 q 658 178 643 201 q 667 126 674 154 q 638 82 661 97 q 541 35 594 54 q 429 7 488 15 q 346 0 390 0 z "},"S":{"ha":697,"x_min":31,"x_max":663,"o":"m 375 0 q 267 15 321 0 q 169 60 214 31 q 68 169 106 100 q 35 335 31 243 q 58 382 38 363 q 108 400 79 401 q 157 376 138 397 q 174 326 176 356 q 246 175 168 228 q 356 140 293 144 q 467 158 418 135 q 521 233 517 185 q 508 303 522 271 q 464 365 493 335 q 392 425 435 394 q 299 490 350 456 q 213 548 256 518 q 138 611 171 578 q 53 796 49 697 q 100 924 57 868 q 201 1004 139 972 q 286 1034 242 1025 q 374 1042 331 1043 q 459 1028 418 1040 q 533 993 500 1015 q 621 885 592 951 q 640 725 649 814 q 615 679 638 697 q 564 664 593 661 q 517 689 536 667 q 501 739 499 711 q 454 878 511 839 q 365 903 418 903 q 263 879 311 903 q 243 868 254 875 q 221 850 232 861 q 201 824 210 839 q 192 790 193 808 q 206 744 190 767 q 247 698 221 721 q 306 652 272 675 q 375 606 339 629 q 474 538 425 574 q 564 460 524 503 q 635 357 613 408 q 658 226 663 293 q 618 110 657 161 q 529 35 586 65 q 375 0 460 0 z "},"W":{"ha":1140,"x_min":51,"x_max":1093,"o":"m 1093 974 q 1093 939 1093 971 q 1092 856 1093 907 q 1088 739 1092 806 q 1079 600 1085 672 q 1059 438 1071 513 q 1032 301 1047 364 q 918 61 990 133 q 782 0 860 0 q 628 69 693 0 q 557 189 586 113 q 481 68 525 113 q 325 0 415 0 q 189 63 247 0 q 86 304 118 139 q 54 604 60 431 q 51 744 51 678 q 53 862 51 811 q 56 944 54 913 q 58 978 58 975 q 83 1025 61 1006 q 133 1042 104 1044 q 181 1017 161 1039 q 197 968 200 996 q 195 937 197 967 q 192 858 193 907 q 190 744 190 808 q 193 608 190 679 q 222 332 200 444 q 257 212 239 251 q 290 157 275 172 q 310 142 301 146 q 325 139 318 139 q 349 143 335 139 q 382 165 364 147 q 447 290 419 204 q 490 501 475 376 q 495 552 493 528 q 500 600 497 576 q 501 714 499 669 q 504 761 504 758 l 507 775 q 531 810 514 797 l 532 810 q 533 811 532 811 q 535 813 533 813 q 536 814 535 813 l 538 814 l 539 815 l 540 815 q 542 817 540 817 l 543 817 q 546 818 543 818 q 562 824 553 822 q 579 825 571 825 l 581 825 q 582 824 582 825 q 583 824 582 824 l 586 824 q 603 818 597 821 q 606 817 606 818 l 607 817 l 608 815 l 610 815 q 640 774 635 800 q 643 757 643 768 q 643 710 643 754 q 639 596 643 665 q 640 548 639 572 q 642 497 640 524 q 658 356 647 414 q 681 258 668 297 q 706 197 693 219 q 729 164 719 175 q 782 139 754 139 q 798 142 789 139 q 819 158 807 146 q 856 214 835 174 q 897 335 878 254 q 923 460 913 392 q 940 613 933 529 q 949 747 946 683 q 953 860 953 811 q 954 940 954 910 q 954 969 954 969 q 973 1019 953 999 q 1021 1040 993 1040 l 1024 1040 q 1072 1021 1051 1040 q 1093 974 1092 1001 z "},"V":{"ha":714,"x_min":47,"x_max":672,"o":"m 340 0 q 193 67 256 0 q 86 311 121 146 q 64 447 72 374 q 51 608 56 521 q 47 747 47 681 q 49 863 47 813 q 52 944 50 914 q 54 978 54 975 q 78 1025 57 1006 q 129 1042 100 1044 q 176 1017 157 1039 q 193 968 196 996 q 191 938 193 967 q 188 859 189 908 q 186 747 186 810 q 190 614 186 683 q 201 464 193 532 q 222 339 210 396 q 259 218 239 258 q 294 161 279 178 q 321 142 310 146 q 340 139 332 139 q 360 143 347 139 q 388 163 372 147 q 419 205 401 176 q 454 286 436 233 q 489 419 472 339 q 518 617 506 500 q 528 749 525 686 q 533 862 532 813 q 533 940 533 911 q 533 971 533 969 q 553 1019 533 999 q 601 1040 574 1040 l 603 1040 q 651 1021 631 1040 q 672 972 672 1001 q 672 939 672 969 q 672 858 672 908 q 667 742 671 808 q 657 604 664 676 q 635 443 647 517 q 606 307 622 369 q 553 164 582 224 q 488 65 525 104 q 340 0 422 0 z "},"X":{"ha":793,"x_min":43,"x_max":747,"o":"m 732 108 q 742 56 747 85 q 713 11 736 28 q 674 0 693 0 q 642 8 657 0 q 617 32 626 17 q 385 399 489 224 q 276 226 328 311 q 182 46 225 142 q 118 6 161 6 q 90 11 101 6 q 53 50 64 24 q 56 104 43 76 q 169 319 108 219 q 299 519 231 418 q 306 532 300 524 q 191 742 243 640 q 93 943 139 843 q 90 997 81 969 q 126 1036 100 1024 q 180 1038 153 1047 q 218 1001 207 1028 q 300 835 257 918 q 392 664 343 751 q 486 822 440 740 q 574 1000 532 904 q 611 1037 585 1026 q 665 1036 638 1047 q 701 998 692 1025 q 700 944 711 971 q 589 722 647 822 q 469 528 531 621 q 592 324 528 428 q 732 108 657 221 z "},"C":{"ha":838,"x_min":36,"x_max":807,"o":"m 458 0 q 386 7 425 0 q 319 24 351 13 q 256 53 286 36 q 143 149 190 90 q 65 292 93 210 q 38 478 38 378 q 43 587 36 533 q 64 689 50 640 q 140 861 92 785 q 194 928 165 897 q 254 982 222 958 q 397 1040 324 1031 q 508 1029 457 1047 q 610 969 561 1014 q 744 718 703 888 q 737 665 751 690 q 694 633 722 640 q 642 642 667 626 q 610 685 617 657 q 571 793 594 747 q 517 867 547 839 q 414 901 469 910 q 331 865 372 896 q 257 785 290 835 q 196 644 217 722 q 176 479 175 567 q 206 313 176 376 q 274 212 235 249 q 351 161 313 175 q 411 143 390 147 q 486 140 447 136 q 560 160 525 144 q 624 202 596 175 q 667 268 651 229 q 702 308 676 296 q 756 308 728 319 q 795 273 783 299 q 796 219 807 247 q 732 114 775 161 q 629 39 689 67 q 458 0 547 0 z "},"Q":{"ha":863,"x_min":32,"x_max":800,"o":"m 463 211 q 435 262 435 233 q 451 310 435 290 q 496 334 468 329 q 551 317 524 339 l 593 278 q 626 351 613 313 q 649 431 640 390 q 659 553 661 493 q 642 663 657 613 q 536 786 611 761 q 496 822 508 796 q 494 875 483 847 q 529 915 504 903 q 582 918 554 928 q 706 832 657 890 q 746 774 729 806 q 775 704 763 742 q 798 560 796 638 q 785 403 800 483 q 697 179 760 278 l 758 124 q 786 72 786 100 q 769 25 786 44 q 725 0 753 6 q 669 18 697 -6 l 607 75 q 540 32 578 50 q 407 0 474 0 q 389 1 394 0 q 232 50 304 6 q 121 161 165 93 q 58 303 81 224 q 35 471 36 382 q 57 661 32 572 q 88 754 69 710 q 131 838 106 799 q 263 975 185 922 q 453 1042 347 1031 q 503 1026 481 1044 q 528 979 525 1007 q 512 928 531 950 q 465 903 493 906 q 336 856 392 896 q 244 756 281 817 q 190 622 208 696 q 174 474 172 549 q 189 355 175 414 q 230 249 203 296 q 299 172 257 203 q 397 139 340 142 l 406 139 q 458 148 433 139 q 504 172 482 157 l 463 211 z "},"N":{"ha":867,"x_min":51,"x_max":817,"o":"m 513 1 q 378 44 440 1 q 192 369 260 126 q 191 262 192 313 q 190 172 190 211 q 190 108 190 133 q 190 76 190 82 q 169 27 190 47 q 121 7 149 7 q 72 27 92 7 q 51 76 51 47 q 51 131 51 86 q 52 241 51 175 q 53 388 53 307 q 56 551 54 468 q 61 719 58 646 q 67 846 64 793 q 72 903 69 879 q 76 947 74 928 l 85 985 q 117 1030 96 1019 q 149 1043 138 1040 q 201 1028 181 1046 q 228 992 221 1013 q 239 942 235 971 l 250 846 q 275 658 261 763 q 315 449 289 553 q 352 327 333 378 q 390 242 371 276 q 425 188 408 208 q 457 158 442 168 q 542 144 493 132 q 602 184 578 153 q 642 258 626 215 q 664 352 657 301 q 674 451 671 403 q 675 581 678 515 q 667 708 672 647 q 656 819 663 768 q 644 906 649 871 q 638 951 640 938 q 636 974 636 965 q 657 1023 636 1003 q 706 1043 678 1043 q 755 1023 735 1043 q 775 975 775 1003 l 782 925 q 794 835 788 889 q 806 717 801 782 q 814 583 811 653 q 813 443 817 513 q 760 179 804 283 q 689 72 732 114 q 574 8 642 25 q 543 3 558 6 q 513 1 528 1 z "},"Y":{"ha":751,"x_min":29,"x_max":735,"o":"m 279 1 q 250 8 263 1 q 214 48 224 21 q 217 101 204 75 q 226 120 217 101 q 250 171 235 139 q 285 246 265 203 q 329 340 306 289 q 264 448 297 386 q 199 576 231 510 q 140 706 168 642 q 90 823 111 771 q 55 909 68 875 q 40 949 42 943 q 40 1002 29 976 q 79 1038 51 1028 q 133 1038 107 1049 q 169 999 158 1026 q 179 973 169 997 q 206 908 189 949 q 244 816 222 868 q 292 708 267 764 q 344 596 317 651 q 399 493 372 540 q 460 633 429 563 q 516 769 490 704 q 562 892 542 835 q 593 989 582 949 q 624 1031 600 1017 q 676 1039 649 1046 q 719 1007 704 1032 q 728 954 735 982 q 679 804 713 893 q 604 616 646 715 q 517 417 563 517 q 435 235 472 317 q 371 101 397 154 q 342 40 344 47 q 316 11 333 21 q 279 1 299 1 z "},"G":{"ha":953,"x_min":38,"x_max":935,"o":"m 929 343 q 917 291 935 314 q 872 263 900 268 q 801 254 839 256 q 797 219 804 236 q 733 114 776 161 q 631 39 690 67 q 458 0 553 0 q 423 1 440 0 q 388 6 406 3 q 257 53 321 18 q 144 149 192 90 q 67 292 94 210 q 38 478 40 375 q 65 689 38 586 q 142 860 93 786 q 195 928 167 897 q 256 982 224 958 q 399 1040 325 1031 q 510 1029 458 1047 q 611 969 563 1014 q 746 718 704 885 q 738 665 753 690 q 696 633 724 640 q 643 641 668 626 q 611 683 618 656 q 572 792 596 746 q 518 867 549 839 q 415 901 471 910 q 333 865 374 896 q 258 785 292 835 q 197 644 218 722 q 176 479 176 567 q 207 313 178 376 q 275 212 236 249 q 353 161 314 175 q 413 143 392 147 q 484 140 447 136 q 554 156 521 143 q 615 193 588 169 q 660 251 643 217 q 576 255 619 253 q 483 263 532 257 q 437 288 456 265 q 421 338 418 310 q 446 385 424 367 q 497 400 468 403 q 850 400 722 379 q 901 388 878 404 q 929 343 925 371 z "},"P":{"ha":754,"x_min":49,"x_max":750,"o":"m 738 894 q 736 785 750 842 q 672 646 722 719 q 554 515 626 576 q 492 467 528 492 q 413 417 457 442 q 314 369 368 392 q 197 332 260 347 q 192 180 194 249 q 189 67 190 111 q 167 19 188 39 q 119 0 147 0 l 117 0 q 68 22 88 1 q 50 72 49 43 q 53 189 51 118 q 58 344 56 260 q 63 519 61 428 q 67 694 65 610 q 69 852 68 779 q 72 974 71 925 q 93 1022 72 1001 q 142 1042 114 1042 l 143 1042 q 190 1021 171 1040 q 211 974 210 1001 q 342 1017 281 1001 q 456 1039 403 1032 q 678 990 603 1054 q 738 894 725 951 m 601 817 q 590 883 613 865 q 556 899 583 890 q 471 900 529 907 q 352 875 418 894 q 208 824 286 856 l 200 476 q 357 544 292 504 q 463 621 422 585 q 554 719 518 668 q 601 817 590 771 z "},"R":{"ha":800,"x_min":46,"x_max":747,"o":"m 735 894 q 733 785 747 842 q 669 646 719 719 q 551 515 624 576 q 518 488 536 501 q 481 460 500 475 l 717 111 q 730 55 738 82 q 701 13 722 28 q 652 -1 681 -3 q 603 31 624 1 l 358 390 q 281 358 322 374 q 194 332 240 343 q 190 180 192 249 q 186 67 188 111 q 165 19 185 39 q 117 0 144 0 l 114 0 q 65 22 85 1 q 47 72 46 43 q 51 189 49 118 q 56 344 53 260 q 60 519 58 428 q 64 694 63 610 q 67 852 65 779 q 69 974 68 925 q 90 1022 69 1001 q 139 1042 111 1042 l 140 1042 q 188 1021 168 1040 q 208 974 207 1001 q 339 1017 278 1001 q 453 1039 400 1032 q 675 990 600 1054 q 735 894 722 951 m 599 817 q 588 883 610 865 q 553 899 581 890 q 468 900 526 907 q 349 875 415 894 q 206 824 283 856 l 197 476 q 354 544 289 504 q 460 621 419 585 q 551 719 515 668 q 599 817 588 771 z "},"U":{"ha":819,"x_min":47,"x_max":769,"o":"m 317 1 q 156 74 219 1 q 56 393 72 168 q 54 650 47 506 q 85 982 61 794 q 110 1028 88 1010 q 161 1043 133 1046 q 208 1016 190 1039 q 222 965 225 993 q 194 647 200 788 q 194 403 188 507 q 206 307 199 347 q 223 239 214 267 q 242 193 232 211 q 260 165 251 175 q 317 140 281 140 q 408 183 361 140 q 511 340 465 238 q 594 622 564 458 q 631 975 625 785 q 653 1024 632 1004 q 701 1043 674 1043 q 750 1021 731 1042 q 769 972 769 1000 l 761 626 q 753 356 757 489 q 749 69 750 222 q 728 22 749 42 q 679 1 707 1 q 630 22 650 1 q 610 71 610 43 q 610 152 610 113 q 613 231 611 192 q 477 60 553 118 q 317 1 401 1 z "},"B":{"ha":776,"x_min":49,"x_max":749,"o":"m 232 0 q 170 3 200 0 q 108 11 140 6 q 65 35 82 15 q 51 82 49 56 q 55 198 53 128 q 60 351 57 268 q 65 524 63 435 q 68 698 67 614 q 71 854 69 782 q 74 974 72 926 q 95 1022 75 1001 q 143 1042 115 1042 l 144 1042 q 188 1026 169 1042 q 211 988 206 1011 q 414 1032 328 1028 q 613 976 542 1040 q 669 877 657 936 q 658 747 682 818 q 594 625 640 688 q 565 588 581 606 q 531 553 549 571 q 648 515 606 542 q 713 457 690 488 q 744 339 749 406 q 704 225 740 282 q 610 124 669 169 q 547 81 581 100 q 474 46 513 61 q 356 11 417 22 q 232 0 294 0 m 192 140 q 325 147 267 135 q 422 175 383 160 q 520 230 476 197 q 588 300 564 263 q 603 334 594 311 q 600 376 613 357 q 590 386 597 381 q 571 398 583 392 q 538 410 558 404 q 489 418 518 415 q 274 406 401 429 q 238 395 256 400 q 200 388 219 390 l 192 140 m 211 839 l 203 533 q 223 538 214 536 q 242 540 232 539 q 334 581 294 557 q 401 625 374 604 q 480 704 447 661 q 526 790 513 747 q 531 808 528 797 q 534 830 533 818 q 531 853 535 842 q 519 874 528 865 q 420 894 496 896 q 211 839 344 892 z "},"I":{"ha":843,"x_min":39,"x_max":806,"o":"m 804 76 q 785 28 806 49 q 738 6 765 7 q 574 1 657 3 q 400 0 490 0 q 257 1 329 0 q 107 6 185 3 q 59 28 79 7 q 40 78 39 49 q 63 126 42 106 q 113 144 85 146 q 224 141 169 142 q 331 139 278 140 q 335 306 332 207 q 340 510 338 404 q 345 719 343 617 q 349 897 347 822 q 248 899 300 899 q 136 903 196 900 q 88 925 108 904 q 69 975 68 946 q 92 1024 71 1004 q 142 1042 114 1043 q 294 1038 225 1039 q 430 1036 364 1036 q 563 1038 496 1036 q 706 1042 629 1039 q 756 1023 735 1043 q 776 974 776 1003 q 758 925 778 946 q 710 903 738 904 q 594 899 647 900 q 488 899 540 899 q 485 786 486 849 q 482 654 483 724 q 479 513 481 585 q 476 374 478 442 q 472 245 474 306 q 469 139 471 185 q 604 141 539 140 q 733 144 669 142 q 783 126 763 146 q 804 76 804 106 z "},"E":{"ha":786,"x_min":51,"x_max":750,"o":"m 746 107 q 732 56 750 79 q 686 29 714 33 q 660 26 683 29 q 601 19 638 24 q 517 11 564 15 q 419 4 469 7 q 286 0 344 0 q 254 0 269 0 q 226 1 239 0 q 182 6 201 3 q 147 13 163 8 q 69 75 86 29 q 65 90 67 81 q 62 119 64 100 q 58 168 60 138 q 54 247 56 199 q 52 372 53 301 q 53 524 51 442 q 53 651 53 582 q 55 781 54 719 q 58 890 56 843 q 63 950 60 936 q 80 990 65 969 q 135 1022 94 1010 q 166 1028 149 1025 q 206 1033 183 1031 q 386 1042 272 1042 q 478 1041 433 1042 q 558 1039 524 1040 q 615 1037 593 1038 q 639 1036 638 1036 q 688 1014 668 1035 q 706 964 707 993 q 684 917 704 936 q 636 897 664 897 l 633 897 q 615 898 633 897 q 568 900 597 899 q 501 902 539 901 q 421 903 463 903 q 272 899 324 903 q 197 893 221 896 q 193 749 194 844 q 192 529 192 653 l 192 525 q 289 524 229 525 q 412 524 349 524 q 533 526 475 524 q 629 535 592 529 q 681 524 657 540 q 708 478 704 507 q 697 426 714 450 q 651 399 681 403 q 522 388 601 390 q 364 385 443 385 q 268 385 313 385 q 192 386 224 386 q 194 228 193 286 q 199 143 196 171 q 276 139 219 140 q 444 146 332 138 q 528 153 488 149 q 599 160 568 157 q 649 165 631 163 q 668 168 668 168 q 720 153 697 171 q 746 107 743 136 z "},"F":{"ha":758,"x_min":54,"x_max":751,"o":"m 747 461 q 735 410 751 433 q 689 382 718 386 q 626 374 663 378 q 550 369 590 371 q 466 367 510 368 q 379 367 422 367 q 278 367 326 367 q 196 369 231 368 l 200 71 q 181 21 201 42 q 132 0 161 0 l 131 0 q 83 20 103 0 q 61 68 63 40 q 60 105 61 69 q 59 199 60 140 q 58 331 58 257 q 56 483 57 406 q 54 735 54 643 q 54 872 54 826 q 56 932 54 918 q 57 950 57 946 q 67 977 60 961 q 97 1007 75 993 q 114 1015 106 1011 q 133 1021 122 1018 q 208 1033 164 1029 q 403 1042 281 1042 q 502 1041 454 1042 q 588 1039 550 1040 q 651 1037 626 1038 q 678 1036 675 1036 q 726 1014 706 1035 q 743 964 746 993 q 721 916 742 936 q 671 897 700 896 q 651 898 671 897 q 599 900 632 899 q 525 902 567 901 q 439 903 483 903 q 274 899 331 903 q 193 892 217 896 q 193 826 193 867 q 193 736 193 786 q 194 628 193 686 q 194 508 194 571 q 301 506 236 507 q 433 506 365 506 q 565 509 501 507 q 668 518 628 511 q 719 506 696 524 q 747 461 743 489 z "},"L":{"ha":756,"x_min":53,"x_max":751,"o":"m 286 0 q 254 0 269 0 q 225 1 239 0 q 181 6 200 3 q 146 13 161 8 q 68 75 85 29 q 63 98 65 82 q 58 162 60 114 q 54 303 56 210 q 54 560 53 397 q 56 712 54 638 q 58 844 57 786 q 59 938 58 903 q 60 974 60 974 q 82 1023 61 1003 q 131 1042 103 1043 q 180 1019 160 1040 q 199 971 200 999 q 198 935 199 969 q 197 846 197 901 q 194 719 196 790 q 193 571 193 647 q 192 393 192 467 q 193 269 192 319 q 195 190 194 219 q 197 143 196 160 q 276 139 219 140 q 444 146 332 138 q 528 153 488 149 q 601 160 569 157 q 651 166 632 164 q 669 168 669 168 q 722 153 699 171 q 747 107 744 136 q 733 56 751 79 q 688 29 715 33 q 662 26 685 29 q 601 19 639 24 q 517 11 564 15 q 419 4 469 7 q 286 0 344 0 z "},"D":{"ha":776,"x_min":43,"x_max":746,"o":"m 190 0 q 149 1 169 0 q 107 6 128 3 q 60 34 78 11 q 47 85 43 57 q 76 131 53 114 q 126 143 99 147 q 276 148 210 131 q 391 197 342 165 q 472 263 440 228 q 521 324 504 299 q 576 431 556 375 q 601 544 596 488 q 597 652 607 600 q 560 749 586 704 q 403 874 508 836 q 147 899 299 913 q 97 915 118 896 q 72 963 75 933 q 88 1013 69 990 q 135 1038 107 1035 q 475 994 335 1054 q 596 921 542 968 q 642 873 621 899 q 681 819 663 847 q 731 683 717 757 q 739 531 746 610 q 706 383 732 456 q 636 246 681 311 q 538 134 593 183 q 418 53 483 85 q 347 24 383 36 q 272 7 310 13 q 231 1 251 3 q 190 0 211 0 m 157 149 l 154 149 q 106 172 125 150 q 88 221 86 193 q 96 483 92 332 q 103 826 100 633 q 124 874 104 854 q 172 894 144 894 l 174 894 q 223 873 203 893 q 242 824 243 853 q 235 478 239 631 q 226 215 231 326 q 205 168 225 188 q 157 149 185 149 z "},"¨":{"ha":425,"x_min":46,"x_max":379,"o":"m 185 822 q 165 773 185 793 q 115 753 144 753 q 66 773 86 753 q 46 822 46 793 q 66 872 46 851 q 115 892 86 892 q 165 872 144 892 q 185 822 185 851 m 379 822 q 359 773 379 793 q 310 753 339 753 q 260 773 281 753 q 240 822 240 793 q 260 872 240 851 q 310 892 281 892 q 359 872 339 892 q 379 822 379 851 z "},"Ä":{"ha":724,"x_min":44,"x_max":669,"o":"m 654 443 q 606 743 638 617 q 490 982 563 910 q 351 1042 431 1044 q 204 975 267 1039 q 109 799 146 914 q 57 508 72 685 q 48 380 50 443 q 45 263 46 317 q 45 166 44 208 q 46 100 46 124 l 46 78 q 66 28 46 49 q 115 8 86 8 q 165 28 144 8 q 185 78 185 49 l 185 103 q 183 133 183 115 q 183 175 183 151 q 292 167 242 169 q 389 164 343 164 q 529 172 467 164 q 530 99 531 126 q 529 71 529 72 q 549 22 529 43 q 597 0 569 1 l 599 0 q 648 20 628 0 q 668 68 668 40 q 669 102 668 71 q 668 185 669 133 q 664 303 667 236 q 654 443 661 369 m 186 314 l 185 314 q 188 403 186 357 q 194 496 190 449 q 218 660 204 593 q 247 772 232 728 q 278 842 263 817 q 304 878 293 867 q 332 899 319 894 q 354 903 344 903 q 370 900 361 903 q 392 885 379 897 q 428 830 407 869 q 471 708 450 790 q 515 432 501 593 q 524 311 521 369 q 378 303 461 303 q 186 314 294 303 m 338 1169 q 317 1120 338 1140 q 268 1100 297 1100 q 219 1120 239 1100 q 199 1169 199 1140 q 219 1219 199 1199 q 268 1239 239 1239 q 317 1219 297 1239 q 338 1169 338 1199 m 532 1169 q 512 1120 532 1140 q 463 1100 492 1100 q 413 1120 433 1100 q 393 1169 393 1140 q 413 1219 393 1199 q 463 1239 433 1239 q 512 1219 492 1239 q 532 1169 532 1199 z "},"ä":{"ha":606,"x_min":33,"x_max":557,"o":"m 547 521 q 496 622 536 579 q 396 679 456 664 q 232 665 317 700 q 75 543 143 629 q 59 492 56 519 q 85 446 63 464 q 136 430 108 426 q 183 457 164 433 q 281 535 232 518 q 361 544 329 553 q 411 496 403 536 q 417 442 415 471 q 417 379 418 413 q 231 363 313 383 q 99 299 150 343 q 36 175 39 244 q 56 92 33 131 q 118 29 78 53 q 167 8 138 18 q 238 -1 196 -1 q 317 8 274 -1 q 414 40 361 17 q 438 10 421 22 q 476 -1 456 -1 l 478 -1 q 526 19 506 -1 q 547 68 547 39 q 549 181 547 131 q 553 276 550 232 q 556 410 556 353 q 547 521 557 468 m 189 149 q 175 169 172 158 q 181 183 175 176 q 190 193 186 190 q 269 228 214 214 q 413 240 324 243 l 410 194 q 333 158 369 171 q 265 140 297 144 q 215 140 233 135 q 189 149 196 144 m 294 822 q 274 773 294 793 q 225 753 254 753 q 176 773 196 753 q 156 822 156 793 q 176 872 156 851 q 225 892 196 892 q 274 872 254 892 q 294 822 294 851 m 489 822 q 469 773 489 793 q 419 753 449 753 q 370 773 390 753 q 350 822 350 793 q 370 872 350 851 q 419 892 390 892 q 469 872 449 892 q 489 822 489 851 z "},"ë":{"ha":638,"x_min":36,"x_max":597,"o":"m 346 -6 q 316 -4 331 -6 q 286 0 301 -3 q 113 100 181 22 q 36 314 40 185 l 36 324 q 44 415 36 374 q 67 489 53 457 q 97 546 81 521 q 129 588 113 571 q 222 658 169 632 q 332 689 274 685 q 485 650 418 696 q 543 588 521 625 q 572 507 565 551 q 554 403 579 454 q 526 352 543 376 q 485 308 508 328 q 442 277 468 293 q 379 249 415 261 q 297 230 343 236 q 193 231 250 224 q 222 187 206 204 q 256 159 239 169 q 289 144 274 149 q 313 138 304 139 q 403 144 361 128 q 458 194 444 160 q 496 233 469 222 q 549 232 522 243 q 587 195 576 221 q 586 142 597 169 q 460 18 553 57 q 346 -6 406 -6 m 179 374 q 259 367 224 365 q 320 376 294 368 q 364 394 346 383 q 393 414 382 404 q 428 458 419 436 q 433 488 436 479 q 417 525 431 513 q 389 544 404 538 q 360 550 374 550 q 340 550 346 550 q 232 494 276 546 q 179 374 190 449 m 310 822 q 290 773 310 793 q 240 753 269 753 q 191 773 211 753 q 171 822 171 793 q 191 872 171 851 q 240 892 211 892 q 290 872 269 892 q 310 822 310 851 m 504 822 q 484 773 504 793 q 435 753 464 753 q 385 773 406 753 q 365 822 365 793 q 385 872 365 851 q 435 892 406 892 q 484 872 464 892 q 504 822 504 851 z "},"ö":{"ha":629,"x_min":36,"x_max":606,"o":"m 310 -6 q 296 -4 300 -6 q 182 29 232 -1 q 100 104 133 57 q 38 313 40 190 q 54 441 36 379 q 107 554 72 503 q 201 646 146 610 q 267 675 233 664 q 338 689 300 686 q 388 673 367 692 q 413 625 410 654 q 390 568 415 590 q 432 568 410 575 q 518 517 483 550 q 571 439 551 482 q 586 258 606 357 q 553 159 576 206 q 496 76 531 113 q 408 15 456 36 q 310 -6 360 -6 m 349 550 q 270 524 303 546 q 217 468 238 501 q 186 394 196 435 q 176 314 176 354 q 186 242 176 276 q 214 185 196 208 q 303 133 247 138 l 308 133 q 360 147 336 133 q 402 181 383 160 q 433 228 421 201 q 450 285 444 256 q 443 385 461 340 q 389 436 426 424 q 348 470 361 444 q 344 524 335 496 q 351 538 347 531 q 363 551 356 546 q 349 550 353 551 m 306 822 q 285 773 306 793 q 236 753 265 753 q 187 773 207 753 q 167 822 167 793 q 187 872 167 851 q 236 892 207 892 q 285 872 265 892 q 306 822 306 851 m 500 822 q 480 773 500 793 q 431 753 460 753 q 381 773 401 753 q 361 822 361 793 q 381 872 361 851 q 431 892 401 892 q 480 872 460 892 q 500 822 500 851 z "},"ü":{"ha":664,"x_min":47,"x_max":613,"o":"m 132 692 l 136 692 q 185 667 165 689 q 201 618 204 646 q 195 432 194 514 q 204 290 196 350 q 226 196 213 226 q 251 153 240 165 q 292 136 267 136 q 326 147 310 136 q 356 173 343 157 q 381 209 369 189 q 400 249 392 229 q 447 411 428 315 q 472 626 465 507 q 496 674 475 654 q 544 692 517 693 q 592 669 572 690 q 611 621 613 649 q 608 510 610 563 q 604 407 607 458 q 599 242 601 324 q 596 65 597 160 q 575 17 596 38 q 525 -3 554 -3 q 477 18 497 -3 q 457 68 457 39 l 457 78 q 372 13 415 29 q 292 -3 328 -3 q 214 13 250 -3 q 150 58 178 28 q 68 260 89 122 q 63 626 47 397 q 85 673 65 654 q 132 692 104 692 m 518 822 q 498 773 518 793 q 449 753 478 753 q 399 773 419 753 q 379 822 379 793 q 399 872 379 851 q 449 892 419 892 q 498 872 478 892 q 518 822 518 851 m 324 822 q 303 773 324 793 q 254 753 283 753 q 205 773 225 753 q 185 822 185 793 q 205 872 185 851 q 254 892 225 892 q 303 872 283 892 q 324 822 324 851 z "},"ÿ":{"ha":614,"x_min":29,"x_max":594,"o":"m 533 690 q 482 678 506 696 q 453 633 458 661 q 435 549 446 597 q 408 443 424 500 q 375 324 393 386 q 338 199 357 263 q 278 347 308 269 q 224 491 249 425 q 185 601 200 557 q 171 646 171 644 q 135 686 161 674 q 82 689 110 699 q 42 655 54 681 q 39 601 29 629 q 51 565 40 597 q 80 484 63 533 q 119 374 97 435 q 167 249 142 313 q 217 127 192 186 q 267 24 243 68 q 278 7 271 14 q 238 -122 257 -62 q 203 -227 218 -182 q 178 -299 188 -272 q 169 -326 169 -325 q 174 -380 161 -354 q 214 -414 186 -406 q 236 -418 224 -418 q 276 -406 258 -418 q 301 -371 294 -393 q 323 -306 304 -364 q 370 -161 342 -249 q 432 33 399 -74 q 497 247 465 140 q 553 450 528 354 q 589 610 578 546 q 578 661 594 638 q 533 690 561 685 m 299 822 q 278 773 299 793 q 229 753 258 753 q 180 773 200 753 q 160 822 160 793 q 180 872 160 851 q 229 892 200 892 q 278 872 258 892 q 299 822 299 851 m 493 822 q 473 773 493 793 q 424 753 453 753 q 374 773 394 753 q 354 822 354 793 q 374 872 354 851 q 424 892 394 892 q 473 872 453 892 q 493 822 493 851 z "},"ı":{"ha":232,"x_min":36,"x_max":192,"o":"m 107 -1 l 106 -1 q 56 21 76 0 q 38 69 36 42 l 43 283 q 49 449 46 367 q 51 624 51 531 q 73 673 53 653 q 122 693 93 693 q 172 672 151 693 q 190 624 192 651 q 188 445 190 528 q 182 278 185 363 l 176 67 q 155 19 175 39 q 107 -1 135 -1 z "},"Ë":{"ha":786,"x_min":51,"x_max":750,"o":"m 746 107 q 720 153 743 136 q 668 168 697 171 q 649 165 668 168 q 599 160 631 163 q 528 153 568 157 q 444 146 488 149 q 276 139 332 138 q 199 143 219 140 q 194 228 196 171 q 192 386 193 286 q 268 385 224 386 q 364 385 313 385 q 522 388 443 385 q 651 399 601 390 q 697 426 681 403 q 708 478 714 450 q 681 524 704 507 q 629 535 657 540 q 533 526 592 529 q 412 524 475 524 q 289 524 349 524 q 192 525 229 525 l 192 529 q 193 749 192 653 q 197 893 194 844 q 272 899 221 896 q 421 903 324 903 q 501 902 463 903 q 568 900 539 901 q 615 898 597 899 q 633 897 633 897 l 636 897 q 684 917 664 897 q 706 964 704 936 q 688 1014 707 993 q 639 1036 668 1035 q 615 1037 638 1036 q 558 1039 593 1038 q 478 1041 524 1040 q 386 1042 433 1042 q 206 1033 272 1042 q 166 1028 183 1031 q 135 1022 149 1025 q 80 990 94 1010 q 63 950 65 969 q 58 890 60 936 q 55 781 56 843 q 53 651 54 719 q 53 524 53 582 q 52 372 51 442 q 54 247 53 301 q 58 168 56 199 q 62 119 60 138 q 65 90 64 100 q 69 75 67 81 q 147 13 86 29 q 182 6 163 8 q 226 1 201 3 q 254 0 239 0 q 286 0 269 0 q 419 4 344 0 q 517 11 469 7 q 601 19 564 15 q 660 26 638 24 q 686 29 683 29 q 732 56 714 33 q 746 107 750 79 m 579 1169 q 559 1120 579 1140 q 510 1100 539 1100 q 460 1120 481 1100 q 440 1169 440 1140 q 460 1219 440 1199 q 510 1239 481 1239 q 559 1219 539 1239 q 579 1169 579 1199 m 385 1169 q 365 1120 385 1140 q 315 1100 344 1100 q 266 1120 286 1100 q 246 1169 246 1140 q 266 1219 246 1199 q 315 1239 286 1239 q 365 1219 344 1239 q 385 1169 385 1199 z "},"Ö":{"ha":840,"x_min":35,"x_max":803,"o":"m 410 0 q 392 1 397 0 q 235 50 307 6 q 124 161 168 93 q 61 303 83 224 q 38 471 39 382 q 60 661 35 572 q 90 754 72 710 q 133 838 108 799 q 265 975 188 922 q 456 1042 350 1031 q 506 1026 483 1044 q 531 979 528 1007 q 515 928 533 950 q 468 903 496 906 q 339 856 394 896 q 247 756 283 817 q 193 622 211 696 q 176 474 175 549 q 192 355 178 414 q 233 249 206 296 q 301 172 260 203 q 400 139 343 142 l 408 139 q 495 165 456 139 q 566 232 535 190 q 619 326 597 274 q 651 431 640 378 q 662 553 664 493 q 644 663 660 613 q 539 786 614 761 q 499 822 511 796 q 497 875 486 847 q 532 915 507 903 q 585 918 557 928 q 708 832 660 890 q 749 774 732 806 q 778 704 765 742 q 801 560 799 638 q 788 403 803 483 q 738 250 771 322 q 660 125 706 178 q 543 32 606 63 q 410 0 476 0 m 606 1169 q 585 1120 606 1140 q 536 1100 565 1100 q 487 1120 507 1100 q 467 1169 467 1140 q 487 1219 467 1199 q 536 1239 507 1239 q 585 1219 565 1239 q 606 1169 606 1199 m 411 1169 q 391 1120 411 1140 q 342 1100 371 1100 q 292 1120 313 1100 q 272 1169 272 1140 q 292 1219 272 1199 q 342 1239 313 1239 q 391 1219 371 1239 q 411 1169 411 1199 z "},"Ï":{"ha":843,"x_min":39,"x_max":806,"o":"m 804 76 q 783 126 804 106 q 733 144 763 146 q 604 141 669 142 q 469 139 539 140 q 472 245 471 185 q 476 374 474 306 q 479 513 478 442 q 482 654 481 585 q 485 786 483 724 q 488 899 486 849 q 594 899 540 899 q 710 903 647 900 q 758 925 738 904 q 776 974 778 946 q 756 1023 776 1003 q 706 1042 735 1043 q 563 1038 629 1039 q 430 1036 496 1036 q 294 1038 364 1036 q 142 1042 225 1039 q 92 1024 114 1043 q 69 975 71 1004 q 88 925 68 946 q 136 903 108 904 q 248 899 196 900 q 349 897 300 899 q 345 719 347 822 q 340 510 343 617 q 335 306 338 404 q 331 139 332 207 q 224 141 278 140 q 113 144 169 142 q 63 126 85 146 q 40 78 42 106 q 59 28 39 49 q 107 6 79 7 q 257 1 185 3 q 400 0 329 0 q 574 1 490 0 q 738 6 657 3 q 785 28 765 7 q 804 76 806 49 m 413 1169 q 392 1120 413 1140 q 343 1100 372 1100 q 294 1120 314 1100 q 274 1169 274 1140 q 294 1219 274 1199 q 343 1239 314 1239 q 392 1219 372 1239 q 413 1169 413 1199 m 607 1169 q 587 1120 607 1140 q 538 1100 567 1100 q 488 1120 508 1100 q 468 1169 468 1140 q 488 1219 468 1199 q 538 1239 508 1239 q 587 1219 567 1239 q 607 1169 607 1199 z "},"Ü":{"ha":819,"x_min":47,"x_max":769,"o":"m 317 1 q 156 74 219 1 q 56 393 72 168 q 54 650 47 506 q 85 982 61 794 q 110 1028 88 1010 q 161 1043 133 1046 q 208 1016 190 1039 q 222 965 225 993 q 194 647 200 788 q 194 403 188 507 q 206 307 199 347 q 223 239 214 267 q 242 193 232 211 q 260 165 251 175 q 317 140 281 140 q 408 183 361 140 q 511 340 465 238 q 594 622 564 458 q 631 975 625 785 q 653 1024 632 1004 q 701 1043 674 1043 q 750 1021 731 1042 q 769 972 769 1000 l 761 626 q 753 356 757 489 q 749 69 750 222 q 728 22 749 42 q 679 1 707 1 q 630 22 650 1 q 610 71 610 43 q 610 152 610 113 q 613 231 611 192 q 477 60 553 118 q 317 1 401 1 m 615 1169 q 595 1120 615 1140 q 546 1100 575 1100 q 497 1120 517 1100 q 476 1169 476 1140 q 497 1219 476 1199 q 546 1239 517 1239 q 595 1219 575 1239 q 615 1169 615 1199 m 421 1169 q 401 1120 421 1140 q 351 1100 381 1100 q 302 1120 322 1100 q 282 1169 282 1140 q 302 1219 282 1199 q 351 1239 322 1239 q 401 1219 381 1239 q 421 1169 421 1199 z "},"Ÿ":{"ha":751,"x_min":29,"x_max":735,"o":"m 279 1 q 250 8 263 1 q 214 48 224 21 q 217 101 204 75 q 226 120 217 101 q 250 171 235 139 q 285 246 265 203 q 329 340 306 289 q 264 448 297 386 q 199 576 231 510 q 140 706 168 642 q 90 823 111 771 q 55 909 68 875 q 40 949 42 943 q 40 1002 29 976 q 79 1038 51 1028 q 133 1038 107 1049 q 169 999 158 1026 q 179 973 169 997 q 206 908 189 949 q 244 816 222 868 q 292 708 267 764 q 344 596 317 651 q 399 493 372 540 q 460 633 429 563 q 516 769 490 704 q 562 892 542 835 q 593 989 582 949 q 624 1031 600 1017 q 676 1039 649 1046 q 719 1007 704 1032 q 728 954 735 982 q 679 804 713 893 q 604 616 646 715 q 517 417 563 517 q 435 235 472 317 q 371 101 397 154 q 342 40 344 47 q 316 11 333 21 q 279 1 299 1 m 382 1169 q 362 1120 382 1140 q 313 1100 342 1100 q 263 1120 283 1100 q 243 1169 243 1140 q 263 1219 243 1199 q 313 1239 283 1239 q 362 1219 342 1239 q 382 1169 382 1199 m 576 1169 q 556 1120 576 1140 q 507 1100 536 1100 q 458 1120 478 1100 q 438 1169 438 1140 q 458 1219 438 1199 q 507 1239 478 1239 q 556 1219 536 1239 q 576 1169 576 1199 z "},"ˆ":{"ha":454,"x_min":35,"x_max":418,"o":"m 344 757 q 310 765 326 757 q 285 790 294 774 q 257 831 272 811 q 231 865 242 851 q 197 832 215 853 q 163 792 178 811 q 117 765 146 768 q 65 779 89 761 q 38 824 42 796 q 53 876 35 853 q 69 897 54 878 q 107 939 85 915 q 178 1000 147 982 q 238 1017 208 1018 q 295 993 267 1014 q 358 928 324 972 q 390 884 378 904 q 403 863 403 864 q 411 810 418 838 q 381 767 404 782 q 344 757 363 757 z "},"â":{"ha":606,"x_min":33,"x_max":557,"o":"m 547 521 q 496 622 536 579 q 396 679 456 664 q 232 665 317 700 q 75 543 143 629 q 59 492 56 519 q 85 446 63 464 q 136 430 108 426 q 183 457 164 433 q 281 535 232 518 q 361 544 329 553 q 411 496 403 536 q 417 442 415 471 q 417 379 418 413 q 231 363 313 383 q 99 299 150 343 q 36 175 39 244 q 56 92 33 131 q 118 29 78 53 q 167 8 138 18 q 238 -1 196 -1 q 317 8 274 -1 q 414 40 361 17 q 438 10 421 22 q 476 -1 456 -1 l 478 -1 q 526 19 506 -1 q 547 68 547 39 q 549 181 547 131 q 553 276 550 232 q 556 410 556 353 q 547 521 557 468 m 421 757 q 387 765 403 757 q 361 790 371 774 q 333 831 349 811 q 307 865 318 851 q 273 832 292 853 q 239 792 254 811 q 194 765 222 768 q 142 779 165 761 q 115 824 118 796 q 129 876 111 853 q 146 897 131 878 q 183 939 161 915 q 254 1000 224 982 q 314 1017 285 1018 q 372 993 343 1014 q 435 928 400 972 q 467 884 454 904 q 479 863 479 864 q 488 810 494 838 q 457 767 481 782 q 421 757 439 757 m 189 149 q 175 169 172 158 q 181 183 175 176 q 190 193 186 190 q 269 228 214 214 q 413 240 324 243 l 410 194 q 333 158 369 171 q 265 140 297 144 q 215 140 233 135 q 189 149 196 144 z "},"ê":{"ha":638,"x_min":36,"x_max":597,"o":"m 346 -6 q 316 -4 331 -6 q 286 0 301 -3 q 113 100 181 22 q 36 314 40 185 l 36 324 q 44 415 36 374 q 67 489 53 457 q 97 546 81 521 q 129 588 113 571 q 222 658 169 632 q 332 689 274 685 q 485 650 418 696 q 543 588 521 625 q 572 507 565 551 q 554 403 579 454 q 526 352 543 376 q 485 308 508 328 q 442 277 468 293 q 379 249 415 261 q 297 230 343 236 q 193 231 250 224 q 222 187 206 204 q 256 159 239 169 q 289 144 274 149 q 313 138 304 139 q 403 144 361 128 q 458 194 444 160 q 496 233 469 222 q 549 232 522 243 q 587 195 576 221 q 586 142 597 169 q 460 18 553 57 q 346 -6 406 -6 m 436 757 q 402 765 418 757 q 376 790 386 774 q 349 831 364 811 q 322 865 333 851 q 288 832 307 853 q 254 792 269 811 q 209 765 238 768 q 157 779 181 761 q 130 824 133 796 q 144 876 126 853 q 161 897 146 878 q 199 939 176 915 q 269 1000 239 982 q 329 1017 300 1018 q 387 993 358 1014 q 450 928 415 972 q 482 884 469 904 q 494 863 494 864 q 503 810 510 838 q 472 767 496 782 q 436 757 454 757 m 179 374 q 259 367 224 365 q 320 376 294 368 q 364 394 346 383 q 393 414 382 404 q 428 458 419 436 q 433 488 436 479 q 417 525 431 513 q 389 544 404 538 q 360 550 374 550 q 340 550 346 550 q 232 494 276 546 q 179 374 190 449 z "},"î":{"ha":428,"x_min":24,"x_max":407,"o":"m 206 -1 l 204 -1 q 155 21 175 0 q 136 69 135 42 l 142 283 q 147 449 144 367 q 150 624 150 531 q 172 673 151 653 q 221 693 192 693 q 270 672 250 693 q 289 624 290 651 q 286 445 289 528 q 281 278 283 363 l 275 67 q 253 19 274 39 q 206 -1 233 -1 m 333 757 q 299 765 315 757 q 274 790 283 774 q 246 831 261 811 q 219 865 231 851 q 185 832 204 853 q 151 792 167 811 q 106 765 135 768 q 54 779 78 761 q 27 824 31 796 q 42 876 24 853 q 58 897 43 878 q 96 939 74 915 q 167 1000 136 982 q 226 1017 197 1018 q 284 993 256 1014 q 347 928 313 972 q 379 884 367 904 q 392 863 392 864 q 400 810 407 838 q 369 767 393 782 q 333 757 351 757 z "},"ô":{"ha":629,"x_min":36,"x_max":606,"o":"m 310 -6 q 296 -4 300 -6 q 182 29 232 -1 q 100 104 133 57 q 38 313 40 190 q 54 441 36 379 q 107 554 72 503 q 201 646 146 610 q 267 675 233 664 q 338 689 300 686 q 388 673 367 692 q 413 625 410 654 q 390 568 415 590 q 432 568 410 575 q 518 517 483 550 q 571 439 551 482 q 586 258 606 357 q 553 159 576 206 q 496 76 531 113 q 408 15 456 36 q 310 -6 360 -6 m 349 550 q 270 524 303 546 q 217 468 238 501 q 186 394 196 435 q 176 314 176 354 q 186 242 176 276 q 214 185 196 208 q 303 133 247 138 l 308 133 q 360 147 336 133 q 402 181 383 160 q 433 228 421 201 q 450 285 444 256 q 443 385 461 340 q 389 436 426 424 q 348 470 361 444 q 344 524 335 496 q 351 538 347 531 q 363 551 356 546 q 349 550 353 551 m 432 757 q 398 765 414 757 q 372 790 382 774 q 344 831 360 811 q 318 865 329 851 q 284 832 303 853 q 250 792 265 811 q 205 765 233 768 q 153 779 176 761 q 126 824 129 796 q 140 876 122 853 q 157 897 142 878 q 194 939 172 915 q 265 1000 235 982 q 325 1017 296 1018 q 383 993 354 1014 q 446 928 411 972 q 478 884 465 904 q 490 863 490 864 q 499 810 506 838 q 468 767 492 782 q 432 757 450 757 z "},"û":{"ha":664,"x_min":47,"x_max":613,"o":"m 132 692 l 136 692 q 185 667 165 689 q 201 618 204 646 q 195 432 194 514 q 204 290 196 350 q 226 196 213 226 q 251 153 240 165 q 292 136 267 136 q 326 147 310 136 q 356 173 343 157 q 381 209 369 189 q 400 249 392 229 q 447 411 428 315 q 472 626 465 507 q 496 674 475 654 q 544 692 517 693 q 592 669 572 690 q 611 621 613 649 q 608 510 610 563 q 604 407 607 458 q 599 242 601 324 q 596 65 597 160 q 575 17 596 38 q 525 -3 554 -3 q 477 18 497 -3 q 457 68 457 39 l 457 78 q 372 13 415 29 q 292 -3 328 -3 q 214 13 250 -3 q 150 58 178 28 q 68 260 89 122 q 63 626 47 397 q 85 673 65 654 q 132 692 104 692 m 450 757 q 416 765 432 757 q 390 790 400 774 q 363 831 378 811 q 336 865 347 851 q 302 832 321 853 q 268 792 283 811 q 223 765 251 768 q 171 779 194 761 q 144 824 147 796 q 158 876 140 853 q 175 897 160 878 q 213 939 190 915 q 283 1000 253 982 q 343 1017 314 1018 q 401 993 372 1014 q 464 928 429 972 q 496 884 483 904 q 508 863 508 864 q 517 810 524 838 q 486 767 510 782 q 450 757 468 757 z "},"Â":{"ha":711,"x_min":44,"x_max":669,"o":"m 654 443 q 606 743 638 617 q 490 982 563 910 q 351 1042 431 1044 q 204 975 267 1039 q 109 799 146 914 q 57 508 72 685 q 48 380 50 443 q 45 263 46 317 q 45 166 44 208 q 46 100 46 124 l 46 78 q 66 28 46 49 q 115 8 86 8 q 165 28 144 8 q 185 78 185 49 l 185 103 q 183 133 183 115 q 183 175 183 151 q 292 167 242 169 q 389 164 343 164 q 529 172 467 164 q 530 99 531 126 q 529 71 529 72 q 549 22 529 43 q 597 0 569 1 l 599 0 q 648 20 628 0 q 668 68 668 40 q 669 102 668 71 q 668 185 669 133 q 664 303 667 236 q 654 443 661 369 m 186 314 l 185 314 q 188 403 186 357 q 194 496 190 449 q 218 660 204 593 q 247 772 232 728 q 278 842 263 817 q 304 878 293 867 q 332 899 319 894 q 354 903 344 903 q 370 900 361 903 q 392 885 379 897 q 428 830 407 869 q 471 708 450 790 q 515 432 501 593 q 524 311 521 369 q 378 303 461 303 q 186 314 294 303 m 474 1104 q 440 1113 456 1104 q 414 1138 424 1121 q 386 1178 401 1158 q 360 1213 371 1199 q 326 1179 344 1200 q 292 1139 307 1158 q 247 1112 275 1115 q 194 1126 218 1108 q 167 1172 171 1143 q 182 1224 164 1200 q 199 1244 183 1225 q 236 1286 214 1263 q 307 1347 276 1329 q 367 1364 338 1365 q 424 1340 396 1361 q 488 1275 453 1319 q 519 1231 507 1251 q 532 1210 532 1211 q 540 1157 547 1185 q 510 1114 533 1129 q 474 1104 492 1104 z "},"Ê":{"ha":786,"x_min":51,"x_max":750,"o":"m 746 107 q 720 153 743 136 q 668 168 697 171 q 649 165 668 168 q 599 160 631 163 q 528 153 568 157 q 444 146 488 149 q 276 139 332 138 q 199 143 219 140 q 194 228 196 171 q 192 386 193 286 q 268 385 224 386 q 364 385 313 385 q 522 388 443 385 q 651 399 601 390 q 697 426 681 403 q 708 478 714 450 q 681 524 704 507 q 629 535 657 540 q 533 526 592 529 q 412 524 475 524 q 289 524 349 524 q 192 525 229 525 l 192 529 q 193 749 192 653 q 197 893 194 844 q 272 899 221 896 q 421 903 324 903 q 501 902 463 903 q 568 900 539 901 q 615 898 597 899 q 633 897 633 897 l 636 897 q 684 917 664 897 q 706 964 704 936 q 688 1014 707 993 q 639 1036 668 1035 q 615 1037 638 1036 q 558 1039 593 1038 q 478 1041 524 1040 q 386 1042 433 1042 q 206 1033 272 1042 q 166 1028 183 1031 q 135 1022 149 1025 q 80 990 94 1010 q 63 950 65 969 q 58 890 60 936 q 55 781 56 843 q 53 651 54 719 q 53 524 53 582 q 52 372 51 442 q 54 247 53 301 q 58 168 56 199 q 62 119 60 138 q 65 90 64 100 q 69 75 67 81 q 147 13 86 29 q 182 6 163 8 q 226 1 201 3 q 254 0 239 0 q 286 0 269 0 q 419 4 344 0 q 517 11 469 7 q 601 19 564 15 q 660 26 638 24 q 686 29 683 29 q 732 56 714 33 q 746 107 750 79 m 511 1104 q 477 1113 493 1104 q 451 1138 461 1121 q 424 1178 439 1158 q 397 1213 408 1199 q 363 1179 382 1200 q 329 1139 344 1158 q 284 1112 313 1115 q 232 1126 256 1108 q 205 1172 208 1143 q 219 1224 201 1200 q 236 1244 221 1225 q 274 1286 251 1263 q 344 1347 314 1329 q 404 1364 375 1365 q 462 1340 433 1361 q 525 1275 490 1319 q 557 1231 544 1251 q 569 1210 569 1211 q 578 1157 585 1185 q 547 1114 571 1129 q 511 1104 529 1104 z "},"Î":{"ha":843,"x_min":39,"x_max":806,"o":"m 804 76 q 783 126 804 106 q 733 144 763 146 q 604 141 669 142 q 469 139 539 140 q 472 245 471 185 q 476 374 474 306 q 479 513 478 442 q 482 654 481 585 q 485 786 483 724 q 488 899 486 849 q 594 899 540 899 q 710 903 647 900 q 758 925 738 904 q 776 974 778 946 q 756 1023 776 1003 q 706 1042 735 1043 q 563 1038 629 1039 q 430 1036 496 1036 q 294 1038 364 1036 q 142 1042 225 1039 q 92 1024 114 1043 q 69 975 71 1004 q 88 925 68 946 q 136 903 108 904 q 248 899 196 900 q 349 897 300 899 q 345 719 347 822 q 340 510 343 617 q 335 306 338 404 q 331 139 332 207 q 224 141 278 140 q 113 144 169 142 q 63 126 85 146 q 40 78 42 106 q 59 28 39 49 q 107 6 79 7 q 257 1 185 3 q 400 0 329 0 q 574 1 490 0 q 738 6 657 3 q 785 28 765 7 q 804 76 806 49 m 539 1104 q 505 1113 521 1104 q 479 1138 489 1121 q 451 1178 467 1158 q 425 1213 436 1199 q 391 1179 410 1200 q 357 1139 372 1158 q 312 1112 340 1115 q 260 1126 283 1108 q 233 1172 236 1143 q 247 1224 229 1200 q 264 1244 249 1225 q 301 1286 279 1263 q 372 1347 342 1329 q 432 1364 403 1365 q 490 1340 461 1361 q 553 1275 518 1319 q 585 1231 572 1251 q 597 1210 597 1211 q 606 1157 613 1185 q 575 1114 599 1129 q 539 1104 557 1104 z "},"Ô":{"ha":840,"x_min":35,"x_max":803,"o":"m 410 0 q 392 1 397 0 q 235 50 307 6 q 124 161 168 93 q 61 303 83 224 q 38 471 39 382 q 60 661 35 572 q 90 754 72 710 q 133 838 108 799 q 265 975 188 922 q 456 1042 350 1031 q 506 1026 483 1044 q 531 979 528 1007 q 515 928 533 950 q 468 903 496 906 q 339 856 394 896 q 247 756 283 817 q 193 622 211 696 q 176 474 175 549 q 192 355 178 414 q 233 249 206 296 q 301 172 260 203 q 400 139 343 142 l 408 139 q 495 165 456 139 q 566 232 535 190 q 619 326 597 274 q 651 431 640 378 q 662 553 664 493 q 644 663 660 613 q 539 786 614 761 q 499 822 511 796 q 497 875 486 847 q 532 915 507 903 q 585 918 557 928 q 708 832 660 890 q 749 774 732 806 q 778 704 765 742 q 801 560 799 638 q 788 403 803 483 q 738 250 771 322 q 660 125 706 178 q 543 32 606 63 q 410 0 476 0 m 538 1104 q 503 1113 519 1104 q 478 1138 488 1121 q 450 1178 465 1158 q 424 1213 435 1199 q 390 1179 408 1200 q 356 1139 371 1158 q 310 1112 339 1115 q 258 1126 282 1108 q 231 1172 235 1143 q 246 1224 228 1200 q 263 1244 247 1225 q 300 1286 278 1263 q 371 1347 340 1329 q 431 1364 401 1365 q 488 1340 460 1361 q 551 1275 517 1319 q 583 1231 571 1251 q 596 1210 596 1211 q 604 1157 611 1185 q 574 1114 597 1129 q 538 1104 556 1104 z "},"Û":{"ha":819,"x_min":47,"x_max":769,"o":"m 317 1 q 156 74 219 1 q 56 393 72 168 q 54 650 47 506 q 85 982 61 794 q 110 1028 88 1010 q 161 1043 133 1046 q 208 1016 190 1039 q 222 965 225 993 q 194 647 200 788 q 194 403 188 507 q 206 307 199 347 q 223 239 214 267 q 242 193 232 211 q 260 165 251 175 q 317 140 281 140 q 408 183 361 140 q 511 340 465 238 q 594 622 564 458 q 631 975 625 785 q 653 1024 632 1004 q 701 1043 674 1043 q 750 1021 731 1042 q 769 972 769 1000 l 761 626 q 753 356 757 489 q 749 69 750 222 q 728 22 749 42 q 679 1 707 1 q 630 22 650 1 q 610 71 610 43 q 610 152 610 113 q 613 231 611 192 q 477 60 553 118 q 317 1 401 1 m 540 1104 q 506 1113 522 1104 q 481 1138 490 1121 q 453 1178 468 1158 q 426 1213 438 1199 q 392 1179 411 1200 q 358 1139 374 1158 q 313 1112 342 1115 q 261 1126 285 1108 q 234 1172 238 1143 q 249 1224 231 1200 q 265 1244 250 1225 q 303 1286 281 1263 q 374 1347 343 1329 q 433 1364 404 1365 q 491 1340 463 1361 q 554 1275 519 1319 q 586 1231 574 1251 q 599 1210 599 1211 q 607 1157 614 1185 q 576 1114 600 1129 q 540 1104 558 1104 z "},"ˇ":{"ha":454,"x_min":35,"x_max":418,"o":"m 344 1017 q 381 1007 363 1017 q 411 964 404 992 q 403 911 418 936 q 390 890 403 910 q 358 846 378 869 q 295 781 324 801 q 238 757 267 760 q 178 774 208 756 q 107 835 147 792 q 69 877 85 858 q 53 897 54 896 q 38 949 35 921 q 65 994 42 978 q 117 1009 89 1013 q 163 982 146 1006 q 197 942 178 963 q 231 908 215 921 q 257 942 242 922 q 285 983 272 963 q 310 1008 294 1000 q 344 1017 326 1017 z "},"Ž":{"ha":717,"x_min":32,"x_max":674,"o":"m 346 0 q 274 6 311 0 q 200 26 236 11 q 107 90 147 49 q 53 199 67 136 q 65 399 32 297 q 158 565 93 483 q 287 701 217 640 q 419 811 357 763 l 500 879 l 515 893 q 451 902 496 899 q 324 900 407 906 q 251 894 286 897 q 190 886 217 890 q 133 876 160 881 q 81 888 104 871 q 53 933 58 906 q 64 985 47 961 q 108 1014 81 1008 q 127 1017 110 1014 q 172 1024 144 1019 q 237 1032 200 1028 q 314 1039 274 1036 q 447 1041 393 1044 q 538 1030 501 1038 q 594 1011 574 1022 q 626 990 614 1000 q 669 899 669 954 q 658 853 669 875 q 626 808 647 831 q 574 759 604 785 q 506 703 543 733 q 383 601 449 657 q 268 481 318 544 q 189 228 163 346 q 253 156 199 176 q 327 140 286 142 q 411 144 368 138 q 494 165 454 151 q 563 199 533 179 q 615 208 586 214 q 658 178 643 201 q 667 126 674 154 q 638 82 661 97 q 541 35 594 54 q 429 7 488 15 q 346 0 390 0 m 476 1364 q 513 1354 494 1364 q 543 1311 536 1339 q 535 1258 550 1283 q 522 1237 535 1257 q 490 1193 510 1217 q 427 1128 456 1149 q 369 1104 399 1107 q 310 1121 340 1103 q 239 1182 279 1139 q 201 1224 217 1206 q 185 1244 186 1243 q 170 1297 167 1268 q 197 1342 174 1325 q 249 1356 221 1360 q 294 1329 278 1353 q 328 1289 310 1310 q 363 1256 347 1268 q 389 1290 374 1269 q 417 1331 404 1310 q 442 1356 426 1347 q 476 1364 458 1364 z "},"ž":{"ha":629,"x_min":21,"x_max":597,"o":"m 304 4 q 226 10 267 4 q 147 33 185 17 q 75 87 97 56 q 44 143 53 118 q 57 293 21 217 q 143 404 83 349 q 256 488 194 450 q 369 557 317 526 q 374 560 372 560 q 331 560 354 561 q 281 558 308 560 q 219 554 249 557 q 169 549 190 551 q 133 546 147 547 q 119 544 119 544 q 69 558 92 540 q 42 604 46 576 q 56 656 39 632 q 103 682 74 679 q 119 684 104 682 q 160 688 135 686 q 217 693 185 690 q 286 697 250 696 q 404 697 357 700 q 483 688 451 694 q 531 674 514 682 q 560 656 549 665 q 592 585 592 626 q 567 525 590 547 q 528 492 543 503 q 488 466 510 479 q 439 438 465 453 q 335 375 390 410 q 238 301 279 340 q 196 256 210 276 q 178 222 182 236 q 175 197 174 207 q 178 183 176 188 q 204 160 182 169 q 268 145 231 149 q 346 145 306 142 q 425 158 386 149 q 493 181 464 168 q 547 183 519 193 q 585 147 574 174 q 588 94 597 121 q 551 54 578 67 q 460 24 511 36 q 356 7 408 11 q 331 5 344 6 q 304 4 318 4 m 432 1017 q 468 1007 450 1017 q 499 964 492 992 q 490 911 506 936 q 478 890 490 910 q 446 846 465 869 q 383 781 411 801 q 325 757 354 760 q 265 774 296 756 q 194 835 235 792 q 157 877 172 858 q 140 897 142 896 q 126 949 122 921 q 153 994 129 978 q 205 1009 176 1013 q 250 982 233 1006 q 284 942 265 963 q 318 908 303 921 q 344 942 329 922 q 372 983 360 963 q 398 1008 382 1000 q 432 1017 414 1017 z "},"Š":{"ha":697,"x_min":31,"x_max":663,"o":"m 375 0 q 267 15 321 0 q 169 60 214 31 q 68 169 106 100 q 35 335 31 243 q 58 382 38 363 q 108 400 79 401 q 157 376 138 397 q 174 326 176 356 q 246 175 168 228 q 356 140 293 144 q 467 158 418 135 q 521 233 517 185 q 508 303 522 271 q 464 365 493 335 q 392 425 435 394 q 299 490 350 456 q 213 548 256 518 q 138 611 171 578 q 53 796 49 697 q 100 924 57 868 q 201 1004 139 972 q 286 1034 242 1025 q 374 1042 331 1043 q 459 1028 418 1040 q 533 993 500 1015 q 621 885 592 951 q 640 725 649 814 q 615 679 638 697 q 564 664 593 661 q 517 689 536 667 q 501 739 499 711 q 454 878 511 839 q 365 903 418 903 q 263 879 311 903 q 243 868 254 875 q 221 850 232 861 q 201 824 210 839 q 192 790 193 808 q 206 744 190 767 q 247 698 221 721 q 306 652 272 675 q 375 606 339 629 q 474 538 425 574 q 564 460 524 503 q 635 357 613 408 q 658 226 663 293 q 618 110 657 161 q 529 35 586 65 q 375 0 460 0 m 467 1364 q 503 1354 485 1364 q 533 1311 526 1339 q 525 1258 540 1283 q 513 1237 525 1257 q 481 1193 500 1217 q 417 1128 446 1149 q 360 1104 389 1107 q 300 1121 331 1103 q 229 1182 269 1139 q 192 1224 207 1206 q 175 1244 176 1243 q 160 1297 157 1268 q 188 1342 164 1325 q 240 1356 211 1360 q 285 1329 268 1353 q 319 1289 300 1310 q 353 1256 338 1268 q 379 1290 364 1269 q 407 1331 394 1310 q 433 1356 417 1347 q 467 1364 449 1364 z "},"š":{"ha":568,"x_min":36,"x_max":532,"o":"m 303 -1 q 292 -1 297 -1 q 281 0 286 -1 q 133 47 196 4 q 64 122 86 79 q 40 233 36 174 q 65 281 43 263 q 114 299 86 300 q 163 274 143 296 q 179 224 182 253 q 183 194 178 211 q 211 163 188 178 q 249 145 228 151 q 291 138 269 139 q 332 141 313 138 q 367 151 351 144 q 385 164 382 158 q 388 172 388 169 q 376 206 389 189 q 342 240 363 224 q 294 272 321 256 q 242 303 268 288 q 179 339 210 321 q 124 379 149 357 q 53 517 50 440 q 84 601 56 563 q 161 664 113 639 q 227 687 193 679 q 297 693 261 694 q 436 653 381 693 q 500 574 481 621 q 513 468 519 526 q 486 422 508 440 q 435 407 464 404 q 389 433 407 410 q 374 485 371 456 q 369 525 378 514 q 357 539 361 536 q 329 551 346 547 q 294 554 313 554 q 258 551 276 554 q 222 539 239 547 q 200 524 207 532 q 192 510 193 515 q 196 502 192 508 q 213 485 200 496 q 256 454 231 469 q 310 424 282 439 q 382 381 346 403 q 449 331 418 358 q 525 163 532 256 q 497 83 522 118 q 428 26 472 47 q 303 -1 372 -1 m 401 1017 q 438 1007 419 1017 q 468 964 461 992 q 460 911 475 936 q 447 890 460 910 q 415 846 435 869 q 352 781 381 801 q 294 757 324 760 q 235 774 265 756 q 164 835 204 792 q 126 877 142 858 q 110 897 111 896 q 95 949 92 921 q 122 994 99 978 q 174 1009 146 1013 q 219 982 203 1006 q 253 942 235 963 q 288 908 272 921 q 314 942 299 922 q 342 983 329 963 q 367 1008 351 1000 q 401 1017 383 1017 z "},"˙":{"ha":214,"x_min":38,"x_max":176,"o":"m 176 822 q 156 773 176 793 q 107 753 136 753 q 58 773 78 753 q 38 822 38 793 q 58 872 38 851 q 107 892 78 892 q 156 872 136 892 q 176 822 176 851 z "},"˜":{"ha":571,"x_min":40,"x_max":532,"o":"m 390 738 q 322 751 354 738 q 232 817 265 774 q 213 833 224 828 q 194 835 201 838 q 182 804 185 832 q 155 758 178 776 q 104 744 132 740 q 58 770 75 747 q 43 822 40 793 q 81 917 51 879 q 158 969 110 956 q 258 964 207 982 q 343 901 308 946 q 356 888 347 894 q 372 879 364 882 q 387 878 381 876 q 393 892 393 881 q 413 941 393 921 q 463 961 433 961 q 511 941 490 961 q 532 892 532 921 q 508 801 532 840 q 439 746 482 760 q 390 738 415 738 z "},"ã":{"ha":606,"x_min":33,"x_max":557,"o":"m 547 521 q 496 622 536 579 q 396 679 456 664 q 232 665 317 700 q 75 543 143 629 q 59 492 56 519 q 85 446 63 464 q 136 430 108 426 q 183 457 164 433 q 281 535 232 518 q 361 544 329 553 q 411 496 403 536 q 417 442 415 471 q 417 379 418 413 q 231 363 313 383 q 99 299 150 343 q 36 175 39 244 q 56 92 33 131 q 118 29 78 53 q 167 8 138 18 q 238 -1 196 -1 q 317 8 274 -1 q 414 40 361 17 q 438 10 421 22 q 476 -1 456 -1 l 478 -1 q 526 19 506 -1 q 547 68 547 39 q 549 181 547 131 q 553 276 550 232 q 556 410 556 353 q 547 521 557 468 m 407 738 q 339 751 371 738 q 249 817 282 774 q 229 833 240 828 q 211 835 218 838 q 199 804 201 832 q 172 758 194 776 q 121 744 149 740 q 74 770 92 747 q 60 822 57 793 q 97 917 68 879 q 175 969 126 956 q 274 964 224 982 q 360 901 325 946 q 372 888 364 894 q 389 879 381 882 q 403 878 397 876 q 410 892 410 881 q 430 941 410 921 q 479 961 450 961 q 528 941 507 961 q 549 892 549 921 q 525 801 549 840 q 456 746 499 760 q 407 738 432 738 m 189 149 q 175 169 172 158 q 181 183 175 176 q 190 193 186 190 q 269 228 214 214 q 413 240 324 243 l 410 194 q 333 158 369 171 q 265 140 297 144 q 215 140 233 135 q 189 149 196 144 z "},"õ":{"ha":629,"x_min":36,"x_max":606,"o":"m 310 -6 q 296 -4 300 -6 q 182 29 232 -1 q 100 104 133 57 q 38 313 40 190 q 54 441 36 379 q 107 554 72 503 q 201 646 146 610 q 267 675 233 664 q 338 689 300 686 q 388 673 367 692 q 413 625 410 654 q 390 568 415 590 q 432 568 410 575 q 518 517 483 550 q 571 439 551 482 q 586 258 606 357 q 553 159 576 206 q 496 76 531 113 q 408 15 456 36 q 310 -6 360 -6 m 419 738 q 351 751 383 738 q 261 817 294 774 q 242 833 253 828 q 224 835 231 838 q 211 804 214 832 q 184 758 207 776 q 133 744 161 740 q 87 770 104 747 q 72 822 69 793 q 110 917 81 879 q 188 969 139 956 q 287 964 236 982 q 372 901 338 946 q 385 888 376 894 q 401 879 393 882 q 416 878 410 876 q 422 892 422 881 q 442 941 422 921 q 492 961 463 961 q 540 941 519 961 q 561 892 561 921 q 538 801 561 840 q 468 746 511 760 q 419 738 444 738 m 349 550 q 270 524 303 546 q 217 468 238 501 q 186 394 196 435 q 176 314 176 354 q 186 242 176 276 q 214 185 196 208 q 303 133 247 138 l 308 133 q 360 147 336 133 q 402 181 383 160 q 433 228 421 201 q 450 285 444 256 q 443 385 461 340 q 389 436 426 424 q 348 470 361 444 q 344 524 335 496 q 351 538 347 531 q 363 551 356 546 q 349 550 353 551 z "},"ñ":{"ha":663,"x_min":50,"x_max":615,"o":"m 531 -1 l 526 -1 q 478 23 497 1 q 461 72 458 44 q 467 258 468 176 q 458 400 467 340 q 436 494 450 464 q 411 538 422 525 q 371 554 396 554 q 335 544 351 554 q 306 517 319 533 q 282 481 293 501 q 263 442 271 461 q 216 279 235 375 q 190 64 197 183 q 167 17 188 36 q 118 -1 146 -3 q 70 21 90 0 q 51 69 50 42 q 54 180 53 128 q 58 283 56 232 q 63 449 61 367 q 67 625 65 531 q 88 673 67 653 q 138 693 108 693 q 185 672 165 693 q 206 622 206 651 l 206 613 q 291 677 247 661 q 371 693 335 693 q 449 678 413 693 q 513 632 485 663 q 594 430 574 567 q 600 64 615 293 q 578 17 597 36 q 531 -1 558 -1 m 436 738 q 368 751 400 738 q 278 817 311 774 q 258 833 269 828 q 240 835 247 838 q 228 804 231 832 q 201 758 224 776 q 150 744 178 740 q 103 770 121 747 q 89 822 86 793 q 126 917 97 879 q 204 969 156 956 q 303 964 253 982 q 389 901 354 946 q 401 888 393 894 q 418 879 410 882 q 433 878 426 876 q 439 892 439 881 q 459 941 439 921 q 508 961 479 961 q 557 941 536 961 q 578 892 578 921 q 554 801 578 840 q 485 746 528 760 q 436 738 461 738 z "},"Ã":{"ha":711,"x_min":44,"x_max":669,"o":"m 654 443 q 606 743 638 617 q 490 982 563 910 q 351 1042 431 1044 q 204 975 267 1039 q 109 799 146 914 q 57 508 72 685 q 48 380 50 443 q 45 263 46 317 q 45 166 44 208 q 46 100 46 124 l 46 78 q 66 28 46 49 q 115 8 86 8 q 165 28 144 8 q 185 78 185 49 l 185 103 q 183 133 183 115 q 183 175 183 151 q 292 167 242 169 q 389 164 343 164 q 529 172 467 164 q 530 99 531 126 q 529 71 529 72 q 549 22 529 43 q 597 0 569 1 l 599 0 q 648 20 628 0 q 668 68 668 40 q 669 102 668 71 q 668 185 669 133 q 664 303 667 236 q 654 443 661 369 m 186 314 l 185 314 q 188 403 186 357 q 194 496 190 449 q 218 660 204 593 q 247 772 232 728 q 278 842 263 817 q 304 878 293 867 q 332 899 319 894 q 354 903 344 903 q 370 900 361 903 q 392 885 379 897 q 428 830 407 869 q 471 708 450 790 q 515 432 501 593 q 524 311 521 369 q 378 303 461 303 q 186 314 294 303 m 460 1085 q 392 1099 424 1085 q 301 1164 335 1121 q 282 1180 293 1175 q 264 1182 271 1185 q 251 1151 254 1179 q 224 1106 247 1124 q 174 1092 201 1088 q 127 1117 144 1094 q 113 1169 110 1140 q 150 1264 121 1226 q 228 1317 179 1303 q 327 1311 276 1329 q 413 1249 378 1293 q 425 1235 417 1242 q 442 1226 433 1229 q 456 1226 450 1224 q 463 1239 463 1228 q 483 1288 463 1268 q 532 1308 503 1308 q 581 1288 560 1308 q 601 1239 601 1268 q 578 1149 601 1188 q 508 1093 551 1107 q 460 1085 485 1085 z "},"Ñ":{"ha":867,"x_min":51,"x_max":817,"o":"m 513 1 q 378 44 440 1 q 192 369 260 126 q 191 262 192 313 q 190 172 190 211 q 190 108 190 133 q 190 76 190 82 q 169 27 190 47 q 121 7 149 7 q 72 27 92 7 q 51 76 51 47 q 51 131 51 86 q 52 241 51 175 q 53 388 53 307 q 56 551 54 468 q 61 719 58 646 q 67 846 64 793 q 72 903 69 879 q 76 947 74 928 l 85 985 q 117 1030 96 1019 q 149 1043 138 1040 q 201 1028 181 1046 q 228 992 221 1013 q 239 942 235 971 l 250 846 q 275 658 261 763 q 315 449 289 553 q 352 327 333 378 q 390 242 371 276 q 425 188 408 208 q 457 158 442 168 q 542 144 493 132 q 602 184 578 153 q 642 258 626 215 q 664 352 657 301 q 674 451 671 403 q 675 581 678 515 q 667 708 672 647 q 656 819 663 768 q 644 906 649 871 q 638 951 640 938 q 636 974 636 965 q 657 1023 636 1003 q 706 1043 678 1043 q 755 1023 735 1043 q 775 975 775 1003 l 782 925 q 794 835 788 889 q 806 717 801 782 q 814 583 811 653 q 813 443 817 513 q 760 179 804 283 q 689 72 732 114 q 574 8 642 25 q 543 3 558 6 q 513 1 528 1 m 538 1085 q 469 1099 501 1085 q 379 1164 413 1121 q 360 1180 371 1175 q 342 1182 349 1185 q 329 1151 332 1179 q 302 1106 325 1124 q 251 1092 279 1088 q 205 1117 222 1094 q 190 1169 188 1140 q 228 1264 199 1226 q 306 1317 257 1303 q 405 1311 354 1329 q 490 1249 456 1293 q 503 1235 494 1242 q 519 1226 511 1229 q 534 1226 528 1224 q 540 1239 540 1228 q 560 1288 540 1268 q 610 1308 581 1308 q 658 1288 638 1308 q 679 1239 679 1268 q 656 1149 679 1188 q 586 1093 629 1107 q 538 1085 563 1085 z "},"Õ":{"ha":840,"x_min":35,"x_max":803,"o":"m 410 0 q 392 1 397 0 q 235 50 307 6 q 124 161 168 93 q 61 303 83 224 q 38 471 39 382 q 60 661 35 572 q 90 754 72 710 q 133 838 108 799 q 265 975 188 922 q 456 1042 350 1031 q 506 1026 483 1044 q 531 979 528 1007 q 515 928 533 950 q 468 903 496 906 q 339 856 394 896 q 247 756 283 817 q 193 622 211 696 q 176 474 175 549 q 192 355 178 414 q 233 249 206 296 q 301 172 260 203 q 400 139 343 142 l 408 139 q 495 165 456 139 q 566 232 535 190 q 619 326 597 274 q 651 431 640 378 q 662 553 664 493 q 644 663 660 613 q 539 786 614 761 q 499 822 511 796 q 497 875 486 847 q 532 915 507 903 q 585 918 557 928 q 708 832 660 890 q 749 774 732 806 q 778 704 765 742 q 801 560 799 638 q 788 403 803 483 q 738 250 771 322 q 660 125 706 178 q 543 32 606 63 q 410 0 476 0 m 525 1085 q 457 1099 489 1085 q 367 1164 400 1121 q 347 1180 358 1175 q 329 1182 336 1185 q 317 1151 319 1179 q 290 1106 313 1124 q 239 1092 267 1088 q 192 1117 210 1094 q 178 1169 175 1140 q 215 1264 186 1226 q 293 1317 244 1303 q 392 1311 342 1329 q 478 1249 443 1293 q 490 1235 482 1242 q 507 1226 499 1229 q 522 1226 515 1224 q 528 1239 528 1228 q 548 1288 528 1268 q 597 1308 568 1308 q 646 1288 625 1308 q 667 1239 667 1268 q 643 1149 667 1188 q 574 1093 617 1107 q 525 1085 550 1085 z "},"æ":{"ha":1053,"x_min":42,"x_max":1007,"o":"m 756 -6 q 726 -4 740 -6 q 696 0 711 -3 q 556 67 617 15 q 534 18 554 38 q 486 -1 514 -1 l 485 -1 q 447 10 464 -1 q 422 40 429 22 q 326 8 369 17 q 246 -1 282 -1 q 175 8 204 -1 q 126 29 146 18 q 64 92 86 53 q 44 175 42 131 q 107 299 47 244 q 240 363 158 343 q 425 379 321 383 q 425 442 426 413 q 419 496 424 471 q 369 544 411 536 q 289 535 338 553 q 192 457 240 518 q 144 430 172 433 q 93 446 117 426 q 67 492 71 464 q 83 543 64 519 q 240 665 151 629 q 404 679 325 700 q 481 643 447 668 q 533 582 514 618 l 539 588 q 631 658 579 632 q 742 689 683 685 q 894 650 828 696 q 953 588 931 625 q 982 507 975 551 q 964 403 989 454 q 935 352 953 376 q 894 308 918 328 q 851 277 878 293 q 789 249 825 261 q 706 230 753 236 q 603 231 660 224 q 632 187 615 204 q 666 159 649 169 q 699 144 683 149 q 722 138 714 139 q 813 144 771 128 q 868 194 854 160 q 906 233 879 222 q 958 232 932 243 q 997 195 986 221 q 996 142 1007 169 q 869 18 963 57 q 756 -6 815 -6 m 589 374 q 669 367 633 365 q 730 376 704 368 q 774 394 756 383 q 803 414 792 404 q 838 458 829 436 q 843 488 846 479 q 827 525 840 513 q 799 544 814 538 q 769 550 783 550 q 750 550 756 550 q 642 494 686 546 q 589 374 600 449 m 197 149 q 223 140 204 144 q 274 140 242 135 q 342 158 306 144 q 418 194 378 171 l 421 240 q 277 228 332 243 q 199 193 222 214 q 189 183 194 190 q 183 169 183 176 q 197 149 181 158 z "},"˚":{"ha":410,"x_min":29,"x_max":372,"o":"m 188 689 q 139 697 160 689 q 104 715 118 706 q 44 808 60 750 q 60 950 29 882 q 108 1014 78 989 q 178 1049 139 1039 q 254 1049 218 1060 q 318 1011 290 1039 q 362 922 351 975 q 357 815 372 868 q 308 735 342 767 q 225 693 274 704 q 188 689 204 689 m 217 943 q 206 942 210 943 q 176 925 188 938 q 158 897 164 913 q 151 865 151 882 q 153 835 150 849 q 163 812 157 819 q 176 801 169 804 q 190 799 183 799 q 201 801 197 800 q 251 849 239 810 q 253 898 258 874 q 238 935 249 922 q 217 943 229 943 z "},"Å":{"ha":711,"x_min":44,"x_max":669,"o":"m 654 443 q 606 743 638 617 q 490 982 563 910 q 351 1042 431 1044 q 204 975 267 1039 q 109 799 146 914 q 57 508 72 685 q 48 380 50 443 q 45 263 46 317 q 45 166 44 208 q 46 100 46 124 l 46 78 q 66 28 46 49 q 115 8 86 8 q 165 28 144 8 q 185 78 185 49 l 185 103 q 183 133 183 115 q 183 175 183 151 q 292 167 242 169 q 389 164 343 164 q 529 172 467 164 q 530 99 531 126 q 529 71 529 72 q 549 22 529 43 q 597 0 569 1 l 599 0 q 648 20 628 0 q 668 68 668 40 q 669 102 668 71 q 668 185 669 133 q 664 303 667 236 q 654 443 661 369 m 186 314 l 185 314 q 188 403 186 357 q 194 496 190 449 q 218 660 204 593 q 247 772 232 728 q 278 842 263 817 q 304 878 293 867 q 332 899 319 894 q 354 903 344 903 q 370 900 361 903 q 392 885 379 897 q 428 830 407 869 q 471 708 450 790 q 515 432 501 593 q 524 311 521 369 q 378 303 461 303 q 186 314 294 303 m 340 1078 q 292 1086 313 1078 q 257 1104 271 1094 q 197 1197 213 1139 q 213 1339 182 1271 q 261 1403 231 1378 q 331 1438 292 1428 q 407 1438 371 1449 q 471 1400 443 1428 q 515 1310 504 1364 q 510 1204 525 1257 q 460 1124 494 1156 q 378 1082 426 1093 q 340 1078 357 1078 m 369 1332 q 358 1331 363 1332 q 328 1314 340 1326 q 310 1286 317 1301 q 303 1254 304 1271 q 306 1224 303 1238 q 316 1201 310 1208 q 329 1190 322 1193 q 343 1188 336 1188 q 354 1190 350 1189 q 404 1238 392 1199 q 406 1287 411 1263 q 390 1324 401 1311 q 369 1332 382 1332 z "},"å":{"ha":606,"x_min":33,"x_max":557,"o":"m 547 521 q 496 622 536 579 q 396 679 456 664 q 232 665 317 700 q 75 543 143 629 q 59 492 56 519 q 85 446 63 464 q 136 430 108 426 q 183 457 164 433 q 281 535 232 518 q 361 544 329 553 q 411 496 403 536 q 417 442 415 471 q 417 379 418 413 q 231 363 313 383 q 99 299 150 343 q 36 175 39 244 q 56 92 33 131 q 118 29 78 53 q 167 8 138 18 q 238 -1 196 -1 q 317 8 274 -1 q 414 40 361 17 q 438 10 421 22 q 476 -1 456 -1 l 478 -1 q 526 19 506 -1 q 547 68 547 39 q 549 181 547 131 q 553 276 550 232 q 556 410 556 353 q 547 521 557 468 m 321 728 q 272 736 293 728 q 238 754 251 744 q 178 847 193 789 q 193 989 163 921 q 242 1053 211 1028 q 311 1088 272 1078 q 388 1088 351 1099 q 451 1050 424 1078 q 495 960 485 1014 q 490 854 506 907 q 441 774 475 806 q 358 732 407 743 q 321 728 338 728 m 189 149 q 175 169 172 158 q 181 183 175 176 q 190 193 186 190 q 269 228 214 214 q 413 240 324 243 l 410 194 q 333 158 369 171 q 265 140 297 144 q 215 140 233 135 q 189 149 196 144 m 350 982 q 339 981 343 982 q 309 964 321 976 q 291 936 297 951 q 284 904 285 921 q 286 874 283 888 q 297 851 290 858 q 310 840 303 843 q 324 838 317 838 q 335 840 331 839 q 385 888 372 849 q 387 937 392 913 q 371 974 382 961 q 350 982 363 982 z "},"`":{"ha":338,"x_min":25,"x_max":318,"o":"m 243 739 q 211 746 228 739 l 147 783 q 43 874 75 831 q 29 925 25 897 q 57 971 33 953 q 108 985 81 989 q 154 957 136 981 q 176 934 161 946 q 208 910 190 922 q 243 888 225 899 q 275 869 261 876 q 310 828 301 856 q 304 776 318 801 q 278 749 294 758 q 243 739 263 739 z "},"´":{"ha":339,"x_min":19,"x_max":313,"o":"m 94 739 q 59 749 75 739 q 33 776 43 758 q 28 828 19 801 q 63 869 36 856 q 94 888 76 876 q 130 910 113 899 q 162 934 147 922 q 183 957 176 946 q 229 985 201 981 q 281 971 257 989 q 308 925 304 953 q 294 874 313 897 q 190 783 263 831 l 126 746 q 94 739 110 739 z "},"à":{"ha":606,"x_min":33,"x_max":557,"o":"m 547 521 q 496 622 536 579 q 396 679 456 664 q 232 665 317 700 q 75 543 143 629 q 59 492 56 519 q 85 446 63 464 q 136 430 108 426 q 183 457 164 433 q 281 535 232 518 q 361 544 329 553 q 411 496 403 536 q 417 442 415 471 q 417 379 418 413 q 231 363 313 383 q 99 299 150 343 q 36 175 39 244 q 56 92 33 131 q 118 29 78 53 q 167 8 138 18 q 238 -1 196 -1 q 317 8 274 -1 q 414 40 361 17 q 438 10 421 22 q 476 -1 456 -1 l 478 -1 q 526 19 506 -1 q 547 68 547 39 q 549 181 547 131 q 553 276 550 232 q 556 410 556 353 q 547 521 557 468 m 375 739 q 343 746 360 739 l 279 783 q 175 874 207 831 q 161 925 157 897 q 189 971 165 953 q 240 985 213 989 q 286 957 268 981 q 308 934 293 946 q 340 910 322 922 q 375 888 357 899 q 407 869 393 876 q 442 828 433 856 q 436 776 450 801 q 410 749 426 758 q 375 739 394 739 m 189 149 q 175 169 172 158 q 181 183 175 176 q 190 193 186 190 q 269 228 214 214 q 413 240 324 243 l 410 194 q 333 158 369 171 q 265 140 297 144 q 215 140 233 135 q 189 149 196 144 z "},"á":{"ha":606,"x_min":33,"x_max":557,"o":"m 547 521 q 496 622 536 579 q 396 679 456 664 q 232 665 317 700 q 75 543 143 629 q 59 492 56 519 q 85 446 63 464 q 136 430 108 426 q 183 457 164 433 q 281 535 232 518 q 361 544 329 553 q 411 496 403 536 q 417 442 415 471 q 417 379 418 413 q 231 363 313 383 q 99 299 150 343 q 36 175 39 244 q 56 92 33 131 q 118 29 78 53 q 167 8 138 18 q 238 -1 196 -1 q 317 8 274 -1 q 414 40 361 17 q 438 10 421 22 q 476 -1 456 -1 l 478 -1 q 526 19 506 -1 q 547 68 547 39 q 549 181 547 131 q 553 276 550 232 q 556 410 556 353 q 547 521 557 468 m 306 739 q 270 749 286 739 q 244 776 254 758 q 239 828 231 801 q 274 869 247 856 q 306 888 288 876 q 341 910 324 899 q 373 934 358 922 q 394 957 388 946 q 440 985 413 981 q 492 971 468 989 q 519 925 515 953 q 506 874 524 897 q 401 783 474 831 l 338 746 q 306 739 321 739 m 189 149 q 175 169 172 158 q 181 183 175 176 q 190 193 186 190 q 269 228 214 214 q 413 240 324 243 l 410 194 q 333 158 369 171 q 265 140 297 144 q 215 140 233 135 q 189 149 196 144 z "},"è":{"ha":638,"x_min":36,"x_max":597,"o":"m 346 -6 q 316 -4 331 -6 q 286 0 301 -3 q 113 100 181 22 q 36 314 40 185 l 36 324 q 44 415 36 374 q 67 489 53 457 q 97 546 81 521 q 129 588 113 571 q 222 658 169 632 q 332 689 274 685 q 485 650 418 696 q 543 588 521 625 q 572 507 565 551 q 554 403 579 454 q 526 352 543 376 q 485 308 508 328 q 442 277 468 293 q 379 249 415 261 q 297 230 343 236 q 193 231 250 224 q 222 187 206 204 q 256 159 239 169 q 289 144 274 149 q 313 138 304 139 q 403 144 361 128 q 458 194 444 160 q 496 233 469 222 q 549 232 522 243 q 587 195 576 221 q 586 142 597 169 q 460 18 553 57 q 346 -6 406 -6 m 360 739 q 328 746 344 739 l 264 783 q 160 874 192 831 q 146 925 142 897 q 174 971 150 953 q 225 985 197 989 q 271 957 253 981 q 292 934 278 946 q 324 910 307 922 q 360 888 342 899 q 392 869 378 876 q 426 828 418 856 q 421 776 435 801 q 395 749 411 758 q 360 739 379 739 m 179 374 q 259 367 224 365 q 320 376 294 368 q 364 394 346 383 q 393 414 382 404 q 428 458 419 436 q 433 488 436 479 q 417 525 431 513 q 389 544 404 538 q 360 550 374 550 q 340 550 346 550 q 232 494 276 546 q 179 374 190 449 z "},"é":{"ha":638,"x_min":36,"x_max":597,"o":"m 346 -6 q 316 -4 331 -6 q 286 0 301 -3 q 113 100 181 22 q 36 314 40 185 l 36 324 q 44 415 36 374 q 67 489 53 457 q 97 546 81 521 q 129 588 113 571 q 222 658 169 632 q 332 689 274 685 q 485 650 418 696 q 543 588 521 625 q 572 507 565 551 q 554 403 579 454 q 526 352 543 376 q 485 308 508 328 q 442 277 468 293 q 379 249 415 261 q 297 230 343 236 q 193 231 250 224 q 222 187 206 204 q 256 159 239 169 q 289 144 274 149 q 313 138 304 139 q 403 144 361 128 q 458 194 444 160 q 496 233 469 222 q 549 232 522 243 q 587 195 576 221 q 586 142 597 169 q 460 18 553 57 q 346 -6 406 -6 m 285 739 q 249 749 265 739 q 224 776 233 758 q 218 828 210 801 q 253 869 226 856 q 285 888 267 876 q 320 910 303 899 q 352 934 338 922 q 374 957 367 946 q 419 985 392 981 q 471 971 447 989 q 499 925 494 953 q 485 874 503 897 q 381 783 453 831 l 317 746 q 285 739 300 739 m 179 374 q 259 367 224 365 q 320 376 294 368 q 364 394 346 383 q 393 414 382 404 q 428 458 419 436 q 433 488 436 479 q 417 525 431 513 q 389 544 404 538 q 360 550 374 550 q 340 550 346 550 q 232 494 276 546 q 179 374 190 449 z "},"ì":{"ha":357,"x_min":15,"x_max":321,"o":"m 236 -1 l 235 -1 q 185 21 206 0 q 167 69 165 42 l 172 283 q 178 449 175 367 q 181 624 181 531 q 202 673 182 653 q 251 693 222 693 q 301 672 281 693 q 319 624 321 651 q 317 445 319 528 q 311 278 314 363 l 306 67 q 284 19 304 39 q 236 -1 264 -1 m 233 739 q 201 746 218 739 l 138 783 q 33 874 65 831 q 19 925 15 897 q 47 971 24 953 q 99 985 71 989 q 144 957 126 981 q 166 934 151 946 q 198 910 181 922 q 233 888 215 899 q 265 869 251 876 q 300 828 292 856 q 294 776 308 801 q 269 749 285 758 q 233 739 253 739 z "},"í":{"ha":364,"x_min":36,"x_max":350,"o":"m 107 -1 l 106 -1 q 56 21 76 0 q 38 69 36 42 l 43 283 q 49 449 46 367 q 51 624 51 531 q 73 673 53 653 q 122 693 93 693 q 172 672 151 693 q 190 624 192 651 q 188 445 190 528 q 182 278 185 363 l 176 67 q 155 19 175 39 q 107 -1 135 -1 m 132 739 q 97 749 113 739 q 71 776 81 758 q 65 828 57 801 q 100 869 74 856 q 132 888 114 876 q 167 910 150 899 q 199 934 185 922 q 221 957 214 946 q 267 985 239 981 q 318 971 294 989 q 346 925 342 953 q 332 874 350 897 q 228 783 300 831 l 164 746 q 132 739 147 739 z "},"ò":{"ha":629,"x_min":36,"x_max":606,"o":"m 310 -6 q 296 -4 300 -6 q 182 29 232 -1 q 100 104 133 57 q 38 313 40 190 q 54 441 36 379 q 107 554 72 503 q 201 646 146 610 q 267 675 233 664 q 338 689 300 686 q 388 673 367 692 q 413 625 410 654 q 390 568 415 590 q 432 568 410 575 q 518 517 483 550 q 571 439 551 482 q 586 258 606 357 q 553 159 576 206 q 496 76 531 113 q 408 15 456 36 q 310 -6 360 -6 m 349 550 q 270 524 303 546 q 217 468 238 501 q 186 394 196 435 q 176 314 176 354 q 186 242 176 276 q 214 185 196 208 q 303 133 247 138 l 308 133 q 360 147 336 133 q 402 181 383 160 q 433 228 421 201 q 450 285 444 256 q 443 385 461 340 q 389 436 426 424 q 348 470 361 444 q 344 524 335 496 q 351 538 347 531 q 363 551 356 546 q 349 550 353 551 m 349 739 q 317 746 333 739 l 253 783 q 149 874 181 831 q 135 925 131 897 q 163 971 139 953 q 214 985 186 989 q 260 957 242 981 q 281 934 267 946 q 313 910 296 922 q 349 888 331 899 q 381 869 367 876 q 415 828 407 856 q 410 776 424 801 q 384 749 400 758 q 349 739 368 739 z "},"ó":{"ha":629,"x_min":36,"x_max":606,"o":"m 310 -6 q 296 -4 300 -6 q 182 29 232 -1 q 100 104 133 57 q 38 313 40 190 q 54 441 36 379 q 107 554 72 503 q 201 646 146 610 q 267 675 233 664 q 338 689 300 686 q 388 673 367 692 q 413 625 410 654 q 390 568 415 590 q 432 568 410 575 q 518 517 483 550 q 571 439 551 482 q 586 258 606 357 q 553 159 576 206 q 496 76 531 113 q 408 15 456 36 q 310 -6 360 -6 m 349 550 q 270 524 303 546 q 217 468 238 501 q 186 394 196 435 q 176 314 176 354 q 186 242 176 276 q 214 185 196 208 q 303 133 247 138 l 308 133 q 360 147 336 133 q 402 181 383 160 q 433 228 421 201 q 450 285 444 256 q 443 385 461 340 q 389 436 426 424 q 348 470 361 444 q 344 524 335 496 q 351 538 347 531 q 363 551 356 546 q 349 550 353 551 m 294 739 q 259 749 275 739 q 233 776 243 758 q 228 828 219 801 q 263 869 236 856 q 294 888 276 876 q 330 910 313 899 q 362 934 347 922 q 383 957 376 946 q 429 985 401 981 q 481 971 457 989 q 508 925 504 953 q 494 874 513 897 q 390 783 463 831 l 326 746 q 294 739 310 739 z "},"ù":{"ha":664,"x_min":47,"x_max":613,"o":"m 132 692 l 136 692 q 185 667 165 689 q 201 618 204 646 q 195 432 194 514 q 204 290 196 350 q 226 196 213 226 q 251 153 240 165 q 292 136 267 136 q 326 147 310 136 q 356 173 343 157 q 381 209 369 189 q 400 249 392 229 q 447 411 428 315 q 472 626 465 507 q 496 674 475 654 q 544 692 517 693 q 592 669 572 690 q 611 621 613 649 q 608 510 610 563 q 604 407 607 458 q 599 242 601 324 q 596 65 597 160 q 575 17 596 38 q 525 -3 554 -3 q 477 18 497 -3 q 457 68 457 39 l 457 78 q 372 13 415 29 q 292 -3 328 -3 q 214 13 250 -3 q 150 58 178 28 q 68 260 89 122 q 63 626 47 397 q 85 673 65 654 q 132 692 104 692 m 365 739 q 333 746 350 739 l 269 783 q 165 874 197 831 q 151 925 147 897 q 179 971 156 953 q 231 985 203 989 q 276 957 258 981 q 298 934 283 946 q 330 910 313 922 q 365 888 347 899 q 397 869 383 876 q 432 828 424 856 q 426 776 440 801 q 401 749 417 758 q 365 739 385 739 z "},"ú":{"ha":664,"x_min":47,"x_max":613,"o":"m 132 692 l 136 692 q 185 667 165 689 q 201 618 204 646 q 195 432 194 514 q 204 290 196 350 q 226 196 213 226 q 251 153 240 165 q 292 136 267 136 q 326 147 310 136 q 356 173 343 157 q 381 209 369 189 q 400 249 392 229 q 447 411 428 315 q 472 626 465 507 q 496 674 475 654 q 544 692 517 693 q 592 669 572 690 q 611 621 613 649 q 608 510 610 563 q 604 407 607 458 q 599 242 601 324 q 596 65 597 160 q 575 17 596 38 q 525 -3 554 -3 q 477 18 497 -3 q 457 68 457 39 l 457 78 q 372 13 415 29 q 292 -3 328 -3 q 214 13 250 -3 q 150 58 178 28 q 68 260 89 122 q 63 626 47 397 q 85 673 65 654 q 132 692 104 692 m 293 739 q 258 749 274 739 q 232 776 242 758 q 226 828 218 801 q 261 869 235 856 q 293 888 275 876 q 328 910 311 899 q 360 934 346 922 q 382 957 375 946 q 428 985 400 981 q 479 971 456 989 q 507 925 503 953 q 493 874 511 897 q 389 783 461 831 l 325 746 q 293 739 308 739 z "},"ý":{"ha":614,"x_min":29,"x_max":594,"o":"m 533 690 q 482 678 506 696 q 453 633 458 661 q 435 549 446 597 q 408 443 424 500 q 375 324 393 386 q 338 199 357 263 q 278 347 308 269 q 224 491 249 425 q 185 601 200 557 q 171 646 171 644 q 135 686 161 674 q 82 689 110 699 q 42 655 54 681 q 39 601 29 629 q 51 565 40 597 q 80 484 63 533 q 119 374 97 435 q 167 249 142 313 q 217 127 192 186 q 267 24 243 68 q 278 7 271 14 q 238 -122 257 -62 q 203 -227 218 -182 q 178 -299 188 -272 q 169 -326 169 -325 q 174 -380 161 -354 q 214 -414 186 -406 q 236 -418 224 -418 q 276 -406 258 -418 q 301 -371 294 -393 q 323 -306 304 -364 q 370 -161 342 -249 q 432 33 399 -74 q 497 247 465 140 q 553 450 528 354 q 589 610 578 546 q 578 661 594 638 q 533 690 561 685 m 282 739 q 247 749 263 739 q 221 776 231 758 q 215 828 207 801 q 250 869 224 856 q 282 888 264 876 q 317 910 300 899 q 349 934 335 922 q 371 957 364 946 q 417 985 389 981 q 468 971 444 989 q 496 925 492 953 q 482 874 500 897 q 378 783 450 831 l 314 746 q 282 739 297 739 z "},"À":{"ha":711,"x_min":44,"x_max":669,"o":"m 654 443 q 606 743 638 617 q 490 982 563 910 q 351 1042 431 1044 q 204 975 267 1039 q 109 799 146 914 q 57 508 72 685 q 48 380 50 443 q 45 263 46 317 q 45 166 44 208 q 46 100 46 124 l 46 78 q 66 28 46 49 q 115 8 86 8 q 165 28 144 8 q 185 78 185 49 l 185 103 q 183 133 183 115 q 183 175 183 151 q 292 167 242 169 q 389 164 343 164 q 529 172 467 164 q 530 99 531 126 q 529 71 529 72 q 549 22 529 43 q 597 0 569 1 l 599 0 q 648 20 628 0 q 668 68 668 40 q 669 102 668 71 q 668 185 669 133 q 664 303 667 236 q 654 443 661 369 m 186 314 l 185 314 q 188 403 186 357 q 194 496 190 449 q 218 660 204 593 q 247 772 232 728 q 278 842 263 817 q 304 878 293 867 q 332 899 319 894 q 354 903 344 903 q 370 900 361 903 q 392 885 379 897 q 428 830 407 869 q 471 708 450 790 q 515 432 501 593 q 524 311 521 369 q 378 303 461 303 q 186 314 294 303 m 392 1100 q 360 1107 376 1100 l 296 1144 q 192 1235 224 1192 q 178 1286 174 1258 q 206 1332 182 1314 q 257 1346 229 1350 q 303 1318 285 1342 q 324 1295 310 1307 q 356 1272 339 1283 q 392 1249 374 1260 q 424 1231 410 1238 q 458 1190 450 1217 q 453 1138 467 1163 q 427 1110 443 1119 q 392 1100 411 1100 z "},"Á":{"ha":711,"x_min":44,"x_max":669,"o":"m 654 443 q 606 743 638 617 q 490 982 563 910 q 351 1042 431 1044 q 204 975 267 1039 q 109 799 146 914 q 57 508 72 685 q 48 380 50 443 q 45 263 46 317 q 45 166 44 208 q 46 100 46 124 l 46 78 q 66 28 46 49 q 115 8 86 8 q 165 28 144 8 q 185 78 185 49 l 185 103 q 183 133 183 115 q 183 175 183 151 q 292 167 242 169 q 389 164 343 164 q 529 172 467 164 q 530 99 531 126 q 529 71 529 72 q 549 22 529 43 q 597 0 569 1 l 599 0 q 648 20 628 0 q 668 68 668 40 q 669 102 668 71 q 668 185 669 133 q 664 303 667 236 q 654 443 661 369 m 186 314 l 185 314 q 188 403 186 357 q 194 496 190 449 q 218 660 204 593 q 247 772 232 728 q 278 842 263 817 q 304 878 293 867 q 332 899 319 894 q 354 903 344 903 q 370 900 361 903 q 392 885 379 897 q 428 830 407 869 q 471 708 450 790 q 515 432 501 593 q 524 311 521 369 q 378 303 461 303 q 186 314 294 303 m 322 1100 q 287 1110 303 1100 q 261 1138 271 1119 q 256 1190 247 1163 q 290 1231 264 1217 q 322 1249 304 1238 q 358 1272 340 1260 q 390 1295 375 1283 q 411 1318 404 1307 q 457 1346 429 1342 q 508 1332 485 1350 q 536 1286 532 1314 q 522 1235 540 1258 q 418 1144 490 1192 l 354 1107 q 322 1100 338 1100 z "},"È":{"ha":786,"x_min":51,"x_max":750,"o":"m 746 107 q 720 153 743 136 q 668 168 697 171 q 649 165 668 168 q 599 160 631 163 q 528 153 568 157 q 444 146 488 149 q 276 139 332 138 q 199 143 219 140 q 194 228 196 171 q 192 386 193 286 q 268 385 224 386 q 364 385 313 385 q 522 388 443 385 q 651 399 601 390 q 697 426 681 403 q 708 478 714 450 q 681 524 704 507 q 629 535 657 540 q 533 526 592 529 q 412 524 475 524 q 289 524 349 524 q 192 525 229 525 l 192 529 q 193 749 192 653 q 197 893 194 844 q 272 899 221 896 q 421 903 324 903 q 501 902 463 903 q 568 900 539 901 q 615 898 597 899 q 633 897 633 897 l 636 897 q 684 917 664 897 q 706 964 704 936 q 688 1014 707 993 q 639 1036 668 1035 q 615 1037 638 1036 q 558 1039 593 1038 q 478 1041 524 1040 q 386 1042 433 1042 q 206 1033 272 1042 q 166 1028 183 1031 q 135 1022 149 1025 q 80 990 94 1010 q 63 950 65 969 q 58 890 60 936 q 55 781 56 843 q 53 651 54 719 q 53 524 53 582 q 52 372 51 442 q 54 247 53 301 q 58 168 56 199 q 62 119 60 138 q 65 90 64 100 q 69 75 67 81 q 147 13 86 29 q 182 6 163 8 q 226 1 201 3 q 254 0 239 0 q 286 0 269 0 q 419 4 344 0 q 517 11 469 7 q 601 19 564 15 q 660 26 638 24 q 686 29 683 29 q 732 56 714 33 q 746 107 750 79 m 454 1100 q 422 1107 439 1100 l 358 1144 q 254 1235 286 1192 q 240 1286 236 1258 q 268 1332 244 1314 q 319 1346 292 1350 q 365 1318 347 1342 q 387 1295 372 1307 q 419 1272 401 1283 q 454 1249 436 1260 q 486 1231 472 1238 q 521 1190 513 1217 q 515 1138 529 1163 q 490 1110 506 1119 q 454 1100 474 1100 z "},"É":{"ha":786,"x_min":51,"x_max":750,"o":"m 746 107 q 720 153 743 136 q 668 168 697 171 q 649 165 668 168 q 599 160 631 163 q 528 153 568 157 q 444 146 488 149 q 276 139 332 138 q 199 143 219 140 q 194 228 196 171 q 192 386 193 286 q 268 385 224 386 q 364 385 313 385 q 522 388 443 385 q 651 399 601 390 q 697 426 681 403 q 708 478 714 450 q 681 524 704 507 q 629 535 657 540 q 533 526 592 529 q 412 524 475 524 q 289 524 349 524 q 192 525 229 525 l 192 529 q 193 749 192 653 q 197 893 194 844 q 272 899 221 896 q 421 903 324 903 q 501 902 463 903 q 568 900 539 901 q 615 898 597 899 q 633 897 633 897 l 636 897 q 684 917 664 897 q 706 964 704 936 q 688 1014 707 993 q 639 1036 668 1035 q 615 1037 638 1036 q 558 1039 593 1038 q 478 1041 524 1040 q 386 1042 433 1042 q 206 1033 272 1042 q 166 1028 183 1031 q 135 1022 149 1025 q 80 990 94 1010 q 63 950 65 969 q 58 890 60 936 q 55 781 56 843 q 53 651 54 719 q 53 524 53 582 q 52 372 51 442 q 54 247 53 301 q 58 168 56 199 q 62 119 60 138 q 65 90 64 100 q 69 75 67 81 q 147 13 86 29 q 182 6 163 8 q 226 1 201 3 q 254 0 239 0 q 286 0 269 0 q 419 4 344 0 q 517 11 469 7 q 601 19 564 15 q 660 26 638 24 q 686 29 683 29 q 732 56 714 33 q 746 107 750 79 m 342 1100 q 306 1110 322 1100 q 281 1138 290 1119 q 275 1190 267 1163 q 310 1231 283 1217 q 342 1249 324 1238 q 377 1272 360 1260 q 409 1295 394 1283 q 431 1318 424 1307 q 476 1346 449 1342 q 528 1332 504 1350 q 556 1286 551 1314 q 542 1235 560 1258 q 438 1144 510 1192 l 374 1107 q 342 1100 357 1100 z "},"Ì":{"ha":843,"x_min":39,"x_max":806,"o":"m 804 76 q 783 126 804 106 q 733 144 763 146 q 604 141 669 142 q 469 139 539 140 q 472 245 471 185 q 476 374 474 306 q 479 513 478 442 q 482 654 481 585 q 485 786 483 724 q 488 899 486 849 q 594 899 540 899 q 710 903 647 900 q 758 925 738 904 q 776 974 778 946 q 756 1023 776 1003 q 706 1042 735 1043 q 563 1038 629 1039 q 430 1036 496 1036 q 294 1038 364 1036 q 142 1042 225 1039 q 92 1024 114 1043 q 69 975 71 1004 q 88 925 68 946 q 136 903 108 904 q 248 899 196 900 q 349 897 300 899 q 345 719 347 822 q 340 510 343 617 q 335 306 338 404 q 331 139 332 207 q 224 141 278 140 q 113 144 169 142 q 63 126 85 146 q 40 78 42 106 q 59 28 39 49 q 107 6 79 7 q 257 1 185 3 q 400 0 329 0 q 574 1 490 0 q 738 6 657 3 q 785 28 765 7 q 804 76 806 49 m 464 1100 q 432 1107 449 1100 l 368 1144 q 264 1235 296 1192 q 250 1286 246 1258 q 278 1332 254 1314 q 329 1346 301 1350 q 375 1318 357 1342 q 397 1295 382 1307 q 428 1272 411 1283 q 464 1249 446 1260 q 496 1231 482 1238 q 531 1190 522 1217 q 525 1138 539 1163 q 499 1110 515 1119 q 464 1100 483 1100 z "},"Í":{"ha":843,"x_min":39,"x_max":806,"o":"m 804 76 q 783 126 804 106 q 733 144 763 146 q 604 141 669 142 q 469 139 539 140 q 472 245 471 185 q 476 374 474 306 q 479 513 478 442 q 482 654 481 585 q 485 786 483 724 q 488 899 486 849 q 594 899 540 899 q 710 903 647 900 q 758 925 738 904 q 776 974 778 946 q 756 1023 776 1003 q 706 1042 735 1043 q 563 1038 629 1039 q 430 1036 496 1036 q 294 1038 364 1036 q 142 1042 225 1039 q 92 1024 114 1043 q 69 975 71 1004 q 88 925 68 946 q 136 903 108 904 q 248 899 196 900 q 349 897 300 899 q 345 719 347 822 q 340 510 343 617 q 335 306 338 404 q 331 139 332 207 q 224 141 278 140 q 113 144 169 142 q 63 126 85 146 q 40 78 42 106 q 59 28 39 49 q 107 6 79 7 q 257 1 185 3 q 400 0 329 0 q 574 1 490 0 q 738 6 657 3 q 785 28 765 7 q 804 76 806 49 m 394 1100 q 359 1110 375 1100 q 333 1138 343 1119 q 328 1190 319 1163 q 363 1231 336 1217 q 394 1249 376 1238 q 430 1272 413 1260 q 462 1295 447 1283 q 483 1318 476 1307 q 529 1346 501 1342 q 581 1332 557 1350 q 608 1286 604 1314 q 594 1235 613 1258 q 490 1144 563 1192 l 426 1107 q 394 1100 410 1100 z "},"Ò":{"ha":840,"x_min":35,"x_max":803,"o":"m 410 0 q 392 1 397 0 q 235 50 307 6 q 124 161 168 93 q 61 303 83 224 q 38 471 39 382 q 60 661 35 572 q 90 754 72 710 q 133 838 108 799 q 265 975 188 922 q 456 1042 350 1031 q 506 1026 483 1044 q 531 979 528 1007 q 515 928 533 950 q 468 903 496 906 q 339 856 394 896 q 247 756 283 817 q 193 622 211 696 q 176 474 175 549 q 192 355 178 414 q 233 249 206 296 q 301 172 260 203 q 400 139 343 142 l 408 139 q 495 165 456 139 q 566 232 535 190 q 619 326 597 274 q 651 431 640 378 q 662 553 664 493 q 644 663 660 613 q 539 786 614 761 q 499 822 511 796 q 497 875 486 847 q 532 915 507 903 q 585 918 557 928 q 708 832 660 890 q 749 774 732 806 q 778 704 765 742 q 801 560 799 638 q 788 403 803 483 q 738 250 771 322 q 660 125 706 178 q 543 32 606 63 q 410 0 476 0 m 492 1100 q 460 1107 476 1100 l 396 1144 q 292 1235 324 1192 q 278 1286 274 1258 q 306 1332 282 1314 q 357 1346 329 1350 q 403 1318 385 1342 q 424 1295 410 1307 q 456 1272 439 1283 q 492 1249 474 1260 q 524 1231 510 1238 q 558 1190 550 1217 q 553 1138 567 1163 q 527 1110 543 1119 q 492 1100 511 1100 z "},"Ó":{"ha":840,"x_min":35,"x_max":803,"o":"m 410 0 q 392 1 397 0 q 235 50 307 6 q 124 161 168 93 q 61 303 83 224 q 38 471 39 382 q 60 661 35 572 q 90 754 72 710 q 133 838 108 799 q 265 975 188 922 q 456 1042 350 1031 q 506 1026 483 1044 q 531 979 528 1007 q 515 928 533 950 q 468 903 496 906 q 339 856 394 896 q 247 756 283 817 q 193 622 211 696 q 176 474 175 549 q 192 355 178 414 q 233 249 206 296 q 301 172 260 203 q 400 139 343 142 l 408 139 q 495 165 456 139 q 566 232 535 190 q 619 326 597 274 q 651 431 640 378 q 662 553 664 493 q 644 663 660 613 q 539 786 614 761 q 499 822 511 796 q 497 875 486 847 q 532 915 507 903 q 585 918 557 928 q 708 832 660 890 q 749 774 732 806 q 778 704 765 742 q 801 560 799 638 q 788 403 803 483 q 738 250 771 322 q 660 125 706 178 q 543 32 606 63 q 410 0 476 0 m 375 1100 q 340 1110 356 1100 q 314 1138 324 1119 q 308 1190 300 1163 q 343 1231 317 1217 q 375 1249 357 1238 q 410 1272 393 1260 q 442 1295 428 1283 q 464 1318 457 1307 q 510 1346 482 1342 q 561 1332 538 1350 q 589 1286 585 1314 q 575 1235 593 1258 q 471 1144 543 1192 l 407 1107 q 375 1100 390 1100 z "},"Ù":{"ha":819,"x_min":47,"x_max":769,"o":"m 317 1 q 156 74 219 1 q 56 393 72 168 q 54 650 47 506 q 85 982 61 794 q 110 1028 88 1010 q 161 1043 133 1046 q 208 1016 190 1039 q 222 965 225 993 q 194 647 200 788 q 194 403 188 507 q 206 307 199 347 q 223 239 214 267 q 242 193 232 211 q 260 165 251 175 q 317 140 281 140 q 408 183 361 140 q 511 340 465 238 q 594 622 564 458 q 631 975 625 785 q 653 1024 632 1004 q 701 1043 674 1043 q 750 1021 731 1042 q 769 972 769 1000 l 761 626 q 753 356 757 489 q 749 69 750 222 q 728 22 749 42 q 679 1 707 1 q 630 22 650 1 q 610 71 610 43 q 610 152 610 113 q 613 231 611 192 q 477 60 553 118 q 317 1 401 1 m 482 1086 q 450 1093 467 1086 l 386 1131 q 282 1221 314 1178 q 268 1272 264 1244 q 296 1318 272 1300 q 347 1332 319 1336 q 393 1304 375 1328 q 415 1281 400 1293 q 447 1258 429 1269 q 482 1235 464 1246 q 514 1217 500 1224 q 549 1176 540 1203 q 543 1124 557 1149 q 517 1096 533 1106 q 482 1086 501 1086 z "},"Ú":{"ha":819,"x_min":47,"x_max":769,"o":"m 317 1 q 156 74 219 1 q 56 393 72 168 q 54 650 47 506 q 85 982 61 794 q 110 1028 88 1010 q 161 1043 133 1046 q 208 1016 190 1039 q 222 965 225 993 q 194 647 200 788 q 194 403 188 507 q 206 307 199 347 q 223 239 214 267 q 242 193 232 211 q 260 165 251 175 q 317 140 281 140 q 408 183 361 140 q 511 340 465 238 q 594 622 564 458 q 631 975 625 785 q 653 1024 632 1004 q 701 1043 674 1043 q 750 1021 731 1042 q 769 972 769 1000 l 761 626 q 753 356 757 489 q 749 69 750 222 q 728 22 749 42 q 679 1 707 1 q 630 22 650 1 q 610 71 610 43 q 610 152 610 113 q 613 231 611 192 q 477 60 553 118 q 317 1 401 1 m 364 1086 q 328 1096 344 1086 q 303 1124 313 1106 q 297 1176 289 1149 q 332 1217 306 1203 q 364 1235 346 1224 q 399 1258 382 1246 q 431 1281 417 1269 q 453 1304 446 1293 q 499 1332 471 1328 q 550 1318 526 1336 q 578 1272 574 1300 q 564 1221 582 1244 q 460 1131 532 1178 l 396 1093 q 364 1086 379 1086 z "},"Ý":{"ha":751,"x_min":29,"x_max":735,"o":"m 279 1 q 250 8 263 1 q 214 48 224 21 q 217 101 204 75 q 226 120 217 101 q 250 171 235 139 q 285 246 265 203 q 329 340 306 289 q 264 448 297 386 q 199 576 231 510 q 140 706 168 642 q 90 823 111 771 q 55 909 68 875 q 40 949 42 943 q 40 1002 29 976 q 79 1038 51 1028 q 133 1038 107 1049 q 169 999 158 1026 q 179 973 169 997 q 206 908 189 949 q 244 816 222 868 q 292 708 267 764 q 344 596 317 651 q 399 493 372 540 q 460 633 429 563 q 516 769 490 704 q 562 892 542 835 q 593 989 582 949 q 624 1031 600 1017 q 676 1039 649 1046 q 719 1007 704 1032 q 728 954 735 982 q 679 804 713 893 q 604 616 646 715 q 517 417 563 517 q 435 235 472 317 q 371 101 397 154 q 342 40 344 47 q 316 11 333 21 q 279 1 299 1 m 346 1086 q 310 1096 326 1086 q 285 1124 294 1106 q 279 1176 271 1149 q 314 1217 288 1203 q 346 1235 328 1224 q 381 1258 364 1246 q 413 1281 399 1269 q 435 1304 428 1293 q 481 1332 453 1328 q 532 1318 508 1336 q 560 1272 556 1300 q 546 1221 564 1244 q 442 1131 514 1178 l 378 1093 q 346 1086 361 1086 z "},"ï":{"ha":379,"x_min":25,"x_max":358,"o":"m 182 -1 l 181 -1 q 131 21 151 0 q 113 69 111 42 l 118 283 q 124 449 121 367 q 126 624 126 531 q 148 673 128 653 q 197 693 168 693 q 247 672 226 693 q 265 624 267 651 q 263 445 265 528 q 257 278 260 363 l 251 67 q 230 19 250 39 q 182 -1 210 -1 m 358 822 q 338 773 358 793 q 289 753 318 753 q 240 773 260 753 q 219 822 219 793 q 240 872 219 851 q 289 892 260 892 q 338 872 318 892 q 358 822 358 851 m 164 822 q 144 773 164 793 q 94 753 124 753 q 45 773 65 753 q 25 822 25 793 q 45 872 25 851 q 94 892 65 892 q 144 872 124 892 q 164 822 164 851 z "},"Ø":{"ha":840,"x_min":35,"x_max":803,"o":"m 410 0 q 392 1 397 0 q 235 50 307 6 q 216 63 225 57 q 199 75 207 68 l 171 38 q 119 10 147 10 q 71 26 92 10 q 44 71 50 43 q 63 126 39 99 l 107 188 q 57 319 75 247 q 38 471 39 392 q 60 661 35 572 q 90 754 72 710 q 133 838 108 799 q 265 975 188 922 q 456 1042 350 1031 q 506 1026 483 1044 q 531 979 528 1007 q 515 928 533 950 q 468 903 496 906 q 339 856 394 896 q 247 756 283 817 q 193 622 211 696 q 176 474 175 549 q 201 317 176 389 l 543 785 q 539 786 540 785 q 499 822 511 796 q 497 875 486 847 q 532 915 507 903 q 585 918 557 928 q 606 910 596 914 q 626 899 617 906 l 665 951 q 716 979 688 979 q 765 963 744 979 q 791 918 786 946 q 774 863 796 890 l 731 803 q 757 756 746 781 q 778 704 768 732 q 801 560 799 638 q 788 403 803 483 q 738 250 771 322 q 660 125 706 178 q 543 32 606 63 q 410 0 476 0 m 400 139 l 408 139 q 495 165 456 139 q 566 232 535 190 q 619 326 597 274 q 651 431 640 378 q 662 553 664 493 q 644 663 660 613 l 639 678 l 281 189 q 400 139 331 143 z "},"ø":{"ha":629,"x_min":15,"x_max":606,"o":"m 310 -6 q 296 -4 300 -6 q 182 29 232 -1 q 158 44 169 35 l 147 31 q 96 3 124 3 q 47 19 68 3 q 21 64 26 36 q 39 119 15 92 l 69 158 q 38 313 38 229 q 54 441 36 379 q 107 554 72 503 q 201 646 146 610 q 267 675 233 664 q 338 689 300 686 q 388 673 367 692 q 413 625 410 654 q 390 568 415 590 q 396 569 393 568 l 463 654 q 513 682 485 682 q 563 665 542 682 q 588 621 583 649 q 571 565 593 593 l 526 508 q 571 439 554 476 q 586 258 606 357 q 553 159 576 206 q 496 76 531 113 q 408 15 456 36 q 310 -6 360 -6 m 303 133 l 308 133 q 360 147 336 133 q 402 181 383 160 q 433 228 421 201 q 450 285 444 256 q 443 385 461 340 l 438 396 l 244 153 q 303 133 268 136 m 349 550 q 270 524 303 546 q 217 468 238 501 q 186 394 196 435 q 176 314 176 354 l 176 293 l 340 500 q 344 524 340 511 q 351 538 347 531 q 363 551 356 546 q 349 550 353 551 z "},"Ð":{"ha":776,"x_min":8,"x_max":746,"o":"m 190 0 q 149 1 169 0 q 107 6 128 3 q 60 34 78 11 q 47 85 43 57 q 76 131 53 114 q 126 143 99 147 q 276 148 210 131 q 391 197 342 165 q 472 263 440 228 q 521 324 504 299 q 576 431 556 375 q 601 544 596 488 q 597 652 607 600 q 560 749 586 704 q 403 874 508 836 q 147 899 299 913 q 97 915 118 896 q 72 963 75 933 q 88 1013 69 990 q 135 1038 107 1035 q 475 994 335 1054 q 596 921 542 968 q 642 873 621 899 q 681 819 663 847 q 731 683 717 757 q 739 531 746 610 q 706 383 732 456 q 636 246 681 311 q 538 134 593 183 q 418 53 483 85 q 347 24 383 36 q 272 7 310 13 q 231 1 251 3 q 190 0 211 0 m 81 483 q 26 505 44 483 q 8 553 8 526 q 26 601 8 579 q 81 622 44 622 l 99 622 l 103 826 q 124 874 104 854 q 172 894 144 894 l 174 894 q 223 873 203 893 q 242 824 243 853 l 238 622 l 342 622 q 396 601 378 622 q 414 553 414 579 q 396 505 414 526 q 342 483 378 483 l 235 483 l 226 215 q 205 168 225 188 q 157 149 185 149 l 154 149 q 106 172 125 150 q 88 221 86 193 l 96 483 l 81 483 z "},"˝":{"ha":589,"x_min":39,"x_max":553,"o":"m 131 722 q 61 739 92 711 q 40 787 40 758 q 60 838 39 815 q 85 864 71 849 q 111 896 99 879 q 133 929 124 913 q 147 958 143 946 q 183 999 158 986 q 236 1001 208 1011 q 276 965 264 990 q 279 913 289 940 q 208 794 261 863 q 174 756 189 771 q 158 739 160 742 q 131 722 149 729 m 394 722 q 325 739 356 711 q 303 787 304 758 q 324 838 303 815 q 349 864 335 849 q 375 896 363 879 q 397 929 388 913 q 411 958 407 946 q 447 999 422 986 q 500 1001 472 1011 q 540 965 528 990 q 543 913 553 940 q 472 794 525 863 q 438 756 453 771 q 422 739 424 742 q 394 722 413 729 z "},"ű":{"ha":664,"x_min":47,"x_max":638,"o":"m 132 692 l 136 692 q 185 667 165 689 q 201 618 204 646 q 195 432 194 514 q 204 290 196 350 q 226 196 213 226 q 251 153 240 165 q 292 136 267 136 q 326 147 310 136 q 356 173 343 157 q 381 209 369 189 q 400 249 392 229 q 447 411 428 315 q 472 626 465 507 q 496 674 475 654 q 544 692 517 693 q 592 669 572 690 q 611 621 613 649 q 608 510 610 563 q 604 407 607 458 q 599 242 601 324 q 596 65 597 160 q 575 17 596 38 q 525 -3 554 -3 q 477 18 497 -3 q 457 68 457 39 l 457 78 q 372 13 415 29 q 292 -3 328 -3 q 214 13 250 -3 q 150 58 178 28 q 68 260 89 122 q 63 626 47 397 q 85 673 65 654 q 132 692 104 692 m 479 732 q 410 749 440 721 q 388 797 389 768 q 408 847 388 825 q 433 874 419 858 q 460 906 447 889 q 482 939 472 922 q 496 968 492 956 q 532 1008 507 996 q 585 1011 557 1021 q 625 975 613 1000 q 628 922 638 950 q 557 804 610 872 q 523 766 538 781 q 507 749 508 751 q 479 732 497 739 m 215 732 q 146 749 176 721 q 124 797 125 768 q 144 847 124 825 q 169 874 156 858 q 196 906 183 889 q 218 939 208 922 q 232 968 228 956 q 268 1008 243 996 q 321 1011 293 1021 q 361 975 349 1000 q 364 922 374 950 q 293 804 346 872 q 259 766 274 781 q 243 749 244 751 q 215 732 233 739 z "},"Ű":{"ha":819,"x_min":47,"x_max":769,"o":"m 317 1 q 156 74 219 1 q 56 393 72 168 q 54 650 47 506 q 85 982 61 794 q 110 1028 88 1010 q 161 1043 133 1046 q 208 1016 190 1039 q 222 965 225 993 q 194 647 200 788 q 194 403 188 507 q 206 307 199 347 q 223 239 214 267 q 242 193 232 211 q 260 165 251 175 q 317 140 281 140 q 408 183 361 140 q 511 340 465 238 q 594 622 564 458 q 631 975 625 785 q 653 1024 632 1004 q 701 1043 674 1043 q 750 1021 731 1042 q 769 972 769 1000 l 761 626 q 753 356 757 489 q 749 69 750 222 q 728 22 749 42 q 679 1 707 1 q 630 22 650 1 q 610 71 610 43 q 610 152 610 113 q 613 231 611 192 q 477 60 553 118 q 317 1 401 1 m 557 1083 q 488 1100 518 1072 q 466 1148 467 1119 q 486 1199 465 1176 q 511 1225 497 1210 q 538 1257 525 1240 q 560 1290 550 1274 q 574 1319 569 1307 q 610 1360 585 1347 q 663 1363 635 1372 q 703 1326 690 1351 q 706 1274 715 1301 q 635 1156 688 1224 q 601 1117 615 1132 q 585 1100 586 1103 q 557 1083 575 1090 m 293 1083 q 224 1100 254 1072 q 202 1148 203 1119 q 222 1199 201 1176 q 247 1225 233 1210 q 274 1257 261 1240 q 296 1290 286 1274 q 310 1319 306 1307 q 346 1360 321 1347 q 399 1363 371 1372 q 439 1326 426 1351 q 442 1274 451 1301 q 371 1156 424 1224 q 337 1117 351 1132 q 321 1100 322 1103 q 293 1083 311 1090 z "},"Ő":{"ha":840,"x_min":35,"x_max":803,"o":"m 410 0 q 392 1 397 0 q 235 50 307 6 q 124 161 168 93 q 61 303 83 224 q 38 471 39 382 q 60 661 35 572 q 90 754 72 710 q 133 838 108 799 q 265 975 188 922 q 456 1042 350 1031 q 506 1026 483 1044 q 531 979 528 1007 q 515 928 533 950 q 468 903 496 906 q 339 856 394 896 q 247 756 283 817 q 193 622 211 696 q 176 474 175 549 q 192 355 178 414 q 233 249 206 296 q 301 172 260 203 q 400 139 343 142 l 408 139 q 495 165 456 139 q 566 232 535 190 q 619 326 597 274 q 651 431 640 378 q 662 553 664 493 q 644 663 660 613 q 539 786 614 761 q 499 822 511 796 q 497 875 486 847 q 532 915 507 903 q 585 918 557 928 q 708 832 660 890 q 749 774 732 806 q 778 704 765 742 q 801 560 799 638 q 788 403 803 483 q 738 250 771 322 q 660 125 706 178 q 543 32 606 63 q 410 0 476 0 m 578 1076 q 508 1093 539 1065 q 487 1141 488 1113 q 507 1192 486 1169 q 532 1218 518 1203 q 558 1250 546 1233 q 581 1283 571 1267 q 594 1313 590 1300 q 631 1353 606 1340 q 683 1356 656 1365 q 724 1319 711 1344 q 726 1267 736 1294 q 656 1149 708 1217 q 622 1110 636 1125 q 606 1093 607 1096 q 578 1076 596 1083 m 314 1076 q 244 1093 275 1065 q 223 1141 224 1113 q 243 1192 222 1169 q 268 1218 254 1203 q 294 1250 282 1233 q 317 1283 307 1267 q 331 1313 326 1300 q 367 1353 342 1340 q 419 1356 392 1365 q 460 1319 447 1344 q 463 1267 472 1294 q 392 1149 444 1217 q 358 1110 372 1125 q 342 1093 343 1096 q 314 1076 332 1083 z "},"ő":{"ha":629,"x_min":36,"x_max":615,"o":"m 310 -6 q 296 -4 300 -6 q 182 29 232 -1 q 100 104 133 57 q 38 313 40 190 q 54 441 36 379 q 107 554 72 503 q 201 646 146 610 q 267 675 233 664 q 338 689 300 686 q 388 673 367 692 q 413 625 410 654 q 390 568 415 590 q 432 568 410 575 q 518 517 483 550 q 571 439 551 482 q 586 258 606 357 q 553 159 576 206 q 496 76 531 113 q 408 15 456 36 q 310 -6 360 -6 m 349 550 q 270 524 303 546 q 217 468 238 501 q 186 394 196 435 q 176 314 176 354 q 186 242 176 276 q 214 185 196 208 q 303 133 247 138 l 308 133 q 360 147 336 133 q 402 181 383 160 q 433 228 421 201 q 450 285 444 256 q 443 385 461 340 q 389 436 426 424 q 348 470 361 444 q 344 524 335 496 q 351 538 347 531 q 363 551 356 546 q 349 550 353 551 m 193 722 q 124 739 154 711 q 102 787 103 758 q 122 838 101 815 q 147 864 133 849 q 174 896 161 879 q 196 929 186 913 q 210 958 206 946 q 246 999 221 986 q 299 1001 271 1011 q 339 965 326 990 q 342 913 351 940 q 271 794 324 863 q 237 756 251 771 q 221 739 222 742 q 193 722 211 729 m 457 722 q 388 739 418 711 q 366 787 367 758 q 386 838 365 815 q 411 864 397 849 q 438 896 425 879 q 460 929 450 913 q 474 958 469 946 q 510 999 485 986 q 563 1001 535 1011 q 603 965 590 990 q 606 913 615 940 q 535 794 588 863 q 501 756 515 771 q 485 739 486 742 q 457 722 475 729 z "},"Ś":{"ha":697,"x_min":31,"x_max":663,"o":"m 375 0 q 267 15 321 0 q 169 60 214 31 q 68 169 106 100 q 35 335 31 243 q 58 382 38 363 q 108 400 79 401 q 157 376 138 397 q 174 326 176 356 q 246 175 168 228 q 356 140 293 144 q 467 158 418 135 q 521 233 517 185 q 508 303 522 271 q 464 365 493 335 q 392 425 435 394 q 299 490 350 456 q 213 548 256 518 q 138 611 171 578 q 53 796 49 697 q 100 924 57 868 q 201 1004 139 972 q 286 1034 242 1025 q 374 1042 331 1043 q 459 1028 418 1040 q 533 993 500 1015 q 621 885 592 951 q 640 725 649 814 q 615 679 638 697 q 564 664 593 661 q 517 689 536 667 q 501 739 499 711 q 454 878 511 839 q 365 903 418 903 q 263 879 311 903 q 243 868 254 875 q 221 850 232 861 q 201 824 210 839 q 192 790 193 808 q 206 744 190 767 q 247 698 221 721 q 306 652 272 675 q 375 606 339 629 q 474 538 425 574 q 564 460 524 503 q 635 357 613 408 q 658 226 663 293 q 618 110 657 161 q 529 35 586 65 q 375 0 460 0 m 354 1114 q 319 1124 335 1114 q 293 1151 303 1133 q 288 1203 279 1176 q 322 1244 296 1231 q 354 1263 336 1251 q 390 1285 372 1274 q 422 1309 407 1297 q 443 1332 436 1321 q 489 1360 461 1356 q 540 1346 517 1364 q 568 1300 564 1328 q 554 1249 572 1272 q 450 1158 522 1206 l 386 1121 q 354 1114 369 1114 z "},"Ź":{"ha":717,"x_min":32,"x_max":674,"o":"m 346 0 q 274 6 311 0 q 200 26 236 11 q 107 90 147 49 q 53 199 67 136 q 65 399 32 297 q 158 565 93 483 q 287 701 217 640 q 419 811 357 763 l 500 879 l 515 893 q 451 902 496 899 q 324 900 407 906 q 251 894 286 897 q 190 886 217 890 q 133 876 160 881 q 81 888 104 871 q 53 933 58 906 q 64 985 47 961 q 108 1014 81 1008 q 127 1017 110 1014 q 172 1024 144 1019 q 237 1032 200 1028 q 314 1039 274 1036 q 447 1041 393 1044 q 538 1030 501 1038 q 594 1011 574 1022 q 626 990 614 1000 q 669 899 669 954 q 658 853 669 875 q 626 808 647 831 q 574 759 604 785 q 506 703 543 733 q 383 601 449 657 q 268 481 318 544 q 189 228 163 346 q 253 156 199 176 q 327 140 286 142 q 411 144 368 138 q 494 165 454 151 q 563 199 533 179 q 615 208 586 214 q 658 178 643 201 q 667 126 674 154 q 638 82 661 97 q 541 35 594 54 q 429 7 488 15 q 346 0 390 0 m 368 1114 q 333 1124 349 1114 q 307 1151 317 1133 q 301 1203 293 1176 q 336 1244 310 1231 q 368 1263 350 1251 q 403 1285 386 1274 q 435 1309 421 1297 q 457 1332 450 1321 q 503 1360 475 1356 q 554 1346 531 1364 q 582 1300 578 1328 q 568 1249 586 1272 q 464 1158 536 1206 l 400 1121 q 368 1114 383 1114 z "},"ś":{"ha":568,"x_min":36,"x_max":532,"o":"m 303 -1 q 292 -1 297 -1 q 281 0 286 -1 q 133 47 196 4 q 64 122 86 79 q 40 233 36 174 q 65 281 43 263 q 114 299 86 300 q 163 274 143 296 q 179 224 182 253 q 183 194 178 211 q 211 163 188 178 q 249 145 228 151 q 291 138 269 139 q 332 141 313 138 q 367 151 351 144 q 385 164 382 158 q 388 172 388 169 q 376 206 389 189 q 342 240 363 224 q 294 272 321 256 q 242 303 268 288 q 179 339 210 321 q 124 379 149 357 q 53 517 50 440 q 84 601 56 563 q 161 664 113 639 q 227 687 193 679 q 297 693 261 694 q 436 653 381 693 q 500 574 481 621 q 513 468 519 526 q 486 422 508 440 q 435 407 464 404 q 389 433 407 410 q 374 485 371 456 q 369 525 378 514 q 357 539 361 536 q 329 551 346 547 q 294 554 313 554 q 258 551 276 554 q 222 539 239 547 q 200 524 207 532 q 192 510 193 515 q 196 502 192 508 q 213 485 200 496 q 256 454 231 469 q 310 424 282 439 q 382 381 346 403 q 449 331 418 358 q 525 163 532 256 q 497 83 522 118 q 428 26 472 47 q 303 -1 372 -1 m 292 739 q 256 749 272 739 q 231 776 240 758 q 225 828 217 801 q 260 869 233 856 q 292 888 274 876 q 327 910 310 899 q 359 934 344 922 q 381 957 374 946 q 426 985 399 981 q 478 971 454 989 q 506 925 501 953 q 492 874 510 897 q 388 783 460 831 l 324 746 q 292 739 307 739 z "},"ź":{"ha":629,"x_min":21,"x_max":597,"o":"m 304 4 q 226 10 267 4 q 147 33 185 17 q 75 87 97 56 q 44 143 53 118 q 57 293 21 217 q 143 404 83 349 q 256 488 194 450 q 369 557 317 526 q 374 560 372 560 q 331 560 354 561 q 281 558 308 560 q 219 554 249 557 q 169 549 190 551 q 133 546 147 547 q 119 544 119 544 q 69 558 92 540 q 42 604 46 576 q 56 656 39 632 q 103 682 74 679 q 119 684 104 682 q 160 688 135 686 q 217 693 185 690 q 286 697 250 696 q 404 697 357 700 q 483 688 451 694 q 531 674 514 682 q 560 656 549 665 q 592 585 592 626 q 567 525 590 547 q 528 492 543 503 q 488 466 510 479 q 439 438 465 453 q 335 375 390 410 q 238 301 279 340 q 196 256 210 276 q 178 222 182 236 q 175 197 174 207 q 178 183 176 188 q 204 160 182 169 q 268 145 231 149 q 346 145 306 142 q 425 158 386 149 q 493 181 464 168 q 547 183 519 193 q 585 147 574 174 q 588 94 597 121 q 551 54 578 67 q 460 24 511 36 q 356 7 408 11 q 331 5 344 6 q 304 4 318 4 m 306 739 q 270 749 286 739 q 244 776 254 758 q 239 828 231 801 q 274 869 247 856 q 306 888 288 876 q 341 910 324 899 q 373 934 358 922 q 394 957 388 946 q 440 985 413 981 q 492 971 468 989 q 519 925 515 953 q 506 874 524 897 q 401 783 474 831 l 338 746 q 306 739 321 739 z "},"Ť":{"ha":800,"x_min":18,"x_max":785,"o":"m 783 975 q 765 925 785 946 q 717 903 744 904 q 594 900 656 901 q 467 899 532 899 q 464 768 465 840 q 461 617 463 696 q 458 457 460 538 q 455 303 457 376 q 451 169 453 231 q 449 67 450 107 q 427 19 447 39 q 379 0 407 0 l 376 0 q 328 22 347 1 q 310 72 308 43 q 313 174 311 113 q 316 307 314 235 q 319 459 318 379 q 322 617 321 539 q 325 768 324 696 q 328 897 326 840 q 210 899 269 899 q 88 903 150 900 q 38 925 58 904 q 19 975 18 946 q 43 1024 22 1004 q 92 1042 64 1043 q 236 1038 167 1039 q 372 1036 306 1036 q 399 1042 383 1042 q 424 1036 414 1042 q 572 1038 500 1038 q 713 1042 643 1039 q 763 1023 742 1043 q 783 975 783 1003 m 518 1364 q 554 1354 536 1364 q 585 1311 578 1339 q 576 1258 592 1283 q 564 1237 576 1257 q 532 1193 551 1217 q 469 1128 497 1149 q 411 1104 440 1107 q 351 1121 382 1103 q 281 1182 321 1139 q 243 1224 258 1206 q 226 1244 228 1243 q 212 1297 208 1268 q 239 1342 215 1325 q 291 1356 263 1360 q 336 1329 319 1353 q 370 1289 351 1310 q 404 1256 389 1268 q 431 1290 415 1269 q 458 1331 446 1310 q 484 1356 468 1347 q 518 1364 500 1364 z "},"Ż":{"ha":717,"x_min":32,"x_max":674,"o":"m 346 0 q 274 6 311 0 q 200 26 236 11 q 107 90 147 49 q 53 199 67 136 q 65 399 32 297 q 158 565 93 483 q 287 701 217 640 q 419 811 357 763 l 500 879 l 515 893 q 451 902 496 899 q 324 900 407 906 q 251 894 286 897 q 190 886 217 890 q 133 876 160 881 q 81 888 104 871 q 53 933 58 906 q 64 985 47 961 q 108 1014 81 1008 q 127 1017 110 1014 q 172 1024 144 1019 q 237 1032 200 1028 q 314 1039 274 1036 q 447 1041 393 1044 q 538 1030 501 1038 q 594 1011 574 1022 q 626 990 614 1000 q 669 899 669 954 q 658 853 669 875 q 626 808 647 831 q 574 759 604 785 q 506 703 543 733 q 383 601 449 657 q 268 481 318 544 q 189 228 163 346 q 253 156 199 176 q 327 140 286 142 q 411 144 368 138 q 494 165 454 151 q 563 199 533 179 q 615 208 586 214 q 658 178 643 201 q 667 126 674 154 q 638 82 661 97 q 541 35 594 54 q 429 7 488 15 q 346 0 390 0 m 438 1183 q 417 1134 438 1154 q 368 1114 397 1114 q 319 1134 339 1114 q 299 1183 299 1154 q 319 1233 299 1213 q 368 1253 339 1253 q 417 1233 397 1253 q 438 1183 438 1213 z "},"ż":{"ha":629,"x_min":21,"x_max":597,"o":"m 304 4 q 226 10 267 4 q 147 33 185 17 q 75 87 97 56 q 44 143 53 118 q 57 293 21 217 q 143 404 83 349 q 256 488 194 450 q 369 557 317 526 q 374 560 372 560 q 331 560 354 561 q 281 558 308 560 q 219 554 249 557 q 169 549 190 551 q 133 546 147 547 q 119 544 119 544 q 69 558 92 540 q 42 604 46 576 q 56 656 39 632 q 103 682 74 679 q 119 684 104 682 q 160 688 135 686 q 217 693 185 690 q 286 697 250 696 q 404 697 357 700 q 483 688 451 694 q 531 674 514 682 q 560 656 549 665 q 592 585 592 626 q 567 525 590 547 q 528 492 543 503 q 488 466 510 479 q 439 438 465 453 q 335 375 390 410 q 238 301 279 340 q 196 256 210 276 q 178 222 182 236 q 175 197 174 207 q 178 183 176 188 q 204 160 182 169 q 268 145 231 149 q 346 145 306 142 q 425 158 386 149 q 493 181 464 168 q 547 183 519 193 q 585 147 574 174 q 588 94 597 121 q 551 54 578 67 q 460 24 511 36 q 356 7 408 11 q 331 5 344 6 q 304 4 318 4 m 394 822 q 374 773 394 793 q 325 753 354 753 q 276 773 296 753 q 256 822 256 793 q 276 872 256 851 q 325 892 296 892 q 374 872 354 892 q 394 822 394 851 z "},"Ř":{"ha":800,"x_min":46,"x_max":747,"o":"m 735 894 q 733 785 747 842 q 669 646 719 719 q 551 515 624 576 q 518 488 536 501 q 481 460 500 475 l 717 111 q 730 55 738 82 q 701 13 722 28 q 652 -1 681 -3 q 603 31 624 1 l 358 390 q 281 358 322 374 q 194 332 240 343 q 190 180 192 249 q 186 67 188 111 q 165 19 185 39 q 117 0 144 0 l 114 0 q 65 22 85 1 q 47 72 46 43 q 51 189 49 118 q 56 344 53 260 q 60 519 58 428 q 64 694 63 610 q 67 852 65 779 q 69 974 68 925 q 90 1022 69 1001 q 139 1042 111 1042 l 140 1042 q 188 1021 168 1040 q 208 974 207 1001 q 339 1017 278 1001 q 453 1039 400 1032 q 675 990 600 1054 q 735 894 722 951 m 599 817 q 588 883 610 865 q 553 899 581 890 q 468 900 526 907 q 349 875 415 894 q 206 824 283 856 l 197 476 q 354 544 289 504 q 460 621 419 585 q 551 719 515 668 q 599 817 588 771 m 518 1364 q 554 1354 536 1364 q 585 1311 578 1339 q 576 1258 592 1283 q 564 1237 576 1257 q 532 1193 551 1217 q 469 1128 497 1149 q 411 1104 440 1107 q 351 1121 382 1103 q 281 1182 321 1139 q 243 1224 258 1206 q 226 1244 228 1243 q 212 1297 208 1268 q 239 1342 215 1325 q 291 1356 263 1360 q 336 1329 319 1353 q 370 1289 351 1310 q 404 1256 389 1268 q 431 1290 415 1269 q 458 1331 446 1310 q 484 1356 468 1347 q 518 1364 500 1364 z "},"Ů":{"ha":819,"x_min":47,"x_max":769,"o":"m 317 1 q 156 74 219 1 q 56 393 72 168 q 54 650 47 506 q 85 982 61 794 q 110 1028 88 1010 q 161 1043 133 1046 q 208 1016 190 1039 q 222 965 225 993 q 194 647 200 788 q 194 403 188 507 q 206 307 199 347 q 223 239 214 267 q 242 193 232 211 q 260 165 251 175 q 317 140 281 140 q 408 183 361 140 q 511 340 465 238 q 594 622 564 458 q 631 975 625 785 q 653 1024 632 1004 q 701 1043 674 1043 q 750 1021 731 1042 q 769 972 769 1000 l 761 626 q 753 356 757 489 q 749 69 750 222 q 728 22 749 42 q 679 1 707 1 q 630 22 650 1 q 610 71 610 43 q 610 152 610 113 q 613 231 611 192 q 477 60 553 118 q 317 1 401 1 m 408 1008 q 360 1017 381 1008 q 325 1035 339 1025 q 265 1128 281 1069 q 281 1269 250 1201 q 329 1333 299 1308 q 399 1368 360 1358 q 475 1369 439 1379 q 539 1331 511 1358 q 583 1241 572 1294 q 578 1135 593 1188 q 528 1055 563 1086 q 446 1013 494 1024 q 408 1008 425 1008 m 438 1263 q 426 1261 431 1263 q 397 1244 408 1257 q 378 1217 385 1232 q 372 1185 372 1201 q 374 1154 371 1168 q 384 1131 378 1139 q 397 1121 390 1124 q 411 1119 404 1118 q 422 1121 418 1119 q 472 1168 460 1129 q 474 1217 479 1193 q 458 1254 469 1242 q 438 1263 450 1263 z "},"ŕ":{"ha":568,"x_min":36,"x_max":563,"o":"m 107 -1 l 104 -1 q 56 21 76 0 q 38 69 36 42 l 43 283 q 49 449 46 367 q 51 624 51 531 q 73 673 53 653 q 122 693 93 693 q 172 672 151 693 q 190 624 192 651 l 190 619 q 271 678 231 664 q 344 693 311 693 q 489 626 431 693 q 557 456 536 567 q 546 404 563 428 q 501 375 529 381 q 495 374 499 375 q 489 374 492 374 q 444 390 464 374 q 421 432 425 406 q 401 502 413 478 q 382 538 390 526 q 344 554 367 554 q 313 542 328 554 q 285 514 297 531 q 262 478 272 497 q 246 443 251 458 q 201 281 218 376 q 176 64 183 185 q 154 17 174 36 q 107 -1 135 -1 m 257 739 q 222 749 238 739 q 196 776 206 758 q 190 828 182 801 q 225 869 199 856 q 257 888 239 876 q 292 910 275 899 q 324 934 310 922 q 346 957 339 946 q 392 985 364 981 q 443 971 419 989 q 471 925 467 953 q 457 874 475 897 q 353 783 425 831 l 289 746 q 257 739 272 739 z "},"ř":{"ha":568,"x_min":36,"x_max":563,"o":"m 107 -1 l 104 -1 q 56 21 76 0 q 38 69 36 42 l 43 283 q 49 449 46 367 q 51 624 51 531 q 73 673 53 653 q 122 693 93 693 q 172 672 151 693 q 190 624 192 651 l 190 619 q 271 678 231 664 q 344 693 311 693 q 489 626 431 693 q 557 456 536 567 q 546 404 563 428 q 501 375 529 381 q 495 374 499 375 q 489 374 492 374 q 444 390 464 374 q 421 432 425 406 q 401 502 413 478 q 382 538 390 526 q 344 554 367 554 q 313 542 328 554 q 285 514 297 531 q 262 478 272 497 q 246 443 251 458 q 201 281 218 376 q 176 64 183 185 q 154 17 174 36 q 107 -1 135 -1 m 401 1017 q 438 1007 419 1017 q 468 964 461 992 q 460 911 475 936 q 447 890 460 910 q 415 846 435 869 q 352 781 381 801 q 294 757 324 760 q 235 774 265 756 q 164 835 204 792 q 126 877 142 858 q 110 897 111 896 q 95 949 92 921 q 122 994 99 978 q 174 1009 146 1013 q 219 982 203 1006 q 253 942 235 963 q 288 908 272 921 q 314 942 299 922 q 342 983 329 963 q 367 1008 351 1000 q 401 1017 383 1017 z "},"ů":{"ha":664,"x_min":47,"x_max":613,"o":"m 132 692 l 136 692 q 185 667 165 689 q 201 618 204 646 q 195 432 194 514 q 204 290 196 350 q 226 196 213 226 q 251 153 240 165 q 292 136 267 136 q 326 147 310 136 q 356 173 343 157 q 381 209 369 189 q 400 249 392 229 q 447 411 428 315 q 472 626 465 507 q 496 674 475 654 q 544 692 517 693 q 592 669 572 690 q 611 621 613 649 q 608 510 610 563 q 604 407 607 458 q 599 242 601 324 q 596 65 597 160 q 575 17 596 38 q 525 -3 554 -3 q 477 18 497 -3 q 457 68 457 39 l 457 78 q 372 13 415 29 q 292 -3 328 -3 q 214 13 250 -3 q 150 58 178 28 q 68 260 89 122 q 63 626 47 397 q 85 673 65 654 q 132 692 104 692 m 318 689 q 269 697 290 689 q 235 715 249 706 q 175 808 190 750 q 190 950 160 882 q 239 1014 208 989 q 308 1049 269 1039 q 385 1049 349 1060 q 449 1011 421 1039 q 492 922 482 975 q 488 815 503 868 q 438 735 472 767 q 356 693 404 704 q 318 689 335 689 m 347 943 q 336 942 340 943 q 306 925 318 938 q 288 897 294 913 q 281 865 282 882 q 283 835 281 849 q 294 812 288 819 q 307 801 300 804 q 321 799 314 799 q 332 801 328 800 q 382 849 369 810 q 384 898 389 874 q 368 935 379 922 q 347 943 360 943 z "},"ň":{"ha":663,"x_min":50,"x_max":615,"o":"m 531 -1 l 526 -1 q 478 23 497 1 q 461 72 458 44 q 467 258 468 176 q 458 400 467 340 q 436 494 450 464 q 411 538 422 525 q 371 554 396 554 q 335 544 351 554 q 306 517 319 533 q 282 481 293 501 q 263 442 271 461 q 216 279 235 375 q 190 64 197 183 q 167 17 188 36 q 118 -1 146 -3 q 70 21 90 0 q 51 69 50 42 q 54 180 53 128 q 58 283 56 232 q 63 449 61 367 q 67 625 65 531 q 88 673 67 653 q 138 693 108 693 q 185 672 165 693 q 206 622 206 651 l 206 613 q 291 677 247 661 q 371 693 335 693 q 449 678 413 693 q 513 632 485 663 q 594 430 574 567 q 600 64 615 293 q 578 17 597 36 q 531 -1 558 -1 m 449 1017 q 485 1007 467 1017 q 515 964 508 992 q 507 911 522 936 q 494 890 507 910 q 463 846 482 869 q 399 781 428 801 q 342 757 371 760 q 282 774 313 756 q 211 835 251 792 q 174 877 189 858 q 157 897 158 896 q 142 949 139 921 q 169 994 146 978 q 222 1009 193 1013 q 267 982 250 1006 q 301 942 282 963 q 335 908 319 921 q 361 942 346 922 q 389 983 376 963 q 415 1008 399 1000 q 449 1017 431 1017 z "},"Ň":{"ha":867,"x_min":51,"x_max":817,"o":"m 513 1 q 378 44 440 1 q 192 369 260 126 q 191 262 192 313 q 190 172 190 211 q 190 108 190 133 q 190 76 190 82 q 169 27 190 47 q 121 7 149 7 q 72 27 92 7 q 51 76 51 47 q 51 131 51 86 q 52 241 51 175 q 53 388 53 307 q 56 551 54 468 q 61 719 58 646 q 67 846 64 793 q 72 903 69 879 q 76 947 74 928 l 85 985 q 117 1030 96 1019 q 149 1043 138 1040 q 201 1028 181 1046 q 228 992 221 1013 q 239 942 235 971 l 250 846 q 275 658 261 763 q 315 449 289 553 q 352 327 333 378 q 390 242 371 276 q 425 188 408 208 q 457 158 442 168 q 542 144 493 132 q 602 184 578 153 q 642 258 626 215 q 664 352 657 301 q 674 451 671 403 q 675 581 678 515 q 667 708 672 647 q 656 819 663 768 q 644 906 649 871 q 638 951 640 938 q 636 974 636 965 q 657 1023 636 1003 q 706 1043 678 1043 q 755 1023 735 1043 q 775 975 775 1003 l 782 925 q 794 835 788 889 q 806 717 801 782 q 814 583 811 653 q 813 443 817 513 q 760 179 804 283 q 689 72 732 114 q 574 8 642 25 q 543 3 558 6 q 513 1 528 1 m 551 1294 q 588 1285 569 1294 q 618 1242 611 1269 q 610 1189 625 1214 q 597 1167 610 1188 q 565 1124 585 1147 q 502 1058 531 1079 q 444 1035 474 1038 q 385 1051 415 1033 q 314 1113 354 1069 q 276 1155 292 1136 q 260 1175 261 1174 q 245 1227 242 1199 q 272 1272 249 1256 q 324 1287 296 1290 q 369 1260 353 1283 q 403 1219 385 1240 q 438 1186 422 1199 q 464 1220 449 1200 q 492 1261 479 1240 q 517 1286 501 1278 q 551 1294 533 1294 z "},"Ń":{"ha":867,"x_min":51,"x_max":817,"o":"m 513 1 q 378 44 440 1 q 192 369 260 126 q 191 262 192 313 q 190 172 190 211 q 190 108 190 133 q 190 76 190 82 q 169 27 190 47 q 121 7 149 7 q 72 27 92 7 q 51 76 51 47 q 51 131 51 86 q 52 241 51 175 q 53 388 53 307 q 56 551 54 468 q 61 719 58 646 q 67 846 64 793 q 72 903 69 879 q 76 947 74 928 l 85 985 q 117 1030 96 1019 q 149 1043 138 1040 q 201 1028 181 1046 q 228 992 221 1013 q 239 942 235 971 l 250 846 q 275 658 261 763 q 315 449 289 553 q 352 327 333 378 q 390 242 371 276 q 425 188 408 208 q 457 158 442 168 q 542 144 493 132 q 602 184 578 153 q 642 258 626 215 q 664 352 657 301 q 674 451 671 403 q 675 581 678 515 q 667 708 672 647 q 656 819 663 768 q 644 906 649 871 q 638 951 640 938 q 636 974 636 965 q 657 1023 636 1003 q 706 1043 678 1043 q 755 1023 735 1043 q 775 975 775 1003 l 782 925 q 794 835 788 889 q 806 717 801 782 q 814 583 811 653 q 813 443 817 513 q 760 179 804 283 q 689 72 732 114 q 574 8 642 25 q 543 3 558 6 q 513 1 528 1 m 388 1086 q 352 1096 368 1086 q 326 1124 336 1106 q 321 1176 313 1149 q 356 1217 329 1203 q 388 1235 369 1224 q 423 1258 406 1246 q 455 1281 440 1269 q 476 1304 469 1293 q 522 1332 494 1328 q 574 1318 550 1336 q 601 1272 597 1300 q 588 1221 606 1244 q 483 1131 556 1178 l 419 1093 q 388 1086 403 1086 z "},"Ŕ":{"ha":800,"x_min":46,"x_max":747,"o":"m 735 894 q 675 990 722 951 q 453 1039 600 1054 q 339 1017 400 1032 q 208 974 278 1001 q 188 1021 207 1001 q 140 1042 168 1040 l 139 1042 q 90 1022 111 1042 q 69 974 69 1001 q 67 852 68 925 q 64 694 65 779 q 60 519 63 610 q 56 344 58 428 q 51 189 53 260 q 47 72 49 118 q 65 22 46 43 q 114 0 85 1 l 117 0 q 165 19 144 0 q 186 67 185 39 q 190 180 188 111 q 194 332 192 249 q 281 358 240 343 q 358 390 322 374 l 603 31 q 652 -1 624 1 q 701 13 681 -3 q 730 55 722 28 q 717 111 738 82 l 481 460 q 518 488 500 475 q 551 515 536 501 q 669 646 624 576 q 733 785 719 719 q 735 894 747 842 m 599 817 q 551 719 588 771 q 460 621 515 668 q 354 544 419 585 q 197 476 289 504 l 206 824 q 349 875 283 856 q 468 900 415 894 q 553 899 526 907 q 588 883 581 890 q 599 817 610 865 m 378 1086 q 342 1096 358 1086 q 317 1124 326 1106 q 311 1176 303 1149 q 346 1217 319 1203 q 378 1235 360 1224 q 413 1258 396 1246 q 445 1281 431 1269 q 467 1304 460 1293 q 513 1332 485 1328 q 564 1318 540 1336 q 592 1272 588 1300 q 578 1221 596 1244 q 474 1131 546 1178 l 410 1093 q 378 1086 393 1086 z "},"Ď":{"ha":776,"x_min":43,"x_max":746,"o":"m 190 0 q 149 1 169 0 q 107 6 128 3 q 60 34 78 11 q 47 85 43 57 q 76 131 53 114 q 126 143 99 147 q 276 148 210 131 q 391 197 342 165 q 472 263 440 228 q 521 324 504 299 q 576 431 556 375 q 601 544 596 488 q 597 652 607 600 q 560 749 586 704 q 403 874 508 836 q 147 899 299 913 q 97 915 118 896 q 72 963 75 933 q 88 1013 69 990 q 135 1038 107 1035 q 475 994 335 1054 q 596 921 542 968 q 642 873 621 899 q 681 819 663 847 q 731 683 717 757 q 739 531 746 610 q 706 383 732 456 q 636 246 681 311 q 538 134 593 183 q 418 53 483 85 q 347 24 383 36 q 272 7 310 13 q 231 1 251 3 q 190 0 211 0 m 157 149 l 154 149 q 106 172 125 150 q 88 221 86 193 q 96 483 92 332 q 103 826 100 633 q 124 874 104 854 q 172 894 144 894 l 174 894 q 223 873 203 893 q 242 824 243 853 q 235 478 239 631 q 226 215 231 326 q 205 168 225 188 q 157 149 185 149 m 506 1364 q 542 1354 524 1364 q 572 1311 565 1339 q 564 1258 579 1283 q 551 1237 564 1257 q 519 1193 539 1217 q 456 1128 485 1149 q 399 1104 428 1107 q 339 1121 369 1103 q 268 1182 308 1139 q 231 1224 246 1206 q 214 1244 215 1243 q 199 1297 196 1268 q 226 1342 203 1325 q 278 1356 250 1360 q 324 1329 307 1353 q 358 1289 339 1310 q 392 1256 376 1268 q 418 1290 403 1269 q 446 1331 433 1310 q 472 1356 456 1347 q 506 1364 488 1364 z "},"Ě":{"ha":786,"x_min":51,"x_max":750,"o":"m 746 107 q 732 56 750 79 q 686 29 714 33 q 660 26 683 29 q 601 19 638 24 q 517 11 564 15 q 419 4 469 7 q 286 0 344 0 q 254 0 269 0 q 226 1 239 0 q 182 6 201 3 q 147 13 163 8 q 69 75 86 29 q 65 90 67 81 q 62 119 64 100 q 58 168 60 138 q 54 247 56 199 q 52 372 53 301 q 53 524 51 442 q 53 651 53 582 q 55 781 54 719 q 58 890 56 843 q 63 950 60 936 q 80 990 65 969 q 135 1022 94 1010 q 166 1028 149 1025 q 206 1033 183 1031 q 386 1042 272 1042 q 478 1041 433 1042 q 558 1039 524 1040 q 615 1037 593 1038 q 639 1036 638 1036 q 688 1014 668 1035 q 706 964 707 993 q 684 917 704 936 q 636 897 664 897 l 633 897 q 615 898 633 897 q 568 900 597 899 q 501 902 539 901 q 421 903 463 903 q 272 899 324 903 q 197 893 221 896 q 193 749 194 844 q 192 529 192 653 l 192 525 q 289 524 229 525 q 412 524 349 524 q 533 526 475 524 q 629 535 592 529 q 681 524 657 540 q 708 478 704 507 q 697 426 714 450 q 651 399 681 403 q 522 388 601 390 q 364 385 443 385 q 268 385 313 385 q 192 386 224 386 q 194 228 193 286 q 199 143 196 171 q 276 139 219 140 q 444 146 332 138 q 528 153 488 149 q 599 160 568 157 q 649 165 631 163 q 668 168 668 168 q 720 153 697 171 q 746 107 743 136 m 511 1364 q 547 1354 529 1364 q 578 1311 571 1339 q 569 1258 585 1283 q 557 1237 569 1257 q 525 1193 544 1217 q 462 1128 490 1149 q 404 1104 433 1107 q 344 1121 375 1103 q 274 1182 314 1139 q 236 1224 251 1206 q 219 1244 221 1243 q 205 1297 201 1268 q 232 1342 208 1325 q 284 1356 256 1360 q 329 1329 313 1353 q 363 1289 344 1310 q 397 1256 382 1268 q 424 1290 408 1269 q 451 1331 439 1310 q 477 1356 461 1347 q 511 1364 493 1364 z "},"Č":{"ha":838,"x_min":36,"x_max":807,"o":"m 458 0 q 386 7 425 0 q 319 24 351 13 q 256 53 286 36 q 143 149 190 90 q 65 292 93 210 q 38 478 38 378 q 43 587 36 533 q 64 689 50 640 q 140 861 92 785 q 194 928 165 897 q 254 982 222 958 q 397 1040 324 1031 q 508 1029 457 1047 q 610 969 561 1014 q 744 718 703 888 q 737 665 751 690 q 694 633 722 640 q 642 642 667 626 q 610 685 617 657 q 571 793 594 747 q 517 867 547 839 q 414 901 469 910 q 331 865 372 896 q 257 785 290 835 q 196 644 217 722 q 176 479 175 567 q 206 313 176 376 q 274 212 235 249 q 351 161 313 175 q 411 143 390 147 q 486 140 447 136 q 560 160 525 144 q 624 202 596 175 q 667 268 651 229 q 702 308 676 296 q 756 308 728 319 q 795 273 783 299 q 796 219 807 247 q 732 114 775 161 q 629 39 689 67 q 458 0 547 0 m 536 1364 q 572 1354 554 1364 q 603 1311 596 1339 q 594 1258 610 1283 q 582 1237 594 1257 q 550 1193 569 1217 q 487 1128 515 1149 q 429 1104 458 1107 q 369 1121 400 1103 q 299 1182 339 1139 q 261 1224 276 1206 q 244 1244 246 1243 q 230 1297 226 1268 q 257 1342 233 1325 q 309 1356 281 1360 q 354 1329 338 1353 q 388 1289 369 1310 q 422 1256 407 1268 q 449 1290 433 1269 q 476 1331 464 1310 q 502 1356 486 1347 q 536 1364 518 1364 z "},"Ć":{"ha":838,"x_min":36,"x_max":807,"o":"m 458 0 q 386 7 425 0 q 319 24 351 13 q 256 53 286 36 q 143 149 190 90 q 65 292 93 210 q 38 478 38 378 q 43 587 36 533 q 64 689 50 640 q 140 861 92 785 q 194 928 165 897 q 254 982 222 958 q 397 1040 324 1031 q 508 1029 457 1047 q 610 969 561 1014 q 744 718 703 888 q 737 665 751 690 q 694 633 722 640 q 642 642 667 626 q 610 685 617 657 q 571 793 594 747 q 517 867 547 839 q 414 901 469 910 q 331 865 372 896 q 257 785 290 835 q 196 644 217 722 q 176 479 175 567 q 206 313 176 376 q 274 212 235 249 q 351 161 313 175 q 411 143 390 147 q 486 140 447 136 q 560 160 525 144 q 624 202 596 175 q 667 268 651 229 q 702 308 676 296 q 756 308 728 319 q 795 273 783 299 q 796 219 807 247 q 732 114 775 161 q 629 39 689 67 q 458 0 547 0 m 365 1086 q 330 1096 346 1086 q 304 1124 314 1106 q 299 1176 290 1149 q 333 1217 307 1203 q 365 1235 347 1224 q 401 1258 383 1246 q 433 1281 418 1269 q 454 1304 447 1293 q 500 1332 472 1328 q 551 1318 528 1336 q 579 1272 575 1300 q 565 1221 583 1244 q 461 1131 533 1178 l 397 1093 q 365 1086 381 1086 z "},"č":{"ha":619,"x_min":31,"x_max":593,"o":"m 335 7 q 276 11 306 7 q 106 108 174 32 q 31 326 33 196 q 49 461 31 397 q 104 578 68 525 q 188 660 140 628 q 288 699 235 692 q 361 695 322 703 q 435 663 400 688 q 501 594 471 638 q 549 483 531 550 q 542 430 556 456 q 500 397 528 404 q 447 404 472 390 q 414 446 422 418 q 402 481 410 460 q 382 522 394 503 q 351 553 369 540 q 307 561 332 565 q 260 542 283 558 q 218 497 238 525 q 169 328 169 429 q 185 242 169 275 q 222 188 200 208 q 265 160 243 168 q 303 149 288 151 q 352 146 326 143 q 399 158 378 149 q 429 176 414 164 q 453 208 444 188 q 490 247 464 236 q 543 247 515 258 q 582 210 571 236 q 582 157 593 185 q 532 83 565 115 q 454 31 499 50 q 397 13 426 18 q 335 7 367 7 m 408 1017 q 444 1007 426 1017 q 475 964 468 992 q 467 911 482 936 q 454 890 467 910 q 422 846 442 869 q 359 781 388 801 q 301 757 331 760 q 242 774 272 756 q 171 835 211 792 q 133 877 149 858 q 117 897 118 896 q 102 949 99 921 q 129 994 106 978 q 181 1009 153 1013 q 226 982 210 1006 q 260 942 242 963 q 294 908 279 921 q 321 942 306 922 q 349 983 336 963 q 374 1008 358 1000 q 408 1017 390 1017 z "},"ě":{"ha":638,"x_min":36,"x_max":597,"o":"m 346 -6 q 316 -4 331 -6 q 286 0 301 -3 q 113 100 181 22 q 36 314 40 185 l 36 324 q 44 415 36 374 q 67 489 53 457 q 97 546 81 521 q 129 588 113 571 q 222 658 169 632 q 332 689 274 685 q 485 650 418 696 q 543 588 521 625 q 572 507 565 551 q 554 403 579 454 q 526 352 543 376 q 485 308 508 328 q 442 277 468 293 q 379 249 415 261 q 297 230 343 236 q 193 231 250 224 q 222 187 206 204 q 256 159 239 169 q 289 144 274 149 q 313 138 304 139 q 403 144 361 128 q 458 194 444 160 q 496 233 469 222 q 549 232 522 243 q 587 195 576 221 q 586 142 597 169 q 460 18 553 57 q 346 -6 406 -6 m 436 1017 q 472 1007 454 1017 q 503 964 496 992 q 494 911 510 936 q 482 890 494 910 q 450 846 469 869 q 387 781 415 801 q 329 757 358 760 q 269 774 300 756 q 199 835 239 792 q 161 877 176 858 q 144 897 146 896 q 130 949 126 921 q 157 994 133 978 q 209 1009 181 1013 q 254 982 238 1006 q 288 942 269 963 q 322 908 307 921 q 349 942 333 922 q 376 983 364 963 q 402 1008 386 1000 q 436 1017 418 1017 m 179 374 q 259 367 224 365 q 320 376 294 368 q 364 394 346 383 q 393 414 382 404 q 428 458 419 436 q 433 488 436 479 q 417 525 431 513 q 389 544 404 538 q 360 550 374 550 q 340 550 346 550 q 232 494 276 546 q 179 374 190 449 z "},"ń":{"ha":663,"x_min":50,"x_max":615,"o":"m 531 -1 l 526 -1 q 478 23 497 1 q 461 72 458 44 q 467 258 468 176 q 458 400 467 340 q 436 494 450 464 q 411 538 422 525 q 371 554 396 554 q 335 544 351 554 q 306 517 319 533 q 282 481 293 501 q 263 442 271 461 q 216 279 235 375 q 190 64 197 183 q 167 17 188 36 q 118 -1 146 -3 q 70 21 90 0 q 51 69 50 42 q 54 180 53 128 q 58 283 56 232 q 63 449 61 367 q 67 625 65 531 q 88 673 67 653 q 138 693 108 693 q 185 672 165 693 q 206 622 206 651 l 206 613 q 291 677 247 661 q 371 693 335 693 q 449 678 413 693 q 513 632 485 663 q 594 430 574 567 q 600 64 615 293 q 578 17 597 36 q 531 -1 558 -1 m 281 739 q 245 749 261 739 q 219 776 229 758 q 214 828 206 801 q 249 869 222 856 q 281 888 263 876 q 316 910 299 899 q 348 934 333 922 q 369 957 363 946 q 415 985 388 981 q 467 971 443 989 q 494 925 490 953 q 481 874 499 897 q 376 783 449 831 l 313 746 q 281 739 296 739 z "},"ć":{"ha":619,"x_min":31,"x_max":593,"o":"m 335 7 q 276 11 306 7 q 106 108 174 32 q 31 326 33 196 q 49 461 31 397 q 104 578 68 525 q 188 660 140 628 q 288 699 235 692 q 361 695 322 703 q 435 663 400 688 q 501 594 471 638 q 549 483 531 550 q 542 430 556 456 q 500 397 528 404 q 447 404 472 390 q 414 446 422 418 q 402 481 410 460 q 382 522 394 503 q 351 553 369 540 q 307 561 332 565 q 260 542 283 558 q 218 497 238 525 q 169 328 169 429 q 185 242 169 275 q 222 188 200 208 q 265 160 243 168 q 303 149 288 151 q 352 146 326 143 q 399 158 378 149 q 429 176 414 164 q 453 208 444 188 q 490 247 464 236 q 543 247 515 258 q 582 210 571 236 q 582 157 593 185 q 532 83 565 115 q 454 31 499 50 q 397 13 426 18 q 335 7 367 7 m 249 739 q 213 749 229 739 q 188 776 197 758 q 182 828 174 801 q 217 869 190 856 q 249 888 231 876 q 284 910 267 899 q 316 934 301 922 q 338 957 331 946 q 383 985 356 981 q 435 971 411 989 q 463 925 458 953 q 449 874 467 897 q 344 783 417 831 l 281 746 q 249 739 264 739 z "},"Ĺ":{"ha":756,"x_min":53,"x_max":751,"o":"m 286 0 q 254 0 269 0 q 225 1 239 0 q 181 6 200 3 q 146 13 161 8 q 68 75 85 29 q 63 98 65 82 q 58 162 60 114 q 54 303 56 210 q 54 560 53 397 q 56 712 54 638 q 58 844 57 786 q 59 938 58 903 q 60 974 60 974 q 82 1023 61 1003 q 131 1042 103 1043 q 180 1019 160 1040 q 199 971 200 999 q 198 935 199 969 q 197 846 197 901 q 194 719 196 790 q 193 571 193 647 q 192 393 192 467 q 193 269 192 319 q 195 190 194 219 q 197 143 196 160 q 276 139 219 140 q 444 146 332 138 q 528 153 488 149 q 601 160 569 157 q 651 166 632 164 q 669 168 669 168 q 722 153 699 171 q 747 107 744 136 q 733 56 751 79 q 688 29 715 33 q 662 26 685 29 q 601 19 639 24 q 517 11 564 15 q 419 4 469 7 q 286 0 344 0 m 278 1049 q 242 1058 258 1049 q 217 1086 226 1068 q 211 1138 203 1111 q 246 1179 219 1165 q 278 1197 260 1186 q 313 1220 296 1208 q 345 1244 331 1232 q 367 1267 360 1256 q 413 1294 385 1290 q 464 1281 440 1299 q 492 1235 488 1263 q 478 1183 496 1207 q 374 1093 446 1140 l 310 1056 q 278 1049 293 1049 z "},"ĺ":{"ha":219,"x_min":31,"x_max":329,"o":"m 101 -1 l 100 -1 q 51 21 71 0 q 32 69 31 42 q 35 195 33 118 q 38 363 36 272 q 40 553 39 454 q 43 743 42 651 q 46 913 44 835 q 47 1044 47 992 q 68 1094 47 1074 q 118 1114 89 1114 q 166 1093 146 1114 q 186 1043 186 1072 q 184 912 185 990 q 182 741 183 833 q 179 551 181 649 q 176 361 178 453 q 174 192 175 269 q 171 67 172 115 q 149 19 169 39 q 101 -1 129 -1 m 111 1171 q 76 1181 92 1171 q 50 1208 60 1190 q 44 1260 36 1233 q 79 1301 53 1288 q 111 1319 93 1308 q 147 1342 129 1331 q 178 1366 164 1354 q 200 1389 193 1378 q 246 1417 218 1413 q 297 1403 274 1421 q 325 1357 321 1385 q 311 1306 329 1329 q 207 1215 279 1263 l 143 1178 q 111 1171 126 1171 z "},"Đ":{"ha":776,"x_min":8,"x_max":746,"o":"m 190 0 q 149 1 169 0 q 107 6 128 3 q 60 34 78 11 q 47 85 43 57 q 76 131 53 114 q 126 143 99 147 q 276 148 210 131 q 391 197 342 165 q 472 263 440 228 q 521 324 504 299 q 576 431 556 375 q 601 544 596 488 q 597 652 607 600 q 560 749 586 704 q 403 874 508 836 q 147 899 299 913 q 97 915 118 896 q 72 963 75 933 q 88 1013 69 990 q 135 1038 107 1035 q 475 994 335 1054 q 596 921 542 968 q 642 873 621 899 q 681 819 663 847 q 731 683 717 757 q 739 531 746 610 q 706 383 732 456 q 636 246 681 311 q 538 134 593 183 q 418 53 483 85 q 347 24 383 36 q 272 7 310 13 q 231 1 251 3 q 190 0 211 0 m 81 483 q 26 505 44 483 q 8 553 8 526 q 26 601 8 579 q 81 622 44 622 l 99 622 l 103 826 q 124 874 104 854 q 172 894 144 894 l 174 894 q 223 873 203 893 q 242 824 243 853 l 238 622 l 342 622 q 396 601 378 622 q 414 553 414 579 q 396 505 414 526 q 342 483 378 483 l 235 483 l 226 215 q 205 168 225 188 q 157 149 185 149 l 154 149 q 106 172 125 150 q 88 221 86 193 l 96 483 l 81 483 z "},"Ė":{"ha":786,"x_min":51,"x_max":750,"o":"m 746 107 q 720 153 743 136 q 668 168 697 171 q 649 165 668 168 q 599 160 631 163 q 528 153 568 157 q 444 146 488 149 q 276 139 332 138 q 199 143 219 140 q 194 228 196 171 q 192 386 193 286 q 268 385 224 386 q 364 385 313 385 q 522 388 443 385 q 651 399 601 390 q 697 426 681 403 q 708 478 714 450 q 681 524 704 507 q 629 535 657 540 q 533 526 592 529 q 412 524 475 524 q 289 524 349 524 q 192 525 229 525 l 192 529 q 193 749 192 653 q 197 893 194 844 q 272 899 221 896 q 421 903 324 903 q 501 902 463 903 q 568 900 539 901 q 615 898 597 899 q 633 897 633 897 l 636 897 q 684 917 664 897 q 706 964 704 936 q 688 1014 707 993 q 639 1036 668 1035 q 615 1037 638 1036 q 558 1039 593 1038 q 478 1041 524 1040 q 386 1042 433 1042 q 206 1033 272 1042 q 166 1028 183 1031 q 135 1022 149 1025 q 80 990 94 1010 q 63 950 65 969 q 58 890 60 936 q 55 781 56 843 q 53 651 54 719 q 53 524 53 582 q 52 372 51 442 q 54 247 53 301 q 58 168 56 199 q 62 119 60 138 q 65 90 64 100 q 69 75 67 81 q 147 13 86 29 q 182 6 163 8 q 226 1 201 3 q 254 0 239 0 q 286 0 269 0 q 419 4 344 0 q 517 11 469 7 q 601 19 564 15 q 660 26 638 24 q 686 29 683 29 q 732 56 714 33 q 746 107 750 79 m 463 1169 q 442 1120 463 1140 q 393 1100 422 1100 q 344 1120 364 1100 q 324 1169 324 1140 q 344 1219 324 1199 q 393 1239 364 1239 q 442 1219 422 1239 q 463 1169 463 1199 z "},"ė":{"ha":638,"x_min":36,"x_max":597,"o":"m 346 -6 q 316 -4 331 -6 q 286 0 301 -3 q 113 100 181 22 q 36 314 40 185 l 36 324 q 44 415 36 374 q 67 489 53 457 q 97 546 81 521 q 129 588 113 571 q 222 658 169 632 q 332 689 274 685 q 485 650 418 696 q 543 588 521 625 q 572 507 565 551 q 554 403 579 454 q 526 352 543 376 q 485 308 508 328 q 442 277 468 293 q 379 249 415 261 q 297 230 343 236 q 193 231 250 224 q 222 187 206 204 q 256 159 239 169 q 289 144 274 149 q 313 138 304 139 q 403 144 361 128 q 458 194 444 160 q 496 233 469 222 q 549 232 522 243 q 587 195 576 221 q 586 142 597 169 q 460 18 553 57 q 346 -6 406 -6 m 179 374 q 259 367 224 365 q 320 376 294 368 q 364 394 346 383 q 393 414 382 404 q 428 458 419 436 q 433 488 436 479 q 417 525 431 513 q 389 544 404 538 q 360 550 374 550 q 340 550 346 550 q 232 494 276 546 q 179 374 190 449 m 388 822 q 367 773 388 793 q 318 753 347 753 q 269 773 289 753 q 249 822 249 793 q 269 872 249 851 q 318 892 289 892 q 367 872 347 892 q 388 822 388 851 z "},"İ":{"ha":843,"x_min":39,"x_max":806,"o":"m 804 76 q 783 126 804 106 q 733 144 763 146 q 604 141 669 142 q 469 139 539 140 q 472 245 471 185 q 476 374 474 306 q 479 513 478 442 q 482 654 481 585 q 485 786 483 724 q 488 899 486 849 q 594 899 540 899 q 710 903 647 900 q 758 925 738 904 q 776 974 778 946 q 756 1023 776 1003 q 706 1042 735 1043 q 563 1038 629 1039 q 430 1036 496 1036 q 294 1038 364 1036 q 142 1042 225 1039 q 92 1024 114 1043 q 69 975 71 1004 q 88 925 68 946 q 136 903 108 904 q 248 899 196 900 q 349 897 300 899 q 345 719 347 822 q 340 510 343 617 q 335 306 338 404 q 331 139 332 207 q 224 141 278 140 q 113 144 169 142 q 63 126 85 146 q 40 78 42 106 q 59 28 39 49 q 107 6 79 7 q 257 1 185 3 q 400 0 329 0 q 574 1 490 0 q 738 6 657 3 q 785 28 765 7 q 804 76 806 49 m 490 1169 q 470 1120 490 1140 q 421 1100 450 1100 q 372 1120 392 1100 q 351 1169 351 1140 q 372 1219 351 1199 q 421 1239 392 1239 q 470 1219 450 1239 q 490 1169 490 1199 z "},".":{"ha":214,"x_min":38,"x_max":176,"o":"m 176 69 q 156 20 176 40 q 107 0 136 0 q 58 20 78 0 q 38 69 38 40 q 58 119 38 99 q 107 139 78 139 q 156 119 136 139 q 176 69 176 99 z "},":":{"ha":225,"x_min":43,"x_max":182,"o":"m 182 69 q 162 20 182 40 q 113 0 142 0 q 63 20 83 0 q 43 69 43 40 q 63 119 43 99 q 113 139 83 139 q 162 119 142 139 q 182 69 182 99 m 182 528 q 162 478 182 499 q 113 458 142 458 q 63 478 83 458 q 43 528 43 499 q 63 577 43 557 q 113 597 83 597 q 162 577 142 597 q 182 528 182 557 z "},"|":{"ha":242,"x_min":40,"x_max":196,"o":"m 111 -235 l 110 -235 q 60 -212 81 -233 q 42 -164 40 -192 q 44 -38 43 -115 q 47 130 46 39 q 50 319 49 221 q 53 510 51 418 q 55 680 54 601 q 57 811 56 758 q 78 860 57 840 q 128 881 99 881 q 176 860 156 881 q 196 810 196 839 q 194 678 194 757 q 192 508 193 600 q 189 317 190 415 q 186 128 188 219 q 183 -41 185 36 q 181 -167 182 -118 q 159 -215 179 -194 q 111 -235 139 -235 z "},"_":{"ha":843,"x_min":44,"x_max":799,"o":"m 799 -249 l 799 -250 q 776 -299 797 -279 q 728 -318 756 -319 q 425 -323 579 -315 q 114 -328 271 -331 q 65 -307 85 -328 q 44 -257 44 -286 q 65 -209 44 -229 q 115 -189 86 -189 q 427 -184 272 -192 q 731 -179 582 -176 q 778 -201 758 -181 q 799 -249 799 -221 z "},"¸":{"ha":357,"x_min":40,"x_max":332,"o":"m 147 -408 q 129 -408 138 -408 q 113 -406 121 -407 q 66 -378 83 -401 q 53 -328 49 -356 q 81 -281 57 -299 q 132 -268 104 -264 q 162 -269 146 -271 q 185 -253 178 -267 q 190 -233 190 -244 q 185 -215 190 -222 q 157 -205 175 -204 q 129 -208 139 -206 q 67 -193 93 -215 q 43 -132 40 -169 l 58 3 q 84 50 61 32 q 136 65 107 68 q 182 40 164 63 q 197 -12 200 17 l 190 -68 l 211 -74 q 296 -133 265 -92 q 329 -227 326 -174 q 304 -325 332 -281 q 239 -387 281 -365 q 147 -408 197 -408 z "},"Ç":{"ha":838,"x_min":36,"x_max":807,"o":"m 407 -393 q 389 -392 397 -393 q 372 -390 381 -392 q 326 -363 343 -386 q 313 -312 308 -340 q 340 -266 317 -283 q 392 -253 364 -249 q 422 -253 406 -256 q 444 -237 438 -251 q 450 -218 450 -229 q 444 -200 450 -207 q 417 -190 435 -189 q 389 -193 399 -190 q 326 -178 353 -200 q 303 -117 300 -154 l 318 18 l 318 24 q 286 37 301 29 q 256 53 271 44 q 143 149 190 90 q 65 292 93 210 q 38 478 38 378 q 43 587 36 533 q 64 689 50 640 q 140 861 92 785 q 194 928 165 897 q 254 982 222 958 q 397 1040 324 1031 q 508 1029 457 1047 q 610 969 561 1014 q 744 718 703 888 q 737 665 751 690 q 694 633 722 640 q 642 642 667 626 q 610 685 617 657 q 571 793 594 747 q 517 867 547 839 q 414 901 469 910 q 331 865 372 896 q 257 785 290 835 q 196 644 217 722 q 176 479 175 567 q 206 313 176 376 q 274 212 235 249 q 351 161 313 175 q 411 143 390 147 q 486 140 447 136 q 560 160 525 144 q 624 202 596 175 q 667 268 651 229 q 702 308 676 296 q 756 308 728 319 q 795 273 783 299 q 796 219 807 247 q 732 114 775 161 q 629 39 689 67 q 458 0 547 0 l 456 0 l 450 -53 l 471 -58 q 556 -118 525 -76 q 589 -212 586 -158 q 564 -310 592 -265 q 499 -372 540 -350 q 407 -393 457 -393 z "},"ç":{"ha":619,"x_min":31,"x_max":593,"o":"m 300 -376 q 282 -376 290 -376 q 265 -374 274 -375 q 219 -347 236 -369 q 206 -296 201 -324 q 233 -249 210 -267 q 285 -236 257 -232 q 315 -237 299 -239 q 338 -221 331 -235 q 343 -201 343 -212 q 338 -183 343 -190 q 310 -173 328 -172 q 282 -176 292 -174 q 219 -161 246 -183 q 196 -100 193 -137 l 211 32 q 106 108 150 57 q 31 326 33 196 q 49 461 31 397 q 104 578 68 525 q 188 660 140 628 q 288 699 235 692 q 361 695 322 703 q 435 663 400 688 q 501 594 471 638 q 549 483 531 550 q 542 430 556 456 q 500 397 528 404 q 447 404 472 390 q 414 446 422 418 q 402 481 410 460 q 382 522 394 503 q 351 553 369 540 q 307 561 332 565 q 260 542 283 558 q 218 497 238 525 q 169 328 169 429 q 185 242 169 275 q 222 188 200 208 q 265 160 243 168 q 303 149 288 151 q 352 146 326 143 q 399 158 378 149 q 429 176 414 164 q 453 208 444 188 q 490 247 464 236 q 543 247 515 258 q 582 210 571 236 q 582 157 593 185 q 532 83 565 115 q 454 31 499 50 q 403 14 429 19 q 349 7 376 8 l 343 -36 l 364 -42 q 449 -101 418 -60 q 482 -195 479 -142 q 457 -293 485 -249 q 392 -355 433 -333 q 300 -376 350 -376 z "},"Ş":{"ha":697,"x_min":31,"x_max":663,"o":"m 363 -397 q 344 -397 353 -397 q 328 -394 336 -396 q 281 -367 299 -390 q 268 -317 264 -344 q 296 -270 272 -287 q 347 -257 319 -253 q 377 -258 361 -260 q 400 -242 393 -256 q 406 -222 406 -233 q 400 -204 406 -211 q 372 -194 390 -193 q 344 -197 354 -194 q 282 -182 308 -204 q 258 -121 256 -158 l 274 14 q 169 60 217 28 q 68 169 106 100 q 35 335 31 243 q 58 382 38 363 q 108 400 79 401 q 157 376 138 397 q 174 326 176 356 q 246 175 168 228 q 356 140 293 144 q 467 158 418 135 q 521 233 517 185 q 508 303 522 271 q 464 365 493 335 q 392 425 435 394 q 299 490 350 456 q 213 548 256 518 q 138 611 171 578 q 53 796 49 697 q 100 924 57 868 q 201 1004 139 972 q 286 1034 242 1025 q 374 1042 331 1043 q 459 1028 418 1040 q 533 993 500 1015 q 621 885 592 951 q 640 725 649 814 q 615 679 638 697 q 564 664 593 661 q 517 689 536 667 q 501 739 499 711 q 454 878 511 839 q 365 903 418 903 q 263 879 311 903 q 243 868 254 875 q 221 850 232 861 q 201 824 210 839 q 192 790 193 808 q 206 744 190 767 q 247 698 221 721 q 306 652 272 675 q 375 606 339 629 q 474 538 425 574 q 564 460 524 503 q 635 357 613 408 q 658 226 663 293 q 618 110 657 161 q 529 35 586 65 q 413 1 475 8 l 413 -1 l 406 -57 l 426 -62 q 511 -122 481 -81 q 544 -216 542 -162 q 519 -314 547 -269 q 454 -376 496 -354 q 363 -397 413 -397 z "},"ş":{"ha":568,"x_min":36,"x_max":532,"o":"m 300 -383 q 282 -383 290 -383 q 265 -381 274 -382 q 219 -353 236 -376 q 206 -303 201 -331 q 233 -256 210 -274 q 285 -243 257 -239 q 315 -244 299 -246 q 338 -228 331 -242 q 343 -208 343 -219 q 338 -190 343 -197 q 310 -180 328 -179 q 282 -183 292 -181 q 219 -168 246 -190 q 196 -107 193 -144 l 208 11 q 133 47 168 24 q 64 122 86 79 q 40 233 36 174 q 65 281 43 263 q 114 299 86 300 q 163 274 143 296 q 179 224 182 253 q 183 194 178 211 q 211 163 188 178 q 249 145 228 151 q 291 138 269 139 q 332 141 313 138 q 367 151 351 144 q 385 164 382 158 q 388 172 388 169 q 376 206 389 189 q 342 240 363 224 q 294 272 321 256 q 242 303 268 288 q 179 339 210 321 q 124 379 149 357 q 53 517 50 440 q 84 601 56 563 q 161 664 113 639 q 227 687 193 679 q 297 693 261 694 q 436 653 381 693 q 500 574 481 621 q 513 468 519 526 q 486 422 508 440 q 435 407 464 404 q 389 433 407 410 q 374 485 371 456 q 369 525 378 514 q 357 539 361 536 q 329 551 346 547 q 294 554 313 554 q 258 551 276 554 q 222 539 239 547 q 200 524 207 532 q 192 510 193 515 q 196 502 192 508 q 213 485 200 496 q 256 454 231 469 q 310 424 282 439 q 382 381 346 403 q 449 331 418 358 q 525 163 532 256 q 497 83 522 118 q 428 26 472 47 q 349 1 393 8 l 343 -43 l 364 -49 q 449 -108 418 -67 q 482 -202 479 -149 q 457 -300 485 -256 q 392 -362 433 -340 q 300 -383 350 -383 z "},"˘":{"ha":481,"x_min":40,"x_max":442,"o":"m 229 738 q 142 754 175 738 q 92 789 108 771 q 53 847 67 813 q 40 919 40 881 q 60 969 40 949 q 110 989 81 989 q 159 969 139 989 q 179 919 179 949 q 197 876 179 890 q 238 861 215 861 q 280 878 260 861 q 303 929 300 894 q 324 978 306 957 q 372 999 343 999 q 421 978 400 999 q 442 929 442 957 q 431 862 442 893 q 400 807 421 831 q 331 756 372 772 q 231 738 289 738 l 229 738 z "},"Ğ":{"ha":953,"x_min":38,"x_max":935,"o":"m 929 343 q 901 388 925 371 q 850 400 878 404 q 497 400 722 379 q 446 385 468 403 q 421 338 424 367 q 437 288 418 310 q 483 263 456 265 q 576 255 532 257 q 660 251 619 253 q 615 193 643 217 q 554 156 588 169 q 484 140 521 143 q 413 143 447 136 q 353 161 392 147 q 275 212 314 175 q 207 313 236 249 q 176 479 178 376 q 197 644 176 567 q 258 785 218 722 q 333 865 292 835 q 415 901 374 896 q 518 867 471 910 q 572 792 549 839 q 611 683 596 746 q 643 641 618 656 q 696 633 668 626 q 738 665 724 640 q 746 718 753 690 q 611 969 704 885 q 510 1029 563 1014 q 399 1040 458 1047 q 256 982 325 1031 q 195 928 224 958 q 142 860 167 897 q 65 689 93 786 q 38 478 38 586 q 67 292 40 375 q 144 149 94 210 q 257 53 192 90 q 388 6 321 18 q 423 1 406 3 q 458 0 440 0 q 631 39 553 0 q 733 114 690 67 q 797 219 776 161 q 801 254 804 236 q 872 263 839 256 q 917 291 900 268 q 929 343 935 314 m 429 1085 q 342 1101 375 1085 q 292 1136 308 1118 q 253 1194 267 1160 q 240 1267 240 1228 q 260 1316 240 1296 q 310 1336 281 1336 q 359 1316 339 1336 q 379 1267 379 1296 q 397 1223 379 1238 q 438 1208 415 1208 q 480 1225 460 1208 q 503 1276 500 1242 q 524 1325 506 1304 q 572 1346 543 1346 q 621 1325 600 1346 q 642 1276 642 1304 q 631 1209 642 1240 q 600 1154 621 1178 q 531 1103 572 1119 q 431 1085 489 1085 l 429 1085 z "},"ğ":{"ha":626,"x_min":35,"x_max":600,"o":"m 389 126 q 445 151 418 136 q 496 186 472 165 q 557 262 533 218 q 588 353 581 306 q 560 500 600 435 q 425 594 518 571 q 407 597 414 597 q 410 625 411 611 q 387 672 408 653 q 336 689 365 692 q 204 656 261 685 q 110 583 147 626 q 53 488 72 540 q 35 381 35 435 q 101 201 38 275 q 249 121 161 138 q 244 75 246 97 q 239 31 242 53 l 235 -15 q 189 -37 210 -24 q 149 -65 168 -50 q 97 -137 115 -97 q 78 -219 78 -176 q 95 -295 79 -260 q 142 -358 111 -331 q 303 -418 204 -414 l 311 -418 q 475 -351 406 -418 q 526 -282 507 -321 q 547 -201 544 -243 q 500 -64 551 -119 q 454 -26 483 -44 q 376 1 425 -8 q 377 8 376 4 q 378 15 378 13 q 383 71 381 43 q 389 126 386 99 m 301 738 q 214 754 247 738 q 164 789 181 771 q 126 847 139 813 q 113 919 113 881 q 133 969 113 949 q 182 989 153 989 q 231 969 211 989 q 251 919 251 949 q 269 876 251 890 q 310 861 288 861 q 352 878 332 861 q 375 929 372 894 q 397 978 378 957 q 444 999 415 999 q 493 978 472 999 q 514 929 514 957 q 503 862 514 893 q 472 807 493 831 q 403 756 444 772 q 303 738 361 738 l 301 738 m 174 382 q 183 440 174 411 q 214 492 193 468 q 267 531 235 515 q 343 550 299 547 l 340 544 q 348 492 333 517 q 390 460 363 467 q 444 423 435 449 q 450 374 454 397 q 436 330 447 351 q 406 292 425 308 q 363 265 388 275 q 307 254 338 254 l 300 254 q 242 267 265 256 q 203 297 218 279 q 181 338 188 315 q 174 382 174 360 m 408 -192 q 379 -251 406 -226 q 351 -272 368 -262 q 307 -279 333 -281 q 242 -260 267 -276 q 217 -218 218 -244 q 242 -169 217 -192 q 276 -147 253 -158 q 340 -133 300 -136 q 408 -192 411 -142 z "},"œ":{"ha":1085,"x_min":43,"x_max":1039,"o":"m 317 -6 q 303 -4 307 -6 q 189 29 239 -1 q 107 104 140 57 q 44 313 47 190 q 61 441 43 379 q 114 554 79 503 q 208 646 153 610 q 274 675 240 664 q 344 689 307 686 q 395 673 374 692 q 419 625 417 654 q 397 568 422 590 q 439 568 417 575 q 522 519 489 550 q 546 557 533 540 q 571 588 558 574 q 663 658 611 632 q 774 689 715 685 q 926 650 860 696 q 985 588 963 625 q 1014 507 1007 551 q 996 403 1021 454 q 967 352 985 376 q 926 308 950 328 q 883 277 910 293 q 821 249 857 261 q 738 230 785 236 q 635 231 692 224 q 664 187 647 204 q 698 159 681 169 q 731 144 715 149 q 754 138 746 139 q 844 144 803 128 q 900 194 886 160 q 938 233 911 222 q 990 232 964 243 q 1028 195 1018 221 q 1028 142 1039 169 q 901 18 994 57 q 788 -6 847 -6 q 758 -4 772 -6 q 728 0 743 -3 q 554 100 622 22 l 538 119 q 503 76 522 96 q 415 15 463 36 q 317 -6 367 -6 m 356 550 q 277 524 310 546 q 224 468 244 501 q 193 394 203 435 q 183 314 183 354 q 193 242 183 276 q 221 185 203 208 q 310 133 254 138 l 315 133 q 367 147 343 133 q 409 181 390 160 q 440 228 428 201 q 457 285 451 256 q 450 385 468 340 q 396 436 433 424 q 355 470 368 444 q 351 524 342 496 q 358 538 354 531 q 369 551 363 546 q 356 550 360 551 m 621 374 q 701 367 665 365 q 762 376 736 368 q 806 394 788 383 q 835 414 824 404 q 869 458 861 436 q 875 488 878 479 q 859 525 872 513 q 831 544 846 538 q 801 550 815 550 q 782 550 788 550 q 674 494 718 546 q 621 374 632 449 z "},"Œ":{"ha":1415,"x_min":42,"x_max":1371,"o":"m 417 0 q 399 1 404 0 q 242 50 314 6 q 131 161 175 93 q 68 303 90 224 q 44 471 46 382 q 67 661 42 572 q 97 754 79 710 q 140 838 115 799 q 272 975 194 922 q 463 1042 357 1031 q 513 1026 490 1044 q 538 979 535 1007 q 522 928 540 950 q 475 903 503 906 q 346 856 401 896 q 254 756 290 817 q 200 622 218 696 q 183 474 182 549 q 199 355 185 414 q 240 249 213 296 q 308 172 267 203 q 407 139 350 142 l 415 139 q 502 165 463 139 q 573 232 542 190 q 626 326 604 274 q 658 431 647 378 q 669 553 671 493 q 651 663 667 613 q 546 786 621 761 q 506 822 518 796 q 504 875 493 847 q 539 915 514 903 q 592 918 564 928 q 678 869 640 899 q 680 921 679 900 q 683 950 681 942 q 701 990 686 969 q 756 1022 715 1010 q 787 1028 769 1025 q 826 1033 804 1031 q 1007 1042 893 1042 q 1099 1041 1054 1042 q 1179 1039 1144 1040 q 1236 1037 1214 1038 q 1260 1036 1258 1036 q 1308 1014 1289 1035 q 1326 964 1328 993 q 1305 917 1325 936 q 1257 897 1285 897 l 1254 897 q 1236 898 1254 897 q 1189 900 1218 899 q 1122 902 1160 901 q 1042 903 1083 903 q 893 899 944 903 q 818 893 842 896 q 814 749 815 844 q 813 529 813 653 l 813 525 q 910 524 850 525 q 1033 524 969 524 q 1154 526 1096 524 q 1250 535 1213 529 q 1301 524 1278 540 q 1329 478 1325 507 q 1318 426 1335 450 q 1272 399 1301 403 q 1143 388 1222 390 q 985 385 1064 385 q 889 385 933 385 q 813 386 844 386 q 815 228 814 286 q 819 143 817 171 q 897 139 840 140 q 1065 146 953 138 q 1149 153 1108 149 q 1220 160 1189 157 q 1270 165 1251 163 q 1289 168 1289 168 q 1341 153 1318 171 q 1367 107 1364 136 q 1353 56 1371 79 q 1307 29 1335 33 q 1281 26 1304 29 q 1222 19 1258 24 q 1138 11 1185 15 q 1040 4 1090 7 q 907 0 965 0 q 875 0 890 0 q 847 1 860 0 q 803 6 822 3 q 768 13 783 8 q 690 75 707 29 q 685 96 688 82 q 679 140 682 110 l 667 125 q 550 32 613 63 q 417 0 483 0 z "},"Æ":{"ha":1263,"x_min":50,"x_max":1219,"o":"m 1215 107 q 1201 56 1219 79 q 1156 29 1183 33 q 1130 26 1153 29 q 1070 19 1107 24 q 986 11 1033 15 q 889 4 939 7 q 756 0 814 0 q 724 0 739 0 q 696 1 708 0 q 651 6 671 3 q 617 13 632 8 q 539 75 556 29 q 533 103 536 85 q 526 171 529 122 q 463 165 496 167 q 394 164 431 164 q 298 167 349 164 q 189 175 247 169 q 189 133 189 151 q 190 103 189 115 l 190 78 q 170 28 190 49 q 121 8 150 8 q 72 28 92 8 q 51 78 51 49 l 51 100 q 51 166 51 124 q 51 263 50 208 q 53 380 51 317 q 63 508 56 443 q 115 799 78 685 q 210 975 151 914 q 357 1042 272 1039 q 496 982 436 1044 q 513 962 504 972 q 531 940 522 951 q 532 950 531 947 q 549 990 535 969 q 604 1022 564 1010 q 635 1028 618 1025 q 675 1033 653 1031 q 856 1042 742 1042 q 948 1041 903 1042 q 1028 1039 993 1040 q 1085 1037 1063 1038 q 1108 1036 1107 1036 q 1157 1014 1138 1035 q 1175 964 1176 993 q 1153 917 1174 936 q 1106 897 1133 897 l 1103 897 q 1085 898 1103 897 q 1038 900 1067 899 q 970 902 1008 901 q 890 903 932 903 q 742 899 793 903 q 667 893 690 896 q 663 749 664 844 q 661 529 661 653 l 661 525 q 758 524 699 525 q 881 524 818 524 q 1003 526 944 524 q 1099 535 1061 529 q 1150 524 1126 540 q 1178 478 1174 507 q 1167 426 1183 450 q 1121 399 1150 403 q 992 388 1071 390 q 833 385 913 385 q 738 385 782 385 q 661 386 693 386 q 664 228 663 286 q 668 143 665 171 q 745 139 689 140 q 914 146 801 138 q 997 153 957 149 q 1069 160 1038 157 q 1119 165 1100 163 q 1138 168 1138 168 q 1190 153 1167 171 q 1215 107 1213 136 m 192 314 q 378 303 296 303 q 522 310 460 303 q 521 365 521 336 q 521 425 521 394 l 521 432 q 476 708 507 593 q 434 830 456 790 q 397 885 413 869 q 376 900 385 897 q 360 903 367 903 q 338 899 350 903 q 310 878 325 894 q 283 842 299 867 q 253 772 268 817 q 224 660 238 728 q 200 496 210 593 q 194 403 196 449 q 190 314 192 357 l 192 314 z "},"Ă":{"ha":711,"x_min":44,"x_max":669,"o":"m 654 443 q 606 743 638 617 q 490 982 563 910 q 351 1042 431 1044 q 204 975 267 1039 q 109 799 146 914 q 57 508 72 685 q 48 380 50 443 q 45 263 46 317 q 45 166 44 208 q 46 100 46 124 l 46 78 q 66 28 46 49 q 115 8 86 8 q 165 28 144 8 q 185 78 185 49 l 185 103 q 183 133 183 115 q 183 175 183 151 q 292 167 242 169 q 389 164 343 164 q 529 172 467 164 q 530 99 531 126 q 529 71 529 72 q 549 22 529 43 q 597 0 569 1 l 599 0 q 648 20 628 0 q 668 68 668 40 q 669 102 668 71 q 668 185 669 133 q 664 303 667 236 q 654 443 661 369 m 186 314 l 185 314 q 188 403 186 357 q 194 496 190 449 q 218 660 204 593 q 247 772 232 728 q 278 842 263 817 q 304 878 293 867 q 332 899 319 894 q 354 903 344 903 q 370 900 361 903 q 392 885 379 897 q 428 830 407 869 q 471 708 450 790 q 515 432 501 593 q 524 311 521 369 q 378 303 461 303 q 186 314 294 303 m 343 1085 q 256 1101 289 1085 q 206 1136 222 1118 q 167 1194 181 1160 q 154 1267 154 1228 q 174 1316 154 1296 q 224 1336 194 1336 q 273 1316 253 1336 q 293 1267 293 1296 q 311 1223 293 1238 q 351 1208 329 1208 q 394 1225 374 1208 q 417 1276 414 1242 q 438 1325 419 1304 q 486 1346 457 1346 q 535 1325 514 1346 q 556 1276 556 1304 q 545 1209 556 1240 q 514 1154 535 1178 q 444 1103 486 1119 q 344 1085 403 1085 l 343 1085 z "},"ă":{"ha":606,"x_min":33,"x_max":557,"o":"m 547 521 q 496 622 536 579 q 396 679 456 664 q 232 665 317 700 q 75 543 143 629 q 59 492 56 519 q 85 446 63 464 q 136 430 108 426 q 183 457 164 433 q 281 535 232 518 q 361 544 329 553 q 411 496 403 536 q 417 442 415 471 q 417 379 418 413 q 231 363 313 383 q 99 299 150 343 q 36 175 39 244 q 56 92 33 131 q 118 29 78 53 q 167 8 138 18 q 238 -1 196 -1 q 317 8 274 -1 q 414 40 361 17 q 438 10 421 22 q 476 -1 456 -1 l 478 -1 q 526 19 506 -1 q 547 68 547 39 q 549 181 547 131 q 553 276 550 232 q 556 410 556 353 q 547 521 557 468 m 290 738 q 203 754 236 738 q 153 789 169 771 q 115 847 128 813 q 101 919 101 881 q 122 969 101 949 q 171 989 142 989 q 220 969 200 989 q 240 919 240 949 q 258 876 240 890 q 299 861 276 861 q 341 878 321 861 q 364 929 361 894 q 385 978 367 957 q 433 999 404 999 q 482 978 461 999 q 503 929 503 957 q 492 862 503 893 q 461 807 482 831 q 392 756 433 772 q 292 738 350 738 l 290 738 m 189 149 q 175 169 172 158 q 181 183 175 176 q 190 193 186 190 q 269 228 214 214 q 413 240 324 243 l 410 194 q 333 158 369 171 q 265 140 297 144 q 215 140 233 135 q 189 149 196 144 z "},"¯":{"ha":567,"x_min":47,"x_max":519,"o":"m 519 871 l 519 869 q 497 820 518 840 q 449 801 476 800 l 117 797 q 67 819 88 799 q 47 868 47 839 q 68 917 47 897 q 117 936 89 938 l 451 940 q 499 919 479 939 q 519 871 519 899 z "},"Ē":{"ha":786,"x_min":51,"x_max":750,"o":"m 746 107 q 720 153 743 136 q 668 168 697 171 q 649 165 668 168 q 599 160 631 163 q 528 153 568 157 q 444 146 488 149 q 276 139 332 138 q 199 143 219 140 q 194 228 196 171 q 192 386 193 286 q 268 385 224 386 q 364 385 313 385 q 522 388 443 385 q 651 399 601 390 q 697 426 681 403 q 708 478 714 450 q 681 524 704 507 q 629 535 657 540 q 533 526 592 529 q 412 524 475 524 q 289 524 349 524 q 192 525 229 525 l 192 529 q 193 749 192 653 q 197 893 194 844 q 272 899 221 896 q 421 903 324 903 q 501 902 463 903 q 568 900 539 901 q 615 898 597 899 q 633 897 633 897 l 636 897 q 684 917 664 897 q 706 964 704 936 q 688 1014 707 993 q 639 1036 668 1035 q 615 1037 638 1036 q 558 1039 593 1038 q 478 1041 524 1040 q 386 1042 433 1042 q 206 1033 272 1042 q 166 1028 183 1031 q 135 1022 149 1025 q 80 990 94 1010 q 63 950 65 969 q 58 890 60 936 q 55 781 56 843 q 53 651 54 719 q 53 524 53 582 q 52 372 51 442 q 54 247 53 301 q 58 168 56 199 q 62 119 60 138 q 65 90 64 100 q 69 75 67 81 q 147 13 86 29 q 182 6 163 8 q 226 1 201 3 q 254 0 239 0 q 286 0 269 0 q 419 4 344 0 q 517 11 469 7 q 601 19 564 15 q 660 26 638 24 q 686 29 683 29 q 732 56 714 33 q 746 107 750 79 m 629 1218 l 629 1217 q 607 1167 628 1188 q 558 1149 586 1147 l 226 1144 q 177 1166 197 1146 q 157 1215 157 1186 q 178 1265 157 1244 q 226 1283 199 1285 l 561 1288 q 609 1266 589 1286 q 629 1218 629 1246 z "},"Ī":{"ha":843,"x_min":39,"x_max":806,"o":"m 804 76 q 783 126 804 106 q 733 144 763 146 q 604 141 669 142 q 469 139 539 140 q 472 245 471 185 q 476 374 474 306 q 479 513 478 442 q 482 654 481 585 q 485 786 483 724 q 488 899 486 849 q 594 899 540 899 q 710 903 647 900 q 758 925 738 904 q 776 974 778 946 q 756 1023 776 1003 q 706 1042 735 1043 q 563 1038 629 1039 q 430 1036 496 1036 q 294 1038 364 1036 q 142 1042 225 1039 q 92 1024 114 1043 q 69 975 71 1004 q 88 925 68 946 q 136 903 108 904 q 248 899 196 900 q 349 897 300 899 q 345 719 347 822 q 340 510 343 617 q 335 306 338 404 q 331 139 332 207 q 224 141 278 140 q 113 144 169 142 q 63 126 85 146 q 40 78 42 106 q 59 28 39 49 q 107 6 79 7 q 257 1 185 3 q 400 0 329 0 q 574 1 490 0 q 738 6 657 3 q 785 28 765 7 q 804 76 806 49 m 657 1218 l 657 1217 q 635 1167 656 1188 q 586 1149 614 1147 l 254 1144 q 205 1166 225 1146 q 185 1215 185 1186 q 206 1265 185 1244 q 254 1283 226 1285 l 589 1288 q 637 1266 617 1286 q 657 1218 657 1246 z "},"Ō":{"ha":840,"x_min":35,"x_max":803,"o":"m 410 0 q 392 1 397 0 q 235 50 307 6 q 124 161 168 93 q 61 303 83 224 q 38 471 39 382 q 60 661 35 572 q 90 754 72 710 q 133 838 108 799 q 265 975 188 922 q 456 1042 350 1031 q 506 1026 483 1044 q 531 979 528 1007 q 515 928 533 950 q 468 903 496 906 q 339 856 394 896 q 247 756 283 817 q 193 622 211 696 q 176 474 175 549 q 192 355 178 414 q 233 249 206 296 q 301 172 260 203 q 400 139 343 142 l 408 139 q 495 165 456 139 q 566 232 535 190 q 619 326 597 274 q 651 431 640 378 q 662 553 664 493 q 644 663 660 613 q 539 786 614 761 q 499 822 511 796 q 497 875 486 847 q 532 915 507 903 q 585 918 557 928 q 708 832 660 890 q 749 774 732 806 q 778 704 765 742 q 801 560 799 638 q 788 403 803 483 q 738 250 771 322 q 660 125 706 178 q 543 32 606 63 q 410 0 476 0 m 656 1218 l 656 1217 q 633 1167 654 1188 q 585 1149 613 1147 l 253 1144 q 203 1166 224 1146 q 183 1215 183 1186 q 204 1265 183 1244 q 253 1283 225 1285 l 588 1288 q 635 1266 615 1286 q 656 1218 656 1246 z "},"Ū":{"ha":819,"x_min":47,"x_max":769,"o":"m 317 1 q 156 74 219 1 q 56 393 72 168 q 54 650 47 506 q 85 982 61 794 q 110 1028 88 1010 q 161 1043 133 1046 q 208 1016 190 1039 q 222 965 225 993 q 194 647 200 788 q 194 403 188 507 q 206 307 199 347 q 223 239 214 267 q 242 193 232 211 q 260 165 251 175 q 317 140 281 140 q 408 183 361 140 q 511 340 465 238 q 594 622 564 458 q 631 975 625 785 q 653 1024 632 1004 q 701 1043 674 1043 q 750 1021 731 1042 q 769 972 769 1000 l 761 626 q 753 356 757 489 q 749 69 750 222 q 728 22 749 42 q 679 1 707 1 q 630 22 650 1 q 610 71 610 43 q 610 152 610 113 q 613 231 611 192 q 477 60 553 118 q 317 1 401 1 m 646 1218 l 646 1217 q 624 1167 644 1188 q 575 1149 603 1147 l 243 1144 q 194 1166 214 1146 q 174 1215 174 1186 q 194 1265 174 1244 q 243 1283 215 1285 l 578 1288 q 626 1266 606 1286 q 646 1218 646 1246 z "},"ā":{"ha":606,"x_min":33,"x_max":557,"o":"m 547 521 q 496 622 536 579 q 396 679 456 664 q 232 665 317 700 q 75 543 143 629 q 59 492 56 519 q 85 446 63 464 q 136 430 108 426 q 183 457 164 433 q 281 535 232 518 q 361 544 329 553 q 411 496 403 536 q 417 442 415 471 q 417 379 418 413 q 231 363 313 383 q 99 299 150 343 q 36 175 39 244 q 56 92 33 131 q 118 29 78 53 q 167 8 138 18 q 238 -1 196 -1 q 317 8 274 -1 q 414 40 361 17 q 438 10 421 22 q 476 -1 456 -1 l 478 -1 q 526 19 506 -1 q 547 68 547 39 q 549 181 547 131 q 553 276 550 232 q 556 410 556 353 q 547 521 557 468 m 539 871 l 539 869 q 517 820 538 840 q 468 801 496 800 l 136 797 q 87 819 107 799 q 67 868 67 839 q 88 917 67 897 q 136 936 108 938 l 471 940 q 519 919 499 939 q 539 871 539 899 m 189 149 q 175 169 172 158 q 181 183 175 176 q 190 193 186 190 q 269 228 214 214 q 413 240 324 243 l 410 194 q 333 158 369 171 q 265 140 297 144 q 215 140 233 135 q 189 149 196 144 z "},"ē":{"ha":638,"x_min":36,"x_max":597,"o":"m 346 -6 q 316 -4 331 -6 q 286 0 301 -3 q 113 100 181 22 q 36 314 40 185 l 36 324 q 44 415 36 374 q 67 489 53 457 q 97 546 81 521 q 129 588 113 571 q 222 658 169 632 q 332 689 274 685 q 485 650 418 696 q 543 588 521 625 q 572 507 565 551 q 554 403 579 454 q 526 352 543 376 q 485 308 508 328 q 442 277 468 293 q 379 249 415 261 q 297 230 343 236 q 193 231 250 224 q 222 187 206 204 q 256 159 239 169 q 289 144 274 149 q 313 138 304 139 q 403 144 361 128 q 458 194 444 160 q 496 233 469 222 q 549 232 522 243 q 587 195 576 221 q 586 142 597 169 q 460 18 553 57 q 346 -6 406 -6 m 554 871 l 554 869 q 532 820 553 840 q 483 801 511 800 l 151 797 q 102 819 122 799 q 82 868 82 839 q 103 917 82 897 q 151 936 124 938 l 486 940 q 534 919 514 939 q 554 871 554 899 m 179 374 q 259 367 224 365 q 320 376 294 368 q 364 394 346 383 q 393 414 382 404 q 428 458 419 436 q 433 488 436 479 q 417 525 431 513 q 389 544 404 538 q 360 550 374 550 q 340 550 346 550 q 232 494 276 546 q 179 374 190 449 z "},"ī":{"ha":508,"x_min":19,"x_max":492,"o":"m 246 -1 l 244 -1 q 195 21 215 0 q 176 69 175 42 l 182 283 q 188 449 185 367 q 190 624 190 531 q 212 673 192 653 q 261 693 232 693 q 310 672 290 693 q 329 624 331 651 q 326 445 329 528 q 321 278 324 363 l 315 67 q 294 19 314 39 q 246 -1 274 -1 m 492 871 l 492 869 q 469 820 490 840 q 421 801 449 800 l 89 797 q 40 819 60 799 q 19 868 19 839 q 40 917 19 897 q 89 936 61 938 l 424 940 q 472 919 451 939 q 492 871 492 899 z "},"ō":{"ha":629,"x_min":36,"x_max":606,"o":"m 310 -6 q 296 -4 300 -6 q 182 29 232 -1 q 100 104 133 57 q 38 313 40 190 q 54 441 36 379 q 107 554 72 503 q 201 646 146 610 q 267 675 233 664 q 338 689 300 686 q 388 673 367 692 q 413 625 410 654 q 390 568 415 590 q 432 568 410 575 q 518 517 483 550 q 571 439 551 482 q 586 258 606 357 q 553 159 576 206 q 496 76 531 113 q 408 15 456 36 q 310 -6 360 -6 m 349 550 q 270 524 303 546 q 217 468 238 501 q 186 394 196 435 q 176 314 176 354 q 186 242 176 276 q 214 185 196 208 q 303 133 247 138 l 308 133 q 360 147 336 133 q 402 181 383 160 q 433 228 421 201 q 450 285 444 256 q 443 385 461 340 q 389 436 426 424 q 348 470 361 444 q 344 524 335 496 q 351 538 347 531 q 363 551 356 546 q 349 550 353 551 m 550 871 l 550 869 q 528 820 549 840 q 479 801 507 800 l 147 797 q 98 819 118 799 q 78 868 78 839 q 99 917 78 897 q 147 936 119 938 l 482 940 q 530 919 510 939 q 550 871 550 899 z "},"ū":{"ha":664,"x_min":47,"x_max":613,"o":"m 132 692 l 136 692 q 185 667 165 689 q 201 618 204 646 q 195 432 194 514 q 204 290 196 350 q 226 196 213 226 q 251 153 240 165 q 292 136 267 136 q 326 147 310 136 q 356 173 343 157 q 381 209 369 189 q 400 249 392 229 q 447 411 428 315 q 472 626 465 507 q 496 674 475 654 q 544 692 517 693 q 592 669 572 690 q 611 621 613 649 q 608 510 610 563 q 604 407 607 458 q 599 242 601 324 q 596 65 597 160 q 575 17 596 38 q 525 -3 554 -3 q 477 18 497 -3 q 457 68 457 39 l 457 78 q 372 13 415 29 q 292 -3 328 -3 q 214 13 250 -3 q 150 58 178 28 q 68 260 89 122 q 63 626 47 397 q 85 673 65 654 q 132 692 104 692 m 568 871 l 568 869 q 546 820 567 840 q 497 801 525 800 l 165 797 q 116 819 136 799 q 96 868 96 839 q 117 917 96 897 q 165 936 138 938 l 500 940 q 548 919 528 939 q 568 871 568 899 z "},"Ā":{"ha":711,"x_min":44,"x_max":669,"o":"m 654 443 q 606 743 638 617 q 490 982 563 910 q 351 1042 431 1044 q 204 975 267 1039 q 109 799 146 914 q 57 508 72 685 q 48 380 50 443 q 45 263 46 317 q 45 166 44 208 q 46 100 46 124 l 46 78 q 66 28 46 49 q 115 8 86 8 q 165 28 144 8 q 185 78 185 49 l 185 103 q 183 133 183 115 q 183 175 183 151 q 292 167 242 169 q 389 164 343 164 q 529 172 467 164 q 530 99 531 126 q 529 71 529 72 q 549 22 529 43 q 597 0 569 1 l 599 0 q 648 20 628 0 q 668 68 668 40 q 669 102 668 71 q 668 185 669 133 q 664 303 667 236 q 654 443 661 369 m 186 314 l 185 314 q 188 403 186 357 q 194 496 190 449 q 218 660 204 593 q 247 772 232 728 q 278 842 263 817 q 304 878 293 867 q 332 899 319 894 q 354 903 344 903 q 370 900 361 903 q 392 885 379 897 q 428 830 407 869 q 471 708 450 790 q 515 432 501 593 q 524 311 521 369 q 378 303 461 303 q 186 314 294 303 m 592 1218 l 592 1217 q 569 1167 590 1188 q 521 1149 549 1147 l 189 1144 q 140 1166 160 1146 q 119 1215 119 1186 q 140 1265 119 1244 q 189 1283 161 1285 l 524 1288 q 572 1266 551 1286 q 592 1218 592 1246 z "},"-":{"ha":515,"x_min":47,"x_max":468,"o":"m 468 399 l 468 397 q 446 348 467 368 q 397 329 425 328 l 117 325 q 67 347 88 326 q 47 396 47 367 q 68 445 47 425 q 117 464 89 465 l 400 468 q 448 447 428 467 q 468 399 468 426 z "},"=":{"ha":563,"x_min":49,"x_max":514,"o":"m 514 399 l 514 397 q 492 348 513 368 q 443 329 471 328 l 118 325 q 69 347 89 326 q 49 396 49 367 q 69 445 49 425 q 118 464 90 465 l 446 468 q 494 447 474 467 q 514 399 514 426 m 514 635 l 514 633 q 492 584 513 604 q 443 565 471 564 l 118 561 q 69 583 89 563 q 49 632 49 603 q 69 681 49 661 q 118 700 90 701 l 446 704 q 494 683 474 703 q 514 635 514 663 z "},"Ł":{"ha":871,"x_min":31,"x_max":863,"o":"m 397 0 q 365 0 381 0 q 336 1 350 0 q 292 6 311 3 q 257 13 272 8 q 179 75 196 29 q 174 94 176 81 q 169 144 172 107 q 165 252 167 182 q 164 443 164 322 l 132 431 q 78 433 104 421 q 42 472 53 444 q 43 526 31 500 q 82 561 56 551 l 165 593 q 167 735 165 667 q 169 856 168 803 q 170 942 169 910 q 171 974 171 974 q 193 1023 172 1003 q 242 1042 214 1043 q 291 1019 271 1040 q 310 971 311 999 q 309 943 310 969 q 308 873 308 917 q 306 771 307 829 q 304 649 304 713 l 346 665 q 397 664 372 675 q 433 625 422 653 l 435 624 q 432 570 444 596 q 392 535 419 544 l 303 499 q 303 356 303 417 q 304 253 303 296 q 306 184 306 211 q 308 143 307 157 q 387 139 331 140 q 556 146 443 138 q 640 153 599 149 q 712 160 681 157 q 762 166 743 164 q 781 168 781 168 q 833 153 810 171 q 858 107 856 136 q 844 56 863 79 q 799 29 826 33 q 773 26 796 29 q 713 19 750 24 q 628 11 675 15 q 531 4 581 7 q 397 0 456 0 z "},"ł":{"ha":442,"x_min":14,"x_max":428,"o":"m 213 -1 l 211 -1 q 162 21 182 0 q 143 69 142 42 l 150 444 l 115 431 q 62 433 88 421 q 25 472 36 444 q 26 526 14 500 q 65 561 39 551 l 151 594 l 158 1044 q 179 1094 158 1074 q 229 1114 200 1114 q 277 1093 257 1114 q 297 1043 297 1072 q 294 874 296 978 q 292 650 293 769 l 329 665 q 381 664 356 675 q 417 625 406 653 l 418 624 q 415 570 428 596 q 375 535 403 544 l 289 500 l 282 67 q 260 19 281 39 q 213 -1 240 -1 z "},"/":{"ha":754,"x_min":35,"x_max":719,"o":"m 583 938 q 631 972 603 968 q 680 960 658 975 q 710 919 701 946 q 700 863 719 893 l 171 31 q 124 -3 151 0 q 74 8 96 -7 q 43 49 51 22 q 54 106 35 75 l 583 938 l 583 938 z "},"+":{"ha":644,"x_min":32,"x_max":613,"o":"m 249 654 q 269 708 247 690 q 316 727 290 726 q 364 710 342 728 q 388 657 386 693 l 388 511 l 540 517 q 594 495 576 517 q 613 447 613 474 q 594 399 613 421 q 540 378 576 378 l 389 372 l 390 215 q 370 161 392 179 q 323 142 349 143 q 275 159 297 142 q 251 213 253 176 l 250 367 l 104 361 q 50 383 68 361 q 32 431 32 404 q 50 478 32 457 q 104 500 68 500 l 249 506 l 249 654 l 249 654 z "},"!":{"ha":232,"x_min":36,"x_max":194,"o":"m 107 1036 q 155 1016 135 1036 q 176 968 175 996 q 181 814 178 894 q 185 651 183 733 q 189 488 188 569 q 190 331 190 407 q 172 282 192 303 q 122 261 151 261 q 73 281 93 261 q 51 331 53 301 q 50 487 51 406 q 47 650 49 568 q 42 812 44 732 q 38 965 39 892 q 56 1014 36 993 q 106 1036 76 1035 l 107 1036 m 194 68 q 174 19 194 39 q 125 -1 154 -1 q 76 19 96 -1 q 56 68 56 39 q 76 117 56 97 q 125 138 96 138 q 174 117 154 138 q 194 68 194 97 z "},"¡":{"ha":229,"x_min":38,"x_max":196,"o":"m 125 -343 q 77 -323 97 -343 q 56 -275 57 -303 q 51 -121 54 -201 q 47 42 49 -40 q 43 205 44 124 q 42 363 42 286 q 60 411 40 390 q 110 432 81 432 q 159 412 139 432 q 181 363 179 392 q 182 206 181 288 q 185 43 183 125 q 190 -119 188 -39 q 194 -272 193 -199 q 176 -321 196 -300 q 126 -343 156 -342 l 125 -343 m 38 625 q 58 674 38 654 q 107 694 78 694 q 156 674 136 694 q 176 625 176 654 q 156 576 176 596 q 107 556 136 556 q 58 576 78 556 q 38 625 38 596 z "},"'":{"ha":221,"x_min":35,"x_max":186,"o":"m 36 849 q 56 903 35 885 q 103 923 78 922 q 151 907 129 924 q 175 854 174 890 l 185 563 q 165 508 186 526 q 117 488 143 489 q 69 503 92 486 q 46 557 47 521 l 36 849 l 36 849 z "},"\"":{"ha":488,"x_min":43,"x_max":444,"o":"m 44 849 q 65 903 43 885 q 112 923 86 922 q 160 907 138 924 q 183 854 182 890 l 193 563 q 173 508 194 526 q 126 488 151 489 q 78 503 100 486 q 54 557 56 521 l 44 849 m 294 849 q 315 903 293 885 q 362 923 336 922 q 410 907 388 924 q 433 854 432 890 l 443 563 q 423 508 444 526 q 376 488 401 489 q 328 503 350 486 q 304 557 306 521 l 294 849 z "},"˛":{"ha":400,"x_min":11,"x_max":365,"o":"m 200 -347 q 156 -343 178 -347 q 90 -309 118 -333 q 49 -247 63 -285 q 106 -11 11 -150 q 164 63 136 33 q 193 94 192 92 q 243 114 214 114 q 292 93 272 114 q 311 44 311 72 q 290 -6 311 15 q 267 -31 279 -17 q 243 -58 256 -42 q 219 -92 231 -74 q 183 -161 190 -135 q 178 -199 175 -187 q 182 -205 181 -204 q 186 -207 183 -206 q 221 -207 200 -211 q 250 -196 242 -203 q 299 -180 272 -179 q 346 -201 326 -181 q 365 -251 365 -222 q 343 -299 364 -279 q 284 -332 324 -317 q 200 -347 244 -347 z "},"ų":{"ha":664,"x_min":47,"x_max":650,"o":"m 132 692 l 136 692 q 185 667 165 689 q 201 618 204 646 q 195 432 194 514 q 204 290 196 350 q 226 196 213 226 q 251 153 240 165 q 292 136 267 136 q 326 147 310 136 q 356 173 343 157 q 381 209 369 189 q 400 249 392 229 q 447 411 428 315 q 472 626 465 507 q 496 674 475 654 q 544 692 517 693 q 592 669 572 690 q 611 621 613 649 q 608 510 610 563 q 604 407 607 458 q 599 250 601 328 q 596 85 597 172 q 597 50 600 68 q 578 19 593 32 l 568 11 q 539 -17 557 3 q 504 -62 521 -36 q 467 -132 475 -106 q 463 -169 460 -158 q 467 -176 465 -175 q 471 -178 468 -176 q 506 -178 485 -182 q 535 -167 526 -174 q 584 -151 557 -150 q 631 -172 611 -151 q 649 -222 650 -193 q 628 -269 649 -250 q 569 -303 608 -287 q 485 -318 529 -318 q 440 -314 463 -318 q 375 -280 403 -304 q 333 -218 347 -256 q 326 -150 321 -186 q 349 -77 332 -114 q 390 -6 365 -40 q 439 58 414 29 q 363 10 401 22 q 292 -3 324 -3 q 214 13 250 -3 q 150 58 178 28 q 68 260 89 122 q 63 626 47 397 q 85 673 65 654 q 132 692 104 692 z "},"Ų":{"ha":819,"x_min":47,"x_max":769,"o":"m 597 -347 q 553 -343 575 -347 q 488 -309 515 -333 q 446 -247 460 -285 q 503 -11 408 -150 q 561 63 533 33 q 590 94 589 92 q 610 107 599 103 q 610 169 610 139 q 613 231 611 200 q 477 60 553 118 q 317 1 401 1 q 156 74 219 1 q 56 393 72 168 q 54 650 47 506 q 85 982 61 794 q 110 1028 88 1010 q 161 1043 133 1046 q 208 1016 190 1039 q 222 965 225 993 q 194 647 200 788 q 194 403 188 507 q 206 307 199 347 q 223 239 214 267 q 242 193 232 211 q 260 165 251 175 q 317 140 281 140 q 408 183 361 140 q 511 340 465 238 q 594 622 564 458 q 631 975 625 785 q 653 1024 632 1004 q 701 1043 674 1043 q 750 1021 731 1042 q 769 972 769 1000 l 761 626 q 753 356 757 489 q 749 69 750 222 q 733 27 749 46 q 694 3 718 8 q 688 -6 693 0 q 664 -31 676 -17 q 640 -58 653 -42 q 617 -92 628 -74 q 580 -161 588 -135 q 575 -199 572 -187 q 579 -205 578 -204 q 583 -207 581 -206 q 618 -207 597 -211 q 647 -196 639 -203 q 697 -180 669 -179 q 743 -201 724 -181 q 762 -251 763 -222 q 740 -299 761 -279 q 681 -332 721 -317 q 597 -347 642 -347 z "},"Ą":{"ha":711,"x_min":44,"x_max":721,"o":"m 654 443 q 664 303 661 369 q 668 185 667 236 q 669 102 669 133 q 668 68 668 71 q 639 13 668 33 q 613 -17 632 4 q 575 -67 594 -37 q 538 -136 546 -110 q 533 -174 531 -162 q 538 -180 536 -179 q 542 -182 539 -181 q 576 -182 556 -186 q 606 -171 597 -178 q 655 -155 628 -154 q 701 -176 682 -156 q 720 -226 721 -197 q 699 -274 719 -254 q 640 -307 679 -292 q 556 -322 600 -322 q 511 -318 533 -322 q 446 -284 474 -308 q 404 -222 418 -260 q 461 14 367 -125 q 499 63 481 42 q 529 99 517 85 l 529 172 q 389 164 467 164 q 292 167 343 164 q 183 175 242 169 q 183 133 183 151 q 185 103 183 115 l 185 78 q 165 28 185 49 q 115 8 144 8 q 66 28 86 8 q 46 78 46 49 l 46 100 q 45 166 46 124 q 45 263 44 208 q 48 380 46 317 q 57 508 50 443 q 109 799 72 685 q 204 975 146 914 q 351 1042 267 1039 q 490 982 431 1044 q 606 743 563 910 q 654 443 638 617 m 186 314 q 378 303 294 303 q 524 311 461 303 q 515 432 521 369 q 471 708 501 593 q 428 830 450 790 q 392 885 407 869 q 370 900 379 897 q 354 903 361 903 q 332 899 344 903 q 304 878 319 894 q 278 842 293 867 q 247 772 263 817 q 218 660 232 728 q 194 496 204 593 q 188 403 190 449 q 185 314 186 357 l 186 314 z "},"ą":{"ha":606,"x_min":33,"x_max":593,"o":"m 547 521 q 556 410 557 468 q 553 276 556 353 q 549 181 550 232 q 547 68 547 131 q 538 29 547 47 q 518 -6 529 11 q 494 -31 507 -17 q 471 -58 483 -42 q 447 -92 458 -74 q 410 -161 418 -135 q 406 -199 403 -187 q 410 -205 408 -204 q 414 -207 411 -206 q 449 -207 428 -211 q 478 -196 469 -203 q 527 -180 500 -179 q 574 -201 554 -181 q 592 -251 593 -222 q 571 -299 592 -279 q 512 -332 551 -317 q 428 -347 472 -347 q 383 -343 406 -347 q 318 -309 346 -333 q 276 -247 290 -285 q 333 -11 239 -150 q 344 4 339 -3 q 354 18 349 11 q 292 3 321 7 q 238 -1 263 -1 q 167 8 196 -1 q 118 29 138 18 q 56 92 78 53 q 36 175 33 131 q 99 299 39 244 q 231 363 150 343 q 417 379 313 383 q 417 442 418 413 q 411 496 415 471 q 361 544 403 536 q 281 535 329 553 q 183 457 232 518 q 136 430 164 433 q 85 446 108 426 q 59 492 63 464 q 75 543 56 519 q 232 665 143 629 q 396 679 317 700 q 496 622 456 664 q 547 521 536 579 m 189 149 q 215 140 196 144 q 265 140 233 135 q 333 158 297 144 q 410 194 369 171 l 413 240 q 269 228 324 243 q 190 193 214 214 q 181 183 186 190 q 175 169 175 176 q 189 149 172 158 z "},"Į":{"ha":843,"x_min":39,"x_max":806,"o":"m 804 76 q 785 28 806 49 q 738 6 765 7 q 611 1 675 3 q 479 0 547 0 q 476 -2 478 -1 q 474 -6 475 -3 q 450 -31 463 -17 q 426 -58 439 -42 q 403 -92 414 -74 q 366 -161 374 -135 q 361 -199 358 -187 q 365 -205 364 -204 q 369 -207 367 -206 q 404 -207 383 -211 q 433 -196 425 -203 q 483 -180 456 -179 q 529 -201 510 -181 q 548 -251 549 -222 q 526 -299 547 -279 q 467 -332 507 -317 q 383 -347 428 -347 q 339 -343 361 -347 q 274 -309 301 -333 q 232 -247 246 -285 q 289 -11 194 -150 q 292 -6 292 -8 q 296 0 293 -3 q 203 2 250 1 q 107 6 156 3 q 59 28 79 7 q 40 78 39 49 q 63 126 42 106 q 113 144 85 146 q 224 141 169 142 q 331 139 278 140 q 335 306 332 207 q 340 510 338 404 q 345 719 343 617 q 349 897 347 822 q 248 899 300 899 q 136 903 196 900 q 88 925 108 904 q 69 975 68 946 q 92 1024 71 1004 q 142 1042 114 1043 q 294 1038 225 1039 q 430 1036 364 1036 q 563 1038 496 1036 q 706 1042 629 1039 q 756 1023 735 1043 q 776 974 776 1003 q 758 925 778 946 q 710 903 738 904 q 594 899 647 900 q 488 899 540 899 q 485 786 486 849 q 482 654 483 724 q 479 513 481 585 q 476 374 478 442 q 472 245 474 306 q 469 139 471 185 q 604 141 539 140 q 733 144 669 142 q 783 126 763 146 q 804 76 804 106 z "},"į":{"ha":379,"x_min":-6,"x_max":349,"o":"m 183 -347 q 139 -343 161 -347 q 74 -309 101 -333 q 32 -247 46 -285 q 89 -11 -6 -150 q 127 39 108 17 q 160 76 146 61 l 165 283 q 171 449 168 367 q 174 624 174 531 q 195 673 175 653 q 244 693 215 693 q 294 672 274 693 q 313 624 314 651 q 310 445 313 528 q 304 278 307 363 l 299 67 q 297 55 299 60 q 294 44 296 50 q 274 -6 294 15 q 250 -31 263 -17 q 226 -58 239 -42 q 203 -92 214 -74 q 166 -161 174 -135 q 161 -199 158 -187 q 165 -205 164 -204 q 169 -207 167 -206 q 204 -207 183 -211 q 233 -196 225 -203 q 283 -180 256 -179 q 329 -201 310 -181 q 348 -251 349 -222 q 326 -299 347 -279 q 267 -332 307 -317 q 183 -347 228 -347 m 317 886 q 297 837 317 857 q 247 817 276 817 q 198 837 218 817 q 178 886 178 857 q 198 935 178 915 q 247 956 218 956 q 297 935 276 956 q 317 886 317 915 z "},"Ę":{"ha":786,"x_min":51,"x_max":750,"o":"m 746 107 q 732 56 750 79 q 686 29 714 33 q 681 28 685 29 q 672 28 678 28 l 669 25 q 646 0 658 14 q 622 -27 635 -11 q 599 -61 610 -43 q 562 -131 569 -104 q 557 -168 554 -157 q 561 -174 560 -174 q 565 -176 563 -175 q 600 -176 579 -181 q 629 -165 621 -172 q 678 -149 651 -149 q 725 -171 706 -150 q 744 -220 744 -192 q 722 -268 743 -249 q 663 -301 703 -286 q 579 -317 624 -317 q 535 -312 557 -317 q 469 -278 497 -303 q 428 -217 442 -254 q 422 -113 408 -169 q 476 8 435 -57 l 419 4 q 286 0 344 0 q 254 0 269 0 q 226 1 239 0 q 182 6 201 3 q 147 13 163 8 q 69 75 86 29 q 65 90 67 81 q 62 119 64 100 q 58 168 60 138 q 54 247 56 199 q 52 372 53 301 q 53 524 51 442 q 53 651 53 582 q 55 781 54 719 q 58 890 56 843 q 63 950 60 936 q 80 990 65 969 q 135 1022 94 1010 q 166 1028 149 1025 q 206 1033 183 1031 q 386 1042 272 1042 q 478 1041 433 1042 q 558 1039 524 1040 q 615 1037 593 1038 q 639 1036 638 1036 q 688 1014 668 1035 q 706 964 707 993 q 684 917 704 936 q 636 897 664 897 l 633 897 q 615 898 633 897 q 568 900 597 899 q 501 902 539 901 q 421 903 463 903 q 272 899 324 903 q 197 893 221 896 q 193 749 194 844 q 192 529 192 653 l 192 525 q 289 524 229 525 q 412 524 349 524 q 533 526 475 524 q 629 535 592 529 q 681 524 657 540 q 708 478 704 507 q 697 426 714 450 q 651 399 681 403 q 522 388 601 390 q 364 385 443 385 q 268 385 313 385 q 192 386 224 386 q 194 228 193 286 q 199 143 196 171 q 276 139 219 140 q 444 146 332 138 q 528 153 488 149 q 599 160 568 157 q 649 165 631 163 q 668 168 668 168 q 720 153 697 171 q 746 107 743 136 z "}}}
